<?xml version="1.0" encoding="UTF-8"?>
<svg data-bbox="123 51.559 1155.777 699.191" height="1080" viewBox="0 0 1440 810" width="1920" xmlns="http://www.w3.org/2000/svg" data-type="color">
    <g>
        <defs>
            <clipPath id="93fe3861-b4a2-421c-8221-ece7cd1e8eb5">
                <path d="M521.137 106.82h359.035V551H521.137Zm0 0"/>
            </clipPath>
            <clipPath id="ba3f2cfb-53a9-4ef6-b8bc-a4d4696f11df">
                <path d="M880.172 120.871V536.59c0 3.726-1.48 7.3-4.113 9.937a14.07 14.07 0 0 1-9.938 4.114H535.188a14.05 14.05 0 0 1-14.051-14.051V120.87c0-3.726 1.48-7.3 4.117-9.933a14.04 14.04 0 0 1 9.933-4.118h330.934a14.053 14.053 0 0 1 14.05 14.051m0 0"/>
            </clipPath>
            <clipPath id="629fe9cb-ae6a-4d94-9df3-5c0a12a3be0b">
                <path d="M511.66 561.746h378.008V750.75H511.66Zm0 0"/>
            </clipPath>
            <clipPath id="93744d8b-2c5a-4d82-ab69-4e69a6101a74">
                <path d="M795.164 561.746c52.191 0 94.504 42.309 94.504 94.5 0 52.195-42.313 94.504-94.504 94.504H606.16c-52.191 0-94.5-42.309-94.5-94.504 0-52.191 42.309-94.5 94.5-94.5Zm0 0"/>
            </clipPath>
            <clipPath id="76bc161d-d275-468b-b35c-10256630df81">
                <path d="M132.48 164.703h359.036V551H132.48Zm0 0"/>
            </clipPath>
            <clipPath id="8700f1b0-677c-4fc7-b5e1-e3d99dfc23e1">
                <path d="M491.516 178.754v357.832c0 3.726-1.48 7.3-4.114 9.937a14.07 14.07 0 0 1-9.937 4.114h-330.93a14.053 14.053 0 0 1-14.055-14.05V178.753c0-3.727 1.48-7.3 4.118-9.934a14.05 14.05 0 0 1 9.937-4.117h330.93a14.053 14.053 0 0 1 14.05 14.05m0 0"/>
            </clipPath>
            <clipPath id="5479e18f-ba7f-4687-bad2-0d8d824bbaf7">
                <path d="M123 561.746h378.008V750.75H123Zm0 0"/>
            </clipPath>
            <clipPath id="b47b4ec3-e07d-4091-9faf-b0baca86f438">
                <path d="M406.504 561.746c52.195 0 94.504 42.309 94.504 94.5 0 52.195-42.309 94.504-94.504 94.504H217.5c-52.191 0-94.5-42.309-94.5-94.504 0-52.191 42.309-94.5 94.5-94.5Zm0 0"/>
            </clipPath>
            <clipPath id="00bf161d-111f-4d04-a3b4-d0a889db34f7">
                <path d="M910.25 51.559h359.035v499.28H910.25Zm0 0"/>
            </clipPath>
            <clipPath id="eab4f58a-693c-4950-8b85-80a53b06d69c">
                <path d="M1269.285 65.61v470.98a14.05 14.05 0 0 1-14.05 14.05H924.3c-3.727 0-7.301-1.48-9.934-4.117a14.04 14.04 0 0 1-4.117-9.933V65.61a14.053 14.053 0 0 1 14.05-14.051h330.934c3.727 0 7.301 1.48 9.938 4.113a14.07 14.07 0 0 1 4.113 9.937m0 0"/>
            </clipPath>
            <clipPath id="3d3c20e5-6f40-45a8-bc77-b111e9d89fb4">
                <path d="M900.77 561.746h378.007V750.75H900.77Zm0 0"/>
            </clipPath>
            <clipPath id="631c5c34-b525-4966-9401-98633a11ec2d">
                <path d="M1184.277 561.746c52.192 0 94.5 42.309 94.5 94.5 0 52.195-42.308 94.504-94.5 94.504H995.273c-52.191 0-94.503-42.309-94.503-94.504 0-52.191 42.312-94.5 94.503-94.5Zm0 0"/>
            </clipPath>
        </defs>
        <g clip-path="url(#93fe3861-b4a2-421c-8221-ece7cd1e8eb5)">
            <g clip-path="url(#ba3f2cfb-53a9-4ef6-b8bc-a4d4696f11df)">
                <path d="M880.172 106.82v443.184H521.137V106.82Zm0 0" fill="#ffe037" data-color="1"/>
            </g>
        </g>
        <g clip-path="url(#629fe9cb-ae6a-4d94-9df3-5c0a12a3be0b)">
            <g clip-path="url(#93744d8b-2c5a-4d82-ab69-4e69a6101a74)">
                <path d="M511.66 561.746h378.008V750.75H511.66Zm0 0" fill="#ffe037" data-color="1"/>
            </g>
        </g>
        <path d="M599.983 643.95c-1.805 0-3.461-.337-4.97-1q-2.25-1.014-3.702-2.876l3.421-4.11c1.446 1.962 3.094 2.938 4.938 2.938q3.764 0 3.766-4.406V621.84h-9.344v-4.938h15.453v17.25q0 4.894-2.437 7.344-2.427 2.454-7.125 2.453m0 0" fill="#ffffff" data-color="2"/>
        <path d="M635.802 623.059v20.437h-5.625v-2.437a7.8 7.8 0 0 1-2.812 2.03q-1.628.705-3.532.704c-2.687 0-4.82-.77-6.39-2.313q-2.344-2.31-2.344-6.875v-11.547h5.922v10.672q0 4.939 4.14 4.938 2.122.001 3.422-1.375 1.296-1.388 1.297-4.14v-10.095Zm0 0" fill="#ffffff" data-color="2"/>
        <path d="M653.731 622.746q3.81.001 6.14 2.281 2.345 2.285 2.345 6.766v11.703h-5.938v-10.797q0-2.419-1.062-3.625-1.065-1.202-3.078-1.203-2.238.001-3.579 1.39-1.328 1.395-1.328 4.126v10.109h-5.922v-20.437h5.657v2.39q1.185-1.296 2.937-2 1.747-.703 3.828-.703m0 0" fill="#ffffff" data-color="2"/>
        <path d="M667.562 623.059h5.922v20.437h-5.922Zm2.953-2.86q-1.626 0-2.656-.937-1.03-.951-1.031-2.36 0-1.404 1.031-2.36c.688-.632 1.57-.952 2.656-.952 1.094 0 1.977.308 2.657.922q1.03.907 1.031 2.265 0 1.487-1.031 2.453c-.68.649-1.563.97-2.657.97m0 0" fill="#ffffff" data-color="2"/>
        <path d="M688.732 643.793c-2.156 0-4.09-.445-5.797-1.344-1.711-.894-3.047-2.14-4.016-3.734q-1.438-2.402-1.437-5.438c0-2.031.476-3.844 1.437-5.437.969-1.594 2.305-2.836 4.016-3.735q2.561-1.359 5.797-1.359 3.216 0 5.765 1.36c1.696.898 3.024 2.14 3.985 3.734q1.453 2.39 1.453 5.437 0 3.036-1.453 5.438-1.442 2.391-3.985 3.734c-1.699.899-3.62 1.344-5.765 1.344m0-4.86c1.52 0 2.765-.507 3.734-1.53q1.467-1.548 1.469-4.126-.002-2.589-1.469-4.125-1.454-1.547-3.734-1.547-2.285 0-3.766 1.547-1.486 1.536-1.484 4.125c0 1.719.492 3.094 1.484 4.125.988 1.024 2.242 1.531 3.766 1.531m0 0" fill="#ffffff" data-color="2"/>
        <path d="M709.539 625.746q1.076-1.483 2.875-2.234 1.811-.764 4.156-.766v5.469a22 22 0 0 0-1.328-.078q-2.548 0-4 1.437-1.44 1.424-1.438 4.266v9.656h-5.922v-20.437h5.657Zm0 0" fill="#ffffff" data-color="2"/>
        <path d="M738.648 629.777h5.625v10.797q-2.156 1.628-5.016 2.5a19.5 19.5 0 0 1-5.734.875q-4.143.002-7.453-1.765-3.3-1.763-5.188-4.891-1.875-3.14-1.875-7.094 0-3.95 1.875-7.078 1.888-3.14 5.235-4.906c2.226-1.188 4.734-1.782 7.515-1.782 2.332 0 4.446.399 6.344 1.188q2.858 1.172 4.797 3.422l-3.953 3.64q-2.86-3-6.875-3-2.55.001-4.531 1.063a7.7 7.7 0 0 0-3.078 3q-1.095 1.94-1.094 4.453-.001 2.473 1.094 4.406a7.9 7.9 0 0 0 3.062 3.032q1.95 1.077 4.469 1.078 2.654 0 4.781-1.14Zm0 0" fill="#ffffff" data-color="2"/>
        <path d="m769.846 623.059-9.234 21.687c-.938 2.352-2.102 4.008-3.484 4.969q-2.063 1.452-5 1.453a10.3 10.3 0 0 1-3.157-.5q-1.547-.486-2.531-1.36l2.156-4.218q.687.608 1.578.953c.594.226 1.18.344 1.766.344q1.22-.002 1.969-.594c.508-.399.969-1.047 1.375-1.953l.078-.188-8.844-20.594h6.11l5.734 13.86 5.781-13.86Zm0 0" fill="#ffffff" data-color="2"/>
        <path d="M798.456 622.746c2.55 0 4.582.758 6.094 2.266 1.507 1.511 2.265 3.773 2.265 6.78v11.704h-5.937v-10.797q-.002-2.419-1-3.625-1.001-1.202-2.875-1.203-2.08 0-3.297 1.36-1.22 1.346-1.219 4v10.265h-5.922v-10.797q0-4.828-3.89-4.828c-1.368 0-2.453.453-3.266 1.36q-1.219 1.346-1.219 4v10.265h-5.922v-20.437h5.657v2.343a7.6 7.6 0 0 1 2.797-1.969q1.654-.686 3.625-.687c1.445 0 2.753.29 3.921.86a7 7 0 0 1 2.813 2.484c.832-1.063 1.89-1.883 3.172-2.469q1.92-.874 4.203-.875m0 0" fill="#ffffff" data-color="2"/>
        <path d="M624.186 690.402h-4.328v5.594h-6.016v-5.594h-14.328v-4.14l12.547-16.86h6.453l-11.625 15.985h7.14v-4.97h5.829v4.97h4.328Zm0 0" fill="#ffffff" data-color="2"/>
        <path d="M626.489 682.918h10.765v4.75H626.49Zm0 0" fill="#ffffff" data-color="2"/>
        <path d="m662.215 675.559-9.234 21.687q-1.409 3.528-3.485 4.969-2.063 1.452-5 1.453c-1.062 0-2.117-.168-3.156-.5q-1.547-.486-2.531-1.36l2.156-4.218q.687.608 1.578.953c.594.226 1.18.344 1.766.344q1.22-.002 1.969-.594c.508-.399.968-1.047 1.375-1.953l.078-.188-8.844-20.594h6.11l5.734 13.86 5.781-13.86Zm0 0" fill="#ffffff" data-color="2"/>
        <path d="M684.669 685.855q-.001.112-.125 1.594H669.09q.403 1.893 1.968 3 1.56 1.094 3.875 1.094 1.593 0 2.828-.469 1.23-.468 2.297-1.5l3.157 3.422q-2.877 3.298-8.438 3.297c-2.305 0-4.34-.445-6.11-1.344-1.773-.894-3.14-2.14-4.109-3.734q-1.438-2.403-1.437-5.438-.002-2.999 1.422-5.406a9.9 9.9 0 0 1 3.906-3.766q2.496-1.359 5.578-1.359 2.998.001 5.422 1.297a9.54 9.54 0 0 1 3.828 3.703q1.39 2.409 1.39 5.61m-10.61-6.125c-1.343 0-2.476.383-3.39 1.141q-1.362 1.142-1.657 3.11h10.063q-.3-1.934-1.672-3.094-1.36-1.156-3.344-1.157m0 0" fill="#ffffff" data-color="2"/>
        <path d="M696.861 675.246c3.164 0 5.598.758 7.297 2.266q2.546 2.265 2.547 6.812v11.672h-5.547v-2.547c-1.117 1.899-3.195 2.844-6.234 2.844q-2.36 0-4.094-.797-1.721-.797-2.64-2.203-.908-1.407-.907-3.188-.002-2.842 2.14-4.484 2.156-1.64 6.641-1.64h4.704q0-1.937-1.172-2.97-1.174-1.044-3.532-1.046-1.64 0-3.218.515-1.583.503-2.672 1.375l-2.125-4.14c1.113-.782 2.445-1.383 4-1.813a17.8 17.8 0 0 1 4.812-.656m-.453 17.063q1.513 0 2.688-.704 1.184-.702 1.672-2.062v-2.094h-4.063c-2.43 0-3.64.797-3.64 2.39q0 1.144.89 1.813.89.656 2.453.656m0 0" fill="#ffffff" data-color="2"/>
        <path d="M717.709 678.246q1.076-1.483 2.875-2.234 1.811-.764 4.156-.766v5.469a22 22 0 0 0-1.328-.078q-2.549 0-4 1.437-1.44 1.424-1.438 4.266v9.656h-5.922v-20.437h5.657Zm0 0" fill="#ffffff" data-color="2"/>
        <path d="M727.66 682.918h10.766v4.75h-10.765Zm0 0" fill="#ffffff" data-color="2"/>
        <path d="M752.826 696.293c-2.157 0-4.09-.445-5.797-1.344q-2.564-1.342-4.016-3.734-1.439-2.403-1.437-5.438c0-2.031.476-3.844 1.437-5.437.969-1.594 2.305-2.836 4.016-3.735q2.561-1.359 5.797-1.359 3.216 0 5.765 1.36c1.696.898 3.024 2.14 3.985 3.734q1.452 2.39 1.453 5.437 0 3.036-1.453 5.438-1.442 2.391-3.985 3.734c-1.699.899-3.62 1.344-5.765 1.344m0-4.86c1.52 0 2.765-.507 3.734-1.53q1.467-1.548 1.469-4.126-.002-2.589-1.469-4.125-1.455-1.547-3.734-1.547-2.285 0-3.766 1.547-1.486 1.536-1.484 4.125c0 1.719.492 3.094 1.484 4.125.988 1.024 2.242 1.531 3.766 1.531m0 0" fill="#ffffff" data-color="2"/>
        <path d="M767.976 667.793h5.922v28.203h-5.922Zm0 0" fill="#ffffff" data-color="2"/>
        <path d="M800.24 667.793v28.203h-5.671v-2.36c-1.47 1.774-3.594 2.657-6.375 2.657-1.93 0-3.672-.426-5.235-1.281q-2.331-1.297-3.656-3.688-1.33-2.39-1.328-5.547c0-2.101.441-3.953 1.328-5.547q1.325-2.388 3.656-3.687c1.563-.863 3.305-1.297 5.235-1.297q3.904 0 6.109 2.469v-9.922Zm-11.015 23.64c1.488 0 2.726-.507 3.719-1.53q1.483-1.548 1.484-4.126-.001-2.589-1.484-4.125c-.993-1.031-2.23-1.547-3.72-1.547q-2.283 0-3.765 1.547-1.486 1.536-1.484 4.125c0 1.719.492 3.094 1.484 4.125.989 1.024 2.242 1.531 3.766 1.531m0 0" fill="#ffffff" data-color="2"/>
        <g clip-path="url(#76bc161d-d275-468b-b35c-10256630df81)">
            <g clip-path="url(#8700f1b0-677c-4fc7-b5e1-e3d99dfc23e1)">
                <path d="M491.516 164.703v385.684H132.48V164.703Zm0 0" fill="#ffe037" data-color="1"/>
            </g>
        </g>
        <g clip-path="url(#5479e18f-ba7f-4687-bad2-0d8d824bbaf7)">
            <g clip-path="url(#b47b4ec3-e07d-4091-9faf-b0baca86f438)">
                <path d="M123 561.746h378.008V750.75H123Zm0 0" fill="#ffe037" data-color="1"/>
            </g>
        </g>
        <path d="M205.946 643.95c-1.805 0-3.461-.337-4.97-1q-2.25-1.014-3.702-2.876l3.422-4.11c1.445 1.962 3.093 2.938 4.937 2.938 2.508 0 3.766-1.469 3.766-4.406V621.84h-9.344v-4.938h15.453v17.25q0 4.894-2.437 7.344-2.427 2.454-7.125 2.453m0 0" fill="#ffffff" data-color="2"/>
        <path d="M241.765 623.059v20.437h-5.625v-2.437a7.8 7.8 0 0 1-2.812 2.03q-1.628.705-3.532.704c-2.687 0-4.82-.77-6.39-2.313q-2.344-2.31-2.344-6.875v-11.547h5.922v10.672q0 4.939 4.14 4.938 2.122.001 3.422-1.375 1.296-1.388 1.297-4.14v-10.095Zm0 0" fill="#ffffff" data-color="2"/>
        <path d="M259.693 622.746q3.81.001 6.14 2.281 2.345 2.285 2.345 6.766v11.703h-5.938v-10.797q0-2.419-1.062-3.625-1.065-1.202-3.078-1.203-2.238.001-3.579 1.39-1.329 1.395-1.328 4.126v10.109h-5.922v-20.437h5.657v2.39q1.185-1.296 2.937-2 1.747-.703 3.828-.703m0 0" fill="#ffffff" data-color="2"/>
        <path d="M273.524 623.059h5.922v20.437h-5.922Zm2.954-2.86q-1.628 0-2.657-.937-1.03-.951-1.031-2.36 0-1.404 1.031-2.36c.688-.632 1.57-.952 2.656-.952 1.094 0 1.977.308 2.657.922q1.03.907 1.031 2.265 0 1.487-1.031 2.453-1.018.972-2.656.97m0 0" fill="#ffffff" data-color="2"/>
        <path d="M294.695 643.793c-2.156 0-4.09-.445-5.797-1.344q-2.565-1.342-4.016-3.734-1.438-2.402-1.437-5.438c0-2.031.476-3.844 1.437-5.437.969-1.594 2.305-2.836 4.016-3.735q2.561-1.359 5.797-1.359 3.216 0 5.765 1.36c1.696.898 3.024 2.14 3.985 3.734q1.453 2.39 1.453 5.437 0 3.036-1.453 5.438-1.442 2.391-3.985 3.734c-1.699.899-3.62 1.344-5.765 1.344m0-4.86c1.52 0 2.765-.507 3.734-1.53q1.467-1.548 1.469-4.126-.002-2.589-1.469-4.125-1.454-1.547-3.734-1.547-2.285 0-3.766 1.547c-.992 1.024-1.484 2.399-1.484 4.125 0 1.719.492 3.094 1.484 4.125.988 1.024 2.242 1.531 3.766 1.531m0 0" fill="#ffffff" data-color="2"/>
        <path d="M315.5 625.746c.72-.988 1.676-1.734 2.876-2.234q1.811-.764 4.156-.766v5.469a22 22 0 0 0-1.328-.078q-2.548 0-4 1.437-1.44 1.424-1.438 4.266v9.656h-5.922v-20.437h5.657Zm0 0" fill="#ffffff" data-color="2"/>
        <path d="M344.61 629.777h5.625v10.797q-2.156 1.628-5.016 2.5a19.5 19.5 0 0 1-5.734.875q-4.143.002-7.453-1.765-3.3-1.763-5.188-4.891-1.875-3.14-1.875-7.094 0-3.95 1.875-7.078 1.888-3.14 5.235-4.906c2.226-1.188 4.734-1.782 7.515-1.782 2.332 0 4.446.399 6.344 1.188q2.858 1.172 4.797 3.422l-3.953 3.64q-2.86-3-6.875-3-2.55.001-4.531 1.063a7.7 7.7 0 0 0-3.078 3q-1.095 1.94-1.094 4.453-.001 2.473 1.094 4.406a7.9 7.9 0 0 0 3.062 3.032q1.95 1.077 4.469 1.078 2.654 0 4.781-1.14Zm0 0" fill="#ffffff" data-color="2"/>
        <path d="m375.808 623.059-9.234 21.687q-1.409 3.528-3.485 4.969-2.063 1.452-5 1.453c-1.062 0-2.117-.168-3.156-.5q-1.547-.486-2.531-1.36l2.156-4.218q.687.608 1.578.953c.594.226 1.18.344 1.766.344q1.22-.002 1.969-.594c.508-.399.969-1.047 1.375-1.953l.078-.188-8.844-20.594h6.11l5.734 13.86 5.781-13.86Zm0 0" fill="#ffffff" data-color="2"/>
        <path d="M404.419 622.746c2.55 0 4.582.758 6.094 2.266 1.507 1.511 2.265 3.773 2.265 6.78v11.704h-5.937v-10.797c0-1.613-.336-2.82-1-3.625q-1.001-1.202-2.875-1.203-2.08 0-3.297 1.36-1.22 1.346-1.219 4v10.265h-5.922v-10.797q0-4.828-3.89-4.828c-1.368 0-2.453.453-3.266 1.36q-1.219 1.346-1.219 4v10.265h-5.922v-20.437h5.657v2.343a7.6 7.6 0 0 1 2.797-1.969c1.101-.457 2.312-.687 3.625-.687 1.445 0 2.753.29 3.921.86a7 7 0 0 1 2.813 2.484c.832-1.063 1.89-1.883 3.172-2.469q1.92-.874 4.203-.875m0 0" fill="#ffffff" data-color="2"/>
        <path d="M292.812 690.98v5.016h-20.109v-3.984l10.266-9.703q1.624-1.548 2.187-2.672.576-1.124.578-2.22 0-1.592-1.078-2.452c-.719-.57-1.777-.86-3.172-.86-1.168 0-2.219.227-3.156.672a6 6 0 0 0-2.36 1.985l-4.484-2.875q1.56-2.327 4.297-3.641 2.73-1.312 6.281-1.312 2.954.001 5.172.968 2.233.971 3.469 2.75 1.232 1.768 1.234 4.156a9.2 9.2 0 0 1-.922 4.063q-.906 1.909-3.53 4.328l-6.11 5.781Zm0 0" fill="#ffffff" data-color="2"/>
        <path d="M306.589 682.918h10.765v4.75H306.59Zm0 0" fill="#ffffff" data-color="2"/>
        <path d="M343.943 680.23c2.332.375 4.117 1.243 5.36 2.594q1.858 2.035 1.859 5.047a7.9 7.9 0 0 1-1.219 4.266q-1.207 1.956-3.703 3.14-2.484 1.172-6.094 1.172-2.812-.001-5.53-.734-2.721-.75-4.61-2.11l2.39-4.718q1.513 1.143 3.5 1.765 1.998.626 4.094.625 2.326 0 3.656-.89c.883-.594 1.328-1.43 1.328-2.516q-.002-3.28-4.984-3.281h-2.812v-4.063l5.468-6.187h-11.312v-4.938h18.61v3.985Zm0 0" fill="#ffffff" data-color="2"/>
        <g clip-path="url(#00bf161d-111f-4d04-a3b4-d0a889db34f7)">
            <g clip-path="url(#eab4f58a-693c-4950-8b85-80a53b06d69c)">
                <path d="M1269.285 51.559v499.28H910.25V51.56Zm0 0" fill="#ffe037" data-color="1"/>
            </g>
        </g>
        <g clip-path="url(#3d3c20e5-6f40-45a8-bc77-b111e9d89fb4)">
            <g clip-path="url(#631c5c34-b525-4966-9401-98633a11ec2d)">
                <path d="M900.77 561.746h378.007V750.75H900.77Zm0 0" fill="#ffe037" data-color="1"/>
            </g>
        </g>
        <path d="M989.095 643.95c-1.805 0-3.461-.337-4.97-1q-2.25-1.014-3.702-2.876l3.422-4.11c1.445 1.962 3.093 2.938 4.937 2.938 2.508 0 3.766-1.469 3.766-4.406V621.84h-9.344v-4.938h15.453v17.25q0 4.894-2.437 7.344-2.427 2.454-7.125 2.453m0 0" fill="#ffffff" data-color="2"/>
        <path d="M1024.914 623.059v20.437h-5.625v-2.437a7.8 7.8 0 0 1-2.812 2.03q-1.628.705-3.532.704c-2.687 0-4.82-.77-6.39-2.313q-2.344-2.31-2.344-6.875v-11.547h5.922v10.672q0 4.939 4.14 4.938 2.122.001 3.422-1.375 1.297-1.388 1.297-4.14v-10.095Zm0 0" fill="#ffffff" data-color="2"/>
        <path d="M1042.843 622.746q3.81.001 6.14 2.281 2.345 2.285 2.345 6.766v11.703h-5.938v-10.797q0-2.419-1.062-3.625-1.065-1.202-3.079-1.203-2.237.001-3.578 1.39-1.329 1.395-1.328 4.126v10.109h-5.922v-20.437h5.657v2.39q1.185-1.296 2.937-2 1.747-.703 3.828-.703m0 0" fill="#ffffff" data-color="2"/>
        <path d="M1056.674 623.059h5.922v20.437h-5.922Zm2.954-2.86q-1.628 0-2.657-.937-1.03-.951-1.031-2.36 0-1.404 1.031-2.36c.688-.632 1.57-.952 2.657-.952q1.638 0 2.656.922 1.03.907 1.031 2.265 0 1.487-1.031 2.453c-.68.649-1.563.97-2.657.97m0 0" fill="#ffffff" data-color="2"/>
        <path d="M1077.844 643.793c-2.157 0-4.09-.445-5.797-1.344q-2.564-1.342-4.016-3.734-1.438-2.402-1.437-5.438c0-2.031.476-3.844 1.437-5.437.969-1.594 2.305-2.836 4.016-3.735q2.561-1.359 5.797-1.359 3.216 0 5.765 1.36c1.696.898 3.024 2.14 3.985 3.734q1.453 2.39 1.453 5.437 0 3.036-1.453 5.438-1.442 2.391-3.985 3.734c-1.699.899-3.62 1.344-5.765 1.344m0-4.86c1.52 0 2.765-.507 3.734-1.53q1.467-1.548 1.469-4.126-.002-2.589-1.469-4.125-1.454-1.547-3.734-1.547-2.285 0-3.766 1.547-1.486 1.536-1.484 4.125c0 1.719.492 3.094 1.484 4.125.988 1.024 2.242 1.531 3.766 1.531m0 0" fill="#ffffff" data-color="2"/>
        <path d="M1098.65 625.746c.72-.988 1.676-1.734 2.876-2.234q1.811-.764 4.156-.766v5.469a22 22 0 0 0-1.328-.078q-2.549 0-4 1.437-1.44 1.424-1.438 4.266v9.656h-5.922v-20.437h5.657Zm0 0" fill="#ffffff" data-color="2"/>
        <path d="M1127.76 629.777h5.625v10.797q-2.156 1.628-5.016 2.5a19.5 19.5 0 0 1-5.734.875q-4.143.002-7.453-1.765-3.3-1.763-5.188-4.891-1.875-3.14-1.875-7.094 0-3.95 1.875-7.078 1.888-3.14 5.235-4.906c2.226-1.188 4.734-1.782 7.515-1.782 2.332 0 4.446.399 6.344 1.188q2.858 1.172 4.797 3.422l-3.953 3.64q-2.86-3-6.875-3-2.55.001-4.531 1.063a7.7 7.7 0 0 0-3.079 3q-1.094 1.94-1.093 4.453-.001 2.473 1.093 4.406a7.9 7.9 0 0 0 3.063 3.032q1.95 1.077 4.469 1.078 2.655 0 4.781-1.14Zm0 0" fill="#ffffff" data-color="2"/>
        <path d="m1158.958 623.059-9.234 21.687q-1.409 3.528-3.485 4.969-2.063 1.452-5 1.453c-1.062 0-2.117-.168-3.156-.5q-1.547-.486-2.531-1.36l2.156-4.218q.687.608 1.578.953c.594.226 1.18.344 1.766.344q1.22-.002 1.969-.594c.508-.399.968-1.047 1.375-1.953l.078-.188-8.844-20.594h6.11l5.734 13.86 5.781-13.86Zm0 0" fill="#ffffff" data-color="2"/>
        <path d="M1187.568 622.746c2.55 0 4.582.758 6.094 2.266 1.507 1.511 2.265 3.773 2.265 6.78v11.704h-5.937v-10.797c0-1.613-.336-2.82-1-3.625q-1.001-1.202-2.875-1.203-2.08 0-3.297 1.36-1.22 1.346-1.219 4v10.265h-5.922v-10.797q0-4.828-3.89-4.828-2.05 0-3.266 1.36-1.218 1.346-1.219 4v10.265h-5.922v-20.437h5.657v2.343a7.6 7.6 0 0 1 2.796-1.969c1.102-.457 2.313-.687 3.625-.687 1.446 0 2.754.29 3.922.86a7 7 0 0 1 2.813 2.484c.832-1.063 1.89-1.883 3.172-2.469q1.92-.874 4.203-.875m0 0" fill="#ffffff" data-color="2"/>
        <path d="M994.697 690.293h-12.344l-2.36 5.703h-6.312l11.86-26.594h6.078l11.89 26.594h-6.453Zm-1.938-4.672-4.218-10.187-4.22 10.187Zm0 0" fill="#ffffff" data-color="2"/>
        <path d="M1026.69 667.793v28.203h-5.672v-2.36c-1.47 1.774-3.594 2.657-6.375 2.657-1.93 0-3.672-.426-5.235-1.281q-2.331-1.297-3.656-3.688-1.33-2.39-1.328-5.547c0-2.101.441-3.953 1.328-5.547q1.325-2.388 3.656-3.687c1.563-.863 3.305-1.297 5.235-1.297 2.601 0 4.64.824 6.109 2.469v-9.922Zm-11.016 23.64c1.488 0 2.726-.507 3.719-1.53q1.483-1.548 1.484-4.126-.001-2.589-1.484-4.125c-.993-1.031-2.23-1.547-3.72-1.547q-2.283 0-3.765 1.547-1.486 1.536-1.484 4.125-.002 2.578 1.484 4.125c.989 1.024 2.242 1.531 3.766 1.531m0 0" fill="#ffffff" data-color="2"/>
        <path d="m1052.448 675.559-8.625 20.437h-6.125l-8.578-20.437h6.11l5.656 13.906 5.86-13.907Zm0 0" fill="#ffffff" data-color="2"/>
        <path d="M1074.903 685.855q-.001.112-.125 1.594h-15.454q.404 1.893 1.97 3 1.558 1.094 3.874 1.094 1.593 0 2.828-.469 1.23-.468 2.297-1.5l3.157 3.422q-2.877 3.298-8.438 3.297c-2.305 0-4.34-.445-6.11-1.344q-2.658-1.342-4.109-3.734-1.438-2.403-1.437-5.438-.001-2.999 1.422-5.406a9.9 9.9 0 0 1 3.906-3.766q2.496-1.359 5.578-1.359 2.998.001 5.422 1.297a9.54 9.54 0 0 1 3.828 3.703q1.39 2.409 1.39 5.61m-10.61-6.125c-1.343 0-2.476.383-3.39 1.141q-1.362 1.142-1.657 3.11h10.063q-.3-1.934-1.672-3.094-1.36-1.156-3.344-1.157m0 0" fill="#ffffff" data-color="2"/>
        <path d="M1091.266 675.246q3.81.001 6.14 2.281 2.345 2.285 2.345 6.766v11.703h-5.938v-10.797q0-2.419-1.062-3.625-1.065-1.202-3.079-1.203-2.237.001-3.578 1.39-1.329 1.395-1.328 4.126v10.109h-5.922v-20.437h5.657v2.39q1.185-1.296 2.937-2 1.747-.703 3.828-.703m0 0" fill="#ffffff" data-color="2"/>
        <path d="M1118.284 695.012q-.88.643-2.156.968-1.266.312-2.672.313c-2.43 0-4.309-.617-5.64-1.86-1.337-1.238-2-3.062-2-5.468v-8.39h-3.157v-4.563h3.156v-4.985h5.938v4.985h5.093v4.562h-5.093v8.313c0 .867.218 1.53.656 2 .445.468 1.078.703 1.89.703q1.407.001 2.391-.766Zm0 0" fill="#ffffff" data-color="2"/>
        <path d="M1142.218 675.559v20.437h-5.625v-2.437a7.8 7.8 0 0 1-2.812 2.03q-1.628.705-3.532.704c-2.687 0-4.82-.77-6.39-2.313q-2.344-2.31-2.344-6.875v-11.547h5.922v10.672q0 4.939 4.14 4.938 2.122.001 3.422-1.375 1.297-1.388 1.297-4.14v-10.095Zm0 0" fill="#ffffff" data-color="2"/>
        <path d="M1153.38 678.246q1.078-1.483 2.876-2.234 1.811-.764 4.156-.766v5.469a22 22 0 0 0-1.328-.078q-2.549 0-4 1.437-1.44 1.424-1.438 4.266v9.656h-5.922v-20.437h5.657Zm0 0" fill="#ffffff" data-color="2"/>
        <path d="M1184.13 685.855q-.001.112-.125 1.594h-15.454q.405 1.893 1.97 3 1.558 1.094 3.874 1.094 1.593 0 2.828-.469 1.23-.468 2.297-1.5l3.157 3.422q-2.877 3.298-8.438 3.297c-2.305 0-4.34-.445-6.11-1.344q-2.658-1.342-4.109-3.734-1.438-2.403-1.437-5.438-.002-2.999 1.422-5.406a9.9 9.9 0 0 1 3.906-3.766q2.496-1.359 5.578-1.359 2.998.001 5.422 1.297a9.54 9.54 0 0 1 3.828 3.703q1.39 2.409 1.39 5.61m-10.61-6.125c-1.343 0-2.476.383-3.39 1.141q-1.362 1.142-1.657 3.11h10.063q-.3-1.934-1.672-3.094-1.36-1.156-3.344-1.157m0 0" fill="#ffffff" data-color="2"/>
        <path d="M1194.946 696.293q-2.548-.002-4.984-.625-2.424-.623-3.86-1.578l1.97-4.25q1.371.877 3.312 1.422 1.934.549 3.797.547 3.764.001 3.765-1.86 0-.874-1.03-1.25c-.688-.25-1.743-.46-3.157-.64q-2.501-.388-4.14-.875a6.5 6.5 0 0 1-2.844-1.75q-1.189-1.248-1.188-3.579 0-1.935 1.125-3.437 1.123-1.499 3.266-2.328 2.155-.844 5.078-.844 2.154.002 4.297.484 2.156.47 3.562 1.297l-1.969 4.219q-2.704-1.514-5.89-1.516-1.91.002-2.86.532-.937.531-.937 1.375-.002.953 1.015 1.328 1.03.377 3.266.718 2.515.424 4.11.907a6.1 6.1 0 0 1 2.765 1.718q1.187 1.252 1.188 3.5a5.4 5.4 0 0 1-1.141 3.375q-1.143 1.489-3.328 2.297-2.19.811-5.188.813m0 0" fill="#ffffff" data-color="2"/>
        <path d="M234.827 346.763q5.215.845 8 3.89 2.778 3.035 2.78 7.516 0 3.458-1.812 6.375-1.816 2.924-5.53 4.688-3.72 1.764-9.11 1.765a31.3 31.3 0 0 1-8.266-1.109q-4.05-1.106-6.89-3.156l3.578-7.031q2.26 1.703 5.25 2.64a20.3 20.3 0 0 0 6.109.938q3.45 0 5.438-1.328 1.982-1.343 1.984-3.782c0-3.257-2.477-4.89-7.422-4.89h-4.203v-6.063l8.172-9.25h-16.922v-7.375h27.812v5.953Zm0 0" fill="#ffffff" data-color="2"/>
        <path d="m298.096 339.779-13.797 32.406c-1.399 3.52-3.125 6-5.188 7.438q-3.095 2.156-7.469 2.156-2.377 0-4.703-.75-2.331-.737-3.797-2.031l3.235-6.297a7.5 7.5 0 0 0 2.344 1.406q1.34.515 2.64.515 1.828 0 2.953-.89 1.138-.88 2.047-2.906l.11-.282-13.22-30.765h9.142l8.562 20.719 8.625-20.72Zm0 0" fill="#ffffff" data-color="2"/>
        <path d="M331.633 355.154q-.001.176-.172 2.39h-23.11q.623 2.831 2.954 4.485 2.326 1.64 5.797 1.64 2.373 0 4.219-.703 1.84-.714 3.437-2.25l4.719 5.11q-4.312 4.938-12.61 4.937-5.156 0-9.14-2.015c-2.649-1.344-4.688-3.204-6.125-5.579-1.438-2.382-2.156-5.093-2.156-8.125q0-4.482 2.124-8.078 2.14-3.609 5.844-5.625 3.716-2.016 8.328-2.015 4.483.002 8.11 1.937 3.622 1.922 5.703 5.531 2.076 3.597 2.078 8.36m-15.844-9.125q-3 .002-5.047 1.703-2.05 1.688-2.5 4.64h15.047q-.455-2.886-2.5-4.609c-1.367-1.156-3.031-1.734-5-1.734m0 0" fill="#ffffff" data-color="2"/>
        <path d="M349.84 339.326c4.726 0 8.359 1.125 10.89 3.375q3.797 3.377 3.797 10.187v17.422h-8.281v-3.797q-2.503 4.252-9.313 4.25-3.516-.002-6.094-1.187-2.58-1.184-3.953-3.282-1.36-2.11-1.36-4.78 0-4.25 3.204-6.688c2.144-1.633 5.445-2.454 9.906-2.454h7.047q-.001-2.888-1.766-4.453-1.753-1.56-5.28-1.562c-1.626 0-3.227.258-4.798.765q-2.345.767-4 2.079l-3.172-6.188q2.497-1.764 5.985-2.719a27 27 0 0 1 7.187-.968m-.688 25.484q2.261 0 4.031-1.047 1.763-1.06 2.5-3.094v-3.125h-6.078c-3.637 0-5.453 1.196-5.453 3.579q-.001 1.706 1.328 2.703 1.34.984 3.672.984m0 0" fill="#ffffff" data-color="2"/>
        <path d="M380.986 343.81q1.576-2.217 4.266-3.344 2.7-1.139 6.234-1.14v8.171c-.992-.07-1.656-.109-2-.109q-3.797.002-5.953 2.125-2.156 2.127-2.156 6.375v14.422h-8.844v-30.531h8.453Zm0 0" fill="#ffffff" data-color="2"/>
        <path d="M407.251 370.763q-3.796 0-7.437-.937-3.626-.936-5.781-2.36l2.953-6.344q2.027 1.301 4.922 2.125 2.905.814 5.687.813 5.608 0 5.61-2.766-.001-1.312-1.532-1.875-1.534-.575-4.703-.968-3.75-.56-6.187-1.297a9.74 9.74 0 0 1-4.235-2.625q-1.78-1.873-1.781-5.328-.002-2.888 1.672-5.125c1.113-1.5 2.738-2.664 4.875-3.5q3.217-1.249 7.578-1.25 3.233.002 6.438.718 3.215.705 5.312 1.954l-2.953 6.296c-2.688-1.507-5.621-2.265-8.797-2.265q-2.832 0-4.25.797-1.424.784-1.422 2.03-.002 1.426 1.531 2 1.53.565 4.875 1.063 3.749.629 6.125 1.344 2.39.703 4.141 2.578 1.765 1.877 1.766 5.219-.002 2.847-1.704 5.063-1.688 2.203-4.953 3.421-3.268 1.22-7.75 1.22m0 0" fill="#ffffff" data-color="2"/>
        <path d="M627.055 336.5h-6.469v8.343h-8.969v-8.344h-21.39v-6.187l18.718-25.188h9.657l-17.375 23.89h10.672v-7.437h8.687v7.438h6.469Zm0 0" fill="#ffffff" data-color="2"/>
        <path d="m677.999 314.312-13.797 32.406c-1.399 3.52-3.125 6-5.188 7.438q-3.095 2.156-7.469 2.156-2.377 0-4.703-.75-2.331-.737-3.797-2.031l3.235-6.297a7.5 7.5 0 0 0 2.344 1.406q1.34.516 2.64.516 1.828 0 2.953-.891 1.138-.88 2.047-2.906l.11-.282-13.22-30.765h9.141l8.563 20.719 8.625-20.72Zm0 0" fill="#ffffff" data-color="2"/>
        <path d="M711.536 329.687q-.001.176-.172 2.39h-23.11q.623 2.831 2.954 4.485 2.326 1.64 5.797 1.64 2.373 0 4.218-.703 1.842-.714 3.438-2.25l4.719 5.11q-4.312 4.938-12.61 4.937-5.156 0-9.14-2.015-3.971-2.016-6.125-5.579c-1.438-2.382-2.157-5.093-2.157-8.125q0-4.482 2.125-8.078 2.14-3.609 5.844-5.625 3.716-2.015 8.328-2.015 4.483.002 8.11 1.937 3.622 1.922 5.703 5.531 2.076 3.597 2.078 8.36m-15.844-9.125q-3 .002-5.047 1.703-2.05 1.688-2.5 4.64h15.047q-.455-2.887-2.5-4.609-2.048-1.734-5-1.734m0 0" fill="#ffffff" data-color="2"/>
        <path d="M729.742 313.859c4.727 0 8.36 1.125 10.89 3.375q3.798 3.377 3.798 10.187v17.422h-8.281v-3.797c-1.668 2.836-4.774 4.25-9.313 4.25q-3.516-.002-6.094-1.187c-1.718-.79-3.039-1.883-3.953-3.282q-1.36-2.11-1.36-4.78 0-4.25 3.204-6.688 3.215-2.451 9.906-2.453h7.047q-.001-2.888-1.766-4.454-1.754-1.56-5.28-1.562c-1.626 0-3.227.258-4.798.766-1.562.511-2.898 1.203-4 2.078l-3.172-6.188q2.497-1.764 5.985-2.719a27 27 0 0 1 7.187-.968m-.687 25.484q2.262 0 4.031-1.047 1.763-1.06 2.5-3.094v-3.125h-6.078c-3.637 0-5.453 1.196-5.453 3.579q-.001 1.705 1.328 2.703 1.34.984 3.672.984m0 0" fill="#ffffff" data-color="2"/>
        <path d="M760.889 318.343q1.576-2.217 4.265-3.344 2.702-1.138 6.235-1.14v8.172c-.992-.07-1.656-.11-2-.11-2.531 0-4.516.711-5.953 2.125q-2.157 2.127-2.157 6.375v14.422h-8.843v-30.531h8.453Zm0 0" fill="#ffffff" data-color="2"/>
        <path d="M787.154 345.296q-3.797 0-7.437-.937-3.626-.936-5.781-2.36l2.953-6.344q2.027 1.3 4.922 2.126 2.905.813 5.687.812 5.609 0 5.61-2.766-.001-1.313-1.532-1.875-1.534-.575-4.703-.968-3.75-.56-6.187-1.297a9.74 9.74 0 0 1-4.235-2.625q-1.78-1.874-1.781-5.328-.002-2.888 1.672-5.125c1.113-1.5 2.738-2.664 4.875-3.5q3.217-1.249 7.578-1.25c2.156 0 4.3.242 6.438.718q3.216.705 5.312 1.954l-2.953 6.296c-2.688-1.507-5.621-2.265-8.797-2.265q-2.831 0-4.25.797-1.424.784-1.422 2.03-.002 1.426 1.531 2 1.53.564 4.875 1.063 3.749.628 6.125 1.344 2.39.703 4.141 2.578 1.765 1.877 1.766 5.219-.002 2.847-1.704 5.063-1.688 2.202-4.953 3.421-3.268 1.22-7.75 1.22m0 0" fill="#ffffff" data-color="2"/>
        <path d="M979.503 283.126h-6.469v8.344h-8.969v-8.344h-21.39v-6.187l18.718-25.188h9.657l-17.375 23.89h10.672v-7.437h8.687v7.438h6.469Zm0 0" fill="#ffffff" data-color="2"/>
        <path d="M999.01 271.954h16.062v7.094h-16.063Zm0 0" fill="#ffffff" data-color="2"/>
        <path d="M1049.84 266.673q8.404.002 12.406 3.344 3.998 3.344 4 8.969 0 3.626-1.812 6.609-1.817 2.988-5.531 4.781-3.722 1.782-9.172 1.782a31.3 31.3 0 0 1-8.266-1.11q-4.05-1.106-6.89-3.156l3.64-7.031q2.264 1.703 5.219 2.64c1.969.625 3.992.938 6.078.938q3.45 0 5.438-1.36 1.982-1.373 1.984-3.812-.002-2.543-2.078-3.844-2.063-1.312-7.172-1.312h-10.156l2.046-22.36h24.235v7.375h-16.578l-.625 7.547Zm0 0" fill="#ffffff" data-color="2"/>
        <path d="m1118.217 260.939-13.797 32.406c-1.399 3.52-3.125 6-5.188 7.438s-4.554 2.156-7.468 2.156q-2.378 0-4.704-.75-2.332-.737-3.796-2.031l3.234-6.297a7.5 7.5 0 0 0 2.344 1.406q1.34.516 2.64.516 1.828 0 2.953-.891 1.138-.88 2.047-2.906l.11-.282-13.22-30.765h9.141l8.563 20.719 8.625-20.72Zm0 0" fill="#ffffff" data-color="2"/>
        <path d="M1151.754 276.314q-.001.176-.172 2.39h-23.11q.623 2.831 2.954 4.485 2.326 1.64 5.797 1.64 2.373 0 4.218-.703 1.842-.714 3.438-2.25l4.719 5.11q-4.312 4.938-12.61 4.937-5.156 0-9.14-2.015-3.972-2.016-6.125-5.579c-1.438-2.382-2.157-5.093-2.157-8.125q0-4.481 2.125-8.078 2.14-3.609 5.844-5.625 3.716-2.015 8.328-2.015 4.483.002 8.11 1.937 3.622 1.922 5.703 5.531 2.076 3.597 2.078 8.36m-15.844-9.125q-3 .002-5.047 1.703-2.05 1.688-2.5 4.64h15.047q-.455-2.887-2.5-4.609-2.048-1.734-5-1.734m0 0" fill="#ffffff" data-color="2"/>
        <path d="M1169.96 260.486c4.727 0 8.36 1.125 10.89 3.375q3.798 3.377 3.798 10.187v17.422h-8.281v-3.797c-1.668 2.836-4.774 4.25-9.313 4.25q-3.516-.002-6.094-1.187c-1.718-.79-3.039-1.883-3.953-3.282q-1.36-2.11-1.36-4.78 0-4.25 3.204-6.688 3.215-2.451 9.906-2.453h7.047q-.001-2.889-1.766-4.454-1.754-1.56-5.28-1.562-2.44.002-4.798.766-2.345.766-4 2.078l-3.172-6.188q2.497-1.764 5.985-2.719a27 27 0 0 1 7.187-.968m-.687 25.484q2.262 0 4.031-1.047 1.763-1.06 2.5-3.094v-3.125h-6.078c-3.637 0-5.453 1.196-5.453 3.579q-.001 1.706 1.328 2.703 1.34.984 3.672.984m0 0" fill="#ffffff" data-color="2"/>
        <path d="M1201.107 264.97q1.576-2.217 4.265-3.344 2.702-1.138 6.235-1.14v8.172c-.992-.07-1.656-.11-2-.11-2.531 0-4.516.711-5.953 2.125q-2.157 2.127-2.157 6.375v14.422h-8.843v-30.531h8.453Zm0 0" fill="#ffffff" data-color="2"/>
        <path d="M1227.372 291.923q-3.796 0-7.437-.937-3.626-.936-5.781-2.36l2.953-6.343q2.027 1.3 4.922 2.125 2.905.813 5.687.812 5.609 0 5.61-2.766-.001-1.312-1.532-1.875-1.534-.575-4.703-.968-3.75-.56-6.187-1.297a9.74 9.74 0 0 1-4.235-2.625q-1.78-1.874-1.781-5.328-.002-2.888 1.672-5.125c1.113-1.5 2.738-2.664 4.875-3.5q3.217-1.249 7.578-1.25 3.233.002 6.438.718 3.216.705 5.312 1.954l-2.953 6.296c-2.688-1.507-5.621-2.265-8.797-2.265q-2.832 0-4.25.797-1.424.784-1.422 2.03-.002 1.426 1.531 2 1.53.564 4.875 1.063 3.749.629 6.125 1.344 2.39.703 4.141 2.578 1.765 1.877 1.766 5.219-.002 2.847-1.704 5.063-1.688 2.202-4.953 3.421-3.268 1.22-7.75 1.22m0 0" fill="#ffffff" data-color="2"/>
        <path d="M966.934 308.624h5.985v25.906h-5.985Zm0 0" fill="#ffffff" data-color="2"/>
        <path d="M990.763 314.327q3.7.002 5.984 2.219 2.28 2.219 2.281 6.578v11.406h-5.781v-10.516c0-1.57-.352-2.75-1.047-3.53q-1.031-1.173-2.984-1.173-2.19 0-3.485 1.36-1.299 1.345-1.297 4.015v9.844h-5.765v-19.922h5.515v2.344q1.139-1.264 2.844-1.938 1.701-.686 3.735-.687m0 0" fill="#ffffff" data-color="2"/>
        <path d="M1024.527 307.061v27.469h-5.516v-2.297q-2.156 2.594-6.218 2.594c-1.875 0-3.574-.414-5.094-1.25q-2.284-1.264-3.578-3.594-1.283-2.342-1.281-5.406-.001-3.075 1.28-5.406 1.295-2.326 3.579-3.579 2.28-1.265 5.094-1.265c2.539 0 4.523.805 5.953 2.406v-9.672Zm-10.734 23.031q2.184 0 3.625-1.5c.957-1 1.437-2.335 1.437-4.015q0-2.515-1.437-4.016-1.44-1.5-3.625-1.5-2.22 0-3.672 1.5-1.44 1.501-1.438 4.016c0 1.68.477 3.015 1.438 4.015q1.452 1.5 3.672 1.5m0 0" fill="#ffffff" data-color="2"/>
        <path d="M1049.36 324.64c0 .085-.04.605-.11 1.562h-15.062q.405 1.844 1.922 2.922 1.513 1.077 3.781 1.078 1.544.001 2.75-.453 1.201-.468 2.235-1.469l3.078 3.328c-1.875 2.149-4.618 3.219-8.22 3.219q-3.362 0-5.952-1.313-2.595-1.31-4-3.64-1.407-2.344-1.406-5.297-.001-2.92 1.375-5.266a9.7 9.7 0 0 1 3.812-3.672q2.438-1.312 5.438-1.312 2.919 0 5.28 1.265a9.1 9.1 0 0 1 3.72 3.594q1.359 2.346 1.359 5.453m-10.328-5.954q-1.957 0-3.297 1.11-1.332 1.112-1.625 3.03h9.812q-.299-1.875-1.64-3c-.887-.757-1.969-1.14-3.25-1.14m0 0" fill="#ffffff" data-color="2"/>
        <path d="M1064.982 314.327c1.851 0 3.535.43 5.046 1.281 1.52.844 2.711 2.04 3.579 3.578q1.295 2.315 1.296 5.39 0 3.067-1.296 5.376-1.301 2.315-3.579 3.594-2.268 1.281-5.046 1.28-3.814.001-6-2.405v9.296h-5.766v-27.109h5.516v2.297q2.137-2.578 6.25-2.578m-1 15.765q2.215 0 3.64-1.5c.957-1 1.438-2.335 1.438-4.015q0-2.515-1.438-4.016-1.426-1.5-3.64-1.5-2.221 0-3.657 1.5-1.423 1.501-1.422 4.016c0 1.68.473 3.015 1.422 4.015q1.436 1.5 3.657 1.5m0 0" fill="#ffffff" data-color="2"/>
        <path d="M1098.256 324.64c0 .085-.04.605-.11 1.562h-15.062q.405 1.844 1.922 2.922 1.513 1.077 3.781 1.078 1.544.001 2.75-.453 1.201-.468 2.235-1.469l3.078 3.328c-1.875 2.149-4.618 3.219-8.22 3.219q-3.362 0-5.952-1.313-2.595-1.31-4-3.64-1.407-2.344-1.407-5.297 0-2.92 1.376-5.266a9.7 9.7 0 0 1 3.812-3.672q2.438-1.312 5.438-1.312 2.919 0 5.28 1.265a9.1 9.1 0 0 1 3.72 3.594q1.359 2.346 1.359 5.453m-10.328-5.954q-1.957 0-3.297 1.11-1.332 1.112-1.625 3.03h9.812q-.299-1.875-1.64-3c-.887-.757-1.969-1.14-3.25-1.14m0 0" fill="#ffffff" data-color="2"/>
        <path d="M1114.206 314.327q3.7.002 5.984 2.219 2.28 2.219 2.281 6.578v11.406h-5.781v-10.516c0-1.57-.352-2.75-1.047-3.53q-1.032-1.173-2.984-1.173-2.19 0-3.485 1.36c-.867.898-1.296 2.234-1.296 4.015v9.844h-5.766v-19.922h5.515v2.344q1.139-1.264 2.844-1.938 1.701-.686 3.735-.687m0 0" fill="#ffffff" data-color="2"/>
        <path d="M1147.97 307.061v27.469h-5.516v-2.297q-2.158 2.594-6.22 2.594c-1.874 0-3.573-.414-5.093-1.25q-2.284-1.264-3.578-3.594-1.282-2.342-1.281-5.406-.001-3.075 1.28-5.406 1.295-2.326 3.579-3.579 2.28-1.265 5.094-1.265c2.539 0 4.523.805 5.953 2.406v-9.672Zm-10.735 23.031q2.185 0 3.625-1.5c.957-1 1.437-2.335 1.437-4.015q0-2.515-1.437-4.016-1.44-1.5-3.625-1.5-2.22 0-3.672 1.5-1.44 1.501-1.438 4.016c0 1.68.477 3.015 1.438 4.015q1.452 1.5 3.672 1.5m0 0" fill="#ffffff" data-color="2"/>
        <path d="M1172.802 324.64c0 .085-.04.605-.11 1.562h-15.062q.405 1.844 1.922 2.922 1.513 1.077 3.781 1.078 1.544.001 2.75-.453 1.201-.468 2.235-1.469l3.078 3.328c-1.875 2.149-4.618 3.219-8.22 3.219q-3.362 0-5.952-1.313-2.595-1.31-4-3.64-1.407-2.344-1.406-5.297-.001-2.92 1.375-5.266a9.7 9.7 0 0 1 3.812-3.672q2.438-1.312 5.438-1.312 2.919 0 5.28 1.265a9.1 9.1 0 0 1 3.72 3.594q1.359 2.346 1.359 5.453m-10.328-5.954q-1.957 0-3.297 1.11-1.332 1.112-1.625 3.03h9.812q-.299-1.875-1.64-3c-.887-.757-1.969-1.14-3.25-1.14m0 0" fill="#ffffff" data-color="2"/>
        <path d="M1188.752 314.327q3.7.002 5.984 2.219 2.28 2.219 2.281 6.578v11.406h-5.781v-10.516c0-1.57-.352-2.75-1.047-3.53q-1.031-1.173-2.984-1.173-2.19 0-3.485 1.36c-.867.898-1.296 2.234-1.296 4.015v9.844h-5.766v-19.922h5.516v2.344q1.137-1.264 2.843-1.938 1.701-.686 3.735-.687m0 0" fill="#ffffff" data-color="2"/>
        <path d="M1215.079 333.561q-.862.644-2.11.953-1.235.312-2.593.313-3.564.002-5.5-1.813-1.939-1.811-1.938-5.328V319.5h-3.078v-4.438h3.078v-4.844h5.766v4.844h4.968v4.438h-4.968v8.11c0 .843.21 1.495.64 1.952q.656.673 1.844.672 1.372.002 2.328-.734Zm0 0" fill="#ffffff" data-color="2"/>
        <path d="M565.46 361.997q3.451 0 5.984 1.156 2.53 1.142 3.906 3.25c.914 1.406 1.375 3.07 1.375 4.984 0 1.907-.461 3.57-1.375 4.985q-1.376 2.128-3.906 3.265-2.533 1.125-5.985 1.125h-5.218v7.141h-5.985v-25.906Zm-.329 13.875q2.702.002 4.11-1.156 1.406-1.173 1.406-3.329 0-2.17-1.407-3.343-1.406-1.173-4.109-1.172h-4.89v9Zm0 0" fill="#ffffff" data-color="2"/>
        <path d="M588.976 367.7q4.622 0 7.094 2.203 2.484 2.189 2.484 6.64v11.36h-5.406v-2.484q-1.628 2.781-6.062 2.78-2.298 0-3.985-.78-1.687-.781-2.578-2.141-.877-1.373-.875-3.11c0-1.85.691-3.312 2.078-4.374q2.091-1.594 6.469-1.594h4.594q-.001-1.873-1.157-2.89-1.141-1.032-3.437-1.032-1.595.001-3.14.5-1.535.505-2.594 1.36l-2.079-4.032q1.622-1.154 3.907-1.781a17.8 17.8 0 0 1 4.687-.625m-.453 16.61q1.482.001 2.625-.673 1.154-.684 1.64-2.03v-2.032h-3.968q-3.549 0-3.547 2.328c0 .742.285 1.328.86 1.766.581.43 1.378.64 2.39.64m0 0" fill="#ffffff" data-color="2"/>
        <path d="M609.298 370.622q1.03-1.452 2.78-2.188 1.766-.733 4.063-.734v5.328a21 21 0 0 0-1.297-.078q-2.484.001-3.89 1.39-1.407 1.393-1.406 4.157v9.406h-5.766v-19.922h5.515Zm0 0" fill="#ffffff" data-color="2"/>
        <path d="M639.236 378.012c0 .086-.04.606-.11 1.563h-15.062q.404 1.844 1.922 2.922 1.513 1.078 3.781 1.078 1.545.002 2.75-.453 1.202-.468 2.234-1.469l3.079 3.328c-1.875 2.149-4.618 3.219-8.22 3.219q-3.362 0-5.952-1.313-2.595-1.31-4-3.64-1.407-2.344-1.407-5.297 0-2.92 1.375-5.266a9.7 9.7 0 0 1 3.813-3.672q2.438-1.312 5.438-1.312 2.919 0 5.28 1.266a9.1 9.1 0 0 1 3.72 3.593q1.359 2.346 1.359 5.453m-10.328-5.953q-1.957 0-3.297 1.11-1.331 1.112-1.625 3.03h9.812q-.299-1.875-1.64-3c-.887-.757-1.969-1.14-3.25-1.14m0 0" fill="#ffffff" data-color="2"/>
        <path d="M655.186 367.7q3.7.002 5.984 2.219 2.28 2.22 2.281 6.578v11.406h-5.781v-10.516c0-1.57-.352-2.75-1.047-3.53q-1.031-1.173-2.984-1.173-2.19 0-3.485 1.36-1.299 1.345-1.297 4.015v9.844h-5.765v-19.922h5.515v2.344q1.139-1.264 2.844-1.938 1.701-.686 3.735-.687m0 0" fill="#ffffff" data-color="2"/>
        <path d="M681.513 386.934q-.862.644-2.11.953-1.235.312-2.594.313-3.564.002-5.5-1.813-1.937-1.811-1.937-5.328v-8.187h-3.078v-4.438h3.078v-4.844h5.766v4.844h4.968v4.438h-4.968v8.11c0 .843.21 1.495.64 1.952q.656.673 1.844.672 1.372.002 2.328-.734Zm0 0" fill="#ffffff" data-color="2"/>
        <path d="M703.276 367.7q4.622 0 7.094 2.203 2.484 2.189 2.484 6.64v11.36h-5.406v-2.484q-1.628 2.781-6.062 2.78-2.298 0-3.985-.78-1.687-.781-2.578-2.141-.877-1.373-.875-3.11c0-1.85.691-3.312 2.078-4.374q2.091-1.594 6.469-1.594h4.594q-.001-1.873-1.157-2.89-1.141-1.032-3.437-1.032-1.595.001-3.14.5-1.534.505-2.595 1.36l-2.078-4.032q1.622-1.154 3.907-1.781a17.8 17.8 0 0 1 4.687-.625m-.453 16.61q1.482.001 2.625-.673 1.154-.684 1.64-2.03v-2.032h-3.968q-3.549 0-3.547 2.328c0 .742.285 1.328.86 1.766.581.43 1.378.64 2.39.64m0 0" fill="#ffffff" data-color="2"/>
        <path d="M724.77 388.2a19.4 19.4 0 0 1-4.844-.61c-1.586-.406-2.844-.914-3.782-1.53l1.938-4.157c.883.574 1.953 1.04 3.203 1.39q1.889.533 3.719.532 3.656.002 3.656-1.813-.002-.843-1-1.218-1-.374-3.062-.625-2.455-.375-4.047-.844a6.3 6.3 0 0 1-2.766-1.703c-.773-.82-1.156-1.985-1.156-3.485 0-1.257.363-2.375 1.093-3.343q1.09-1.466 3.188-2.282 2.092-.81 4.938-.812c1.406 0 2.804.156 4.203.469q2.092.456 3.453 1.265l-1.922 4.11q-2.627-1.484-5.735-1.485-1.844 0-2.78.516-.925.517-.923 1.344-.001.924 1 1.297c.664.242 1.727.468 3.188.687q2.438.422 3.984.89 1.56.456 2.703 1.673 1.156 1.22 1.157 3.406 0 1.844-1.11 3.297-1.113 1.439-3.234 2.234-2.127.797-5.063.797m0 0" fill="#ffffff" data-color="2"/>
        <path d="M744.424 388.2a19.4 19.4 0 0 1-4.843-.61q-2.377-.607-3.782-1.53l1.938-4.157c.883.574 1.953 1.04 3.203 1.39q1.889.533 3.719.532 3.656.002 3.656-1.813-.002-.843-1-1.218-1-.374-3.062-.625-2.455-.375-4.047-.844a6.3 6.3 0 0 1-2.766-1.703c-.773-.82-1.156-1.985-1.156-3.485 0-1.257.363-2.375 1.094-3.343q1.09-1.466 3.187-2.282 2.092-.81 4.938-.812c1.406 0 2.804.156 4.203.469q2.093.456 3.453 1.265l-1.922 4.11q-2.627-1.484-5.734-1.485-1.845 0-2.782.516-.924.517-.922 1.344-.001.924 1 1.297c.664.242 1.727.468 3.188.687q2.438.422 3.984.89 1.56.456 2.703 1.673 1.156 1.22 1.157 3.406 0 1.844-1.11 3.297-1.113 1.439-3.234 2.234-2.127.797-5.063.797m0 0" fill="#ffffff" data-color="2"/>
        <path d="M757.392 367.981h5.765v19.922h-5.765Zm2.875-2.765q-1.596.002-2.594-.922a3.05 3.05 0 0 1-.984-2.297q0-1.371.984-2.297.998-.92 2.594-.922 1.592 0 2.594.89.998.879 1 2.22-.002 1.44-1 2.39-1.002.938-2.594.938m0 0" fill="#ffffff" data-color="2"/>
        <path d="M775.22 388.2a19.4 19.4 0 0 1-4.843-.61c-1.586-.406-2.844-.914-3.782-1.53l1.938-4.157c.883.574 1.953 1.04 3.203 1.39q1.889.533 3.719.532 3.656.002 3.656-1.813c0-.562-.336-.968-1-1.218q-1-.374-3.062-.625-2.455-.375-4.047-.844a6.3 6.3 0 0 1-2.766-1.703c-.773-.82-1.156-1.985-1.156-3.485 0-1.257.363-2.375 1.093-3.343q1.09-1.466 3.188-2.282 2.092-.81 4.938-.812c1.406 0 2.804.156 4.203.469q2.093.456 3.453 1.265l-1.922 4.11q-2.627-1.484-5.735-1.485-1.844 0-2.78.516-.925.517-.923 1.344-.001.924 1 1.297c.664.242 1.727.468 3.188.687q2.438.422 3.984.89 1.56.456 2.703 1.673 1.156 1.22 1.157 3.406 0 1.844-1.11 3.297-1.113 1.439-3.234 2.234-2.127.797-5.063.797m0 0" fill="#ffffff" data-color="2"/>
        <path d="M801.032 386.934q-.862.644-2.11.953-1.235.312-2.594.313-3.564.002-5.5-1.813-1.938-1.811-1.937-5.328v-8.187h-3.078v-4.438h3.078v-4.844h5.766v4.844h4.968v4.438h-4.968v8.11c0 .843.21 1.495.64 1.952q.656.673 1.844.672 1.372.002 2.328-.734Zm0 0" fill="#ffffff" data-color="2"/>
        <path d="M823.789 378.012c0 .086-.04.606-.11 1.563h-15.062q.404 1.844 1.922 2.922 1.513 1.078 3.781 1.078 1.544.002 2.75-.453 1.202-.468 2.234-1.469l3.079 3.328c-1.875 2.149-4.618 3.219-8.22 3.219q-3.362 0-5.952-1.313-2.595-1.31-4-3.64-1.407-2.344-1.407-5.297 0-2.92 1.375-5.266a9.7 9.7 0 0 1 3.813-3.672q2.438-1.312 5.438-1.312 2.919 0 5.28 1.266a9.1 9.1 0 0 1 3.72 3.593q1.359 2.346 1.359 5.453m-10.328-5.953q-1.957 0-3.297 1.11-1.331 1.112-1.625 3.03h9.812q-.299-1.875-1.64-3c-.887-.757-1.969-1.14-3.25-1.14m0 0" fill="#ffffff" data-color="2"/>
        <path d="M847.926 360.434v27.469h-5.516v-2.297q-2.157 2.594-6.218 2.594c-1.875 0-3.574-.414-5.094-1.25q-2.284-1.264-3.578-3.594-1.283-2.342-1.281-5.406-.001-3.075 1.28-5.406 1.295-2.326 3.579-3.578 2.28-1.266 5.094-1.266c2.539 0 4.523.805 5.953 2.406v-9.672Zm-10.734 23.031q2.185 0 3.625-1.5c.957-1 1.437-2.335 1.437-4.015q0-2.515-1.437-4.016-1.44-1.5-3.625-1.5-2.22 0-3.672 1.5-1.44 1.501-1.438 4.016c0 1.68.477 3.016 1.438 4.016q1.452 1.5 3.672 1.5m0 0" fill="#ffffff" data-color="2"/>
        <path d="M176.004 388.348q3.452 0 5.985 1.156 2.53 1.142 3.906 3.25c.914 1.406 1.375 3.07 1.375 4.984 0 1.907-.461 3.57-1.375 4.985q-1.376 2.128-3.906 3.265-2.533 1.125-5.985 1.125h-5.218v7.141H164.8v-25.906Zm-.328 13.875q2.702.002 4.11-1.156 1.406-1.173 1.406-3.329 0-2.17-1.406-3.343-1.409-1.172-4.11-1.172h-4.89v9Zm0 0" fill="#ffffff" data-color="2"/>
        <path d="M199.521 394.05q4.622 0 7.094 2.204 2.484 2.189 2.484 6.64v11.36h-5.406v-2.484q-1.628 2.781-6.062 2.78-2.298 0-3.985-.78-1.687-.781-2.578-2.141c-.586-.914-.875-1.953-.875-3.11 0-1.85.691-3.312 2.078-4.374q2.092-1.594 6.469-1.594h4.594q-.001-1.873-1.157-2.89-1.141-1.032-3.437-1.032-1.595.001-3.14.5-1.535.505-2.594 1.36l-2.079-4.032q1.622-1.154 3.907-1.781a17.8 17.8 0 0 1 4.687-.625m-.453 16.61q1.482.002 2.625-.672 1.155-.684 1.64-2.03v-2.032h-3.968q-3.549 0-3.547 2.328-.001 1.111.86 1.766c.581.43 1.378.64 2.39.64m0 0" fill="#ffffff" data-color="2"/>
        <path d="M219.843 396.973q1.03-1.452 2.78-2.188 1.766-.733 4.063-.734v5.328a21 21 0 0 0-1.297-.078q-2.484.001-3.89 1.39-1.406 1.393-1.406 4.157v9.406h-5.766v-19.922h5.516Zm0 0" fill="#ffffff" data-color="2"/>
        <path d="M249.78 404.363q-.002.128-.108 1.563h-15.063q.405 1.844 1.922 2.922 1.513 1.078 3.781 1.078c1.031 0 1.945-.149 2.75-.453q1.202-.468 2.234-1.469l3.079 3.328c-1.875 2.149-4.618 3.219-8.22 3.219q-3.362 0-5.952-1.313-2.595-1.31-4-3.64-1.406-2.344-1.406-5.297-.001-2.92 1.375-5.266a9.7 9.7 0 0 1 3.812-3.672q2.438-1.312 5.438-1.312 2.919 0 5.28 1.266a9.1 9.1 0 0 1 3.72 3.593q1.359 2.346 1.359 5.453m-10.327-5.953q-1.957 0-3.297 1.11-1.332 1.112-1.625 3.03h9.812q-.299-1.875-1.64-3c-.887-.757-1.969-1.14-3.25-1.14m0 0" fill="#ffffff" data-color="2"/>
        <path d="M265.73 394.05c2.47 0 4.462.743 5.985 2.22q2.28 2.22 2.281 6.578v11.406h-5.781v-10.516c0-1.57-.352-2.75-1.047-3.53q-1.032-1.173-2.984-1.173-2.19 0-3.485 1.36c-.867.898-1.296 2.234-1.296 4.015v9.844h-5.766v-19.922h5.516v2.344q1.137-1.264 2.843-1.938 1.701-.686 3.735-.687m0 0" fill="#ffffff" data-color="2"/>
        <path d="M292.057 413.285q-.862.644-2.11.953-1.235.312-2.594.313-3.564.002-5.5-1.813-1.937-1.811-1.937-5.328v-8.187h-3.078v-4.438h3.078v-4.844h5.766v4.844h4.968v4.438h-4.968v8.11c0 .843.21 1.495.64 1.952q.656.674 1.844.672 1.372.002 2.328-.734Zm0 0" fill="#ffffff" data-color="2"/>
        <path d="M313.821 394.05q4.622 0 7.094 2.204 2.484 2.189 2.484 6.64v11.36h-5.406v-2.484q-1.628 2.781-6.062 2.78-2.298 0-3.985-.78-1.687-.781-2.578-2.141c-.586-.914-.875-1.953-.875-3.11 0-1.85.691-3.312 2.078-4.374q2.092-1.594 6.469-1.594h4.594q-.001-1.873-1.157-2.89-1.141-1.032-3.437-1.032-1.595.001-3.14.5-1.535.505-2.594 1.36l-2.079-4.032q1.622-1.154 3.907-1.781a17.8 17.8 0 0 1 4.687-.625m-.453 16.61q1.482.002 2.625-.672 1.154-.684 1.64-2.03v-2.032h-3.968q-3.549 0-3.547 2.328-.001 1.111.86 1.766c.581.43 1.378.64 2.39.64m0 0" fill="#ffffff" data-color="2"/>
        <path d="M335.315 414.55a19.4 19.4 0 0 1-4.843-.608c-1.586-.407-2.844-.915-3.782-1.532l1.938-4.156q1.326.863 3.203 1.39 1.889.533 3.719.532 3.656.002 3.656-1.813c0-.562-.336-.968-1-1.218q-1-.374-3.062-.625-2.455-.375-4.047-.844a6.3 6.3 0 0 1-2.766-1.703c-.773-.82-1.156-1.985-1.156-3.485 0-1.257.363-2.375 1.094-3.343q1.09-1.466 3.187-2.282 2.092-.81 4.938-.812c1.406 0 2.804.156 4.203.469q2.093.456 3.453 1.265l-1.922 4.11c-1.75-.989-3.664-1.485-5.734-1.485q-1.845 0-2.782.516-.924.517-.922 1.344-.001.924 1 1.297c.664.242 1.727.468 3.188.687q2.438.422 3.984.89 1.56.456 2.703 1.673 1.156 1.22 1.157 3.406 0 1.844-1.11 3.297-1.113 1.439-3.234 2.234-2.127.797-5.063.797m0 0" fill="#ffffff" data-color="2"/>
        <path d="M354.97 414.55a19.4 19.4 0 0 1-4.844-.608q-2.377-.608-3.782-1.532l1.938-4.156q1.326.863 3.203 1.39 1.889.533 3.719.532 3.656.002 3.656-1.813-.002-.843-1-1.218-1-.374-3.062-.625-2.455-.375-4.047-.844a6.3 6.3 0 0 1-2.766-1.703c-.773-.82-1.156-1.985-1.156-3.485 0-1.257.363-2.375 1.094-3.343q1.09-1.466 3.187-2.282 2.092-.81 4.938-.812c1.406 0 2.804.156 4.203.469q2.093.456 3.453 1.265l-1.922 4.11q-2.627-1.484-5.734-1.485-1.845 0-2.782.516-.924.517-.922 1.344-.001.924 1 1.297c.664.242 1.727.468 3.188.687q2.437.422 3.984.89 1.56.456 2.703 1.673 1.156 1.22 1.157 3.406 0 1.844-1.11 3.297-1.113 1.439-3.234 2.234-2.127.797-5.063.797m0 0" fill="#ffffff" data-color="2"/>
        <path d="M367.937 394.332h5.765v19.922h-5.765Zm2.875-2.765q-1.596.002-2.594-.922a3.05 3.05 0 0 1-.984-2.297q0-1.371.984-2.297.998-.92 2.594-.922 1.592 0 2.594.89c.664.587 1 1.325 1 2.22 0 .96-.336 1.757-1 2.39q-1.001.938-2.594.938m0 0" fill="#ffffff" data-color="2"/>
        <path d="M385.765 414.55a19.4 19.4 0 0 1-4.843-.608c-1.586-.407-2.844-.915-3.782-1.532l1.938-4.156q1.326.863 3.203 1.39 1.889.533 3.719.532 3.656.002 3.656-1.813c0-.562-.336-.968-1-1.218q-1-.374-3.062-.625-2.455-.375-4.047-.844a6.3 6.3 0 0 1-2.766-1.703c-.773-.82-1.156-1.985-1.156-3.485 0-1.257.363-2.375 1.094-3.343q1.09-1.466 3.187-2.282 2.092-.81 4.938-.812c1.406 0 2.804.156 4.203.469q2.092.456 3.453 1.265l-1.922 4.11c-1.75-.989-3.664-1.485-5.734-1.485q-1.845 0-2.782.516-.924.517-.922 1.344-.001.924 1 1.297c.664.242 1.727.468 3.188.687q2.438.422 3.984.89 1.56.456 2.703 1.673 1.156 1.22 1.157 3.406 0 1.844-1.11 3.297-1.113 1.439-3.234 2.234-2.127.797-5.063.797m0 0" fill="#ffffff" data-color="2"/>
        <path d="M411.576 413.285q-.862.644-2.11.953-1.235.312-2.594.313-3.564.002-5.5-1.813-1.937-1.811-1.937-5.328v-8.187h-3.078v-4.438h3.078v-4.844h5.766v4.844h4.968v4.438h-4.968v8.11c0 .843.21 1.495.64 1.952q.656.674 1.844.672 1.372.002 2.328-.734Zm0 0" fill="#ffffff" data-color="2"/>
        <path d="M434.334 404.363c0 .086-.04.606-.11 1.563h-15.062q.404 1.844 1.922 2.922 1.513 1.078 3.781 1.078c1.031 0 1.945-.149 2.75-.453q1.202-.468 2.234-1.469l3.079 3.328c-1.875 2.149-4.618 3.219-8.22 3.219q-3.362 0-5.952-1.313-2.595-1.31-4-3.64-1.406-2.344-1.406-5.297 0-2.92 1.374-5.266a9.7 9.7 0 0 1 3.813-3.672q2.438-1.312 5.438-1.312 2.919 0 5.28 1.266a9.1 9.1 0 0 1 3.72 3.593q1.359 2.346 1.359 5.453m-10.328-5.953q-1.957 0-3.297 1.11-1.332 1.112-1.625 3.03h9.812q-.299-1.875-1.64-3c-.887-.757-1.969-1.14-3.25-1.14m0 0" fill="#ffffff" data-color="2"/>
        <path d="M458.471 386.785v27.469h-5.516v-2.297q-2.157 2.595-6.218 2.594-2.813.002-5.094-1.25-2.284-1.264-3.578-3.594-1.283-2.342-1.281-5.406-.001-3.075 1.28-5.406 1.295-2.326 3.579-3.578 2.28-1.266 5.094-1.266c2.539 0 4.523.805 5.953 2.406v-9.672Zm-10.734 23.031q2.184 0 3.625-1.5c.957-1 1.437-2.335 1.437-4.015q0-2.515-1.437-4.016-1.44-1.5-3.625-1.5-2.22 0-3.672 1.5-1.44 1.501-1.438 4.016-.002 2.518 1.438 4.016 1.452 1.5 3.672 1.5m0 0" fill="#ffffff" data-color="2"/>
    </g>
</svg>
