<?xml version="1.0" encoding="UTF-8"?>
<svg data-bbox="81 81.004 1278 639.812" height="1080" viewBox="0 0 1440 810" width="1920" xmlns="http://www.w3.org/2000/svg" data-type="color">
    <g>
        <defs>
            <clipPath id="eb9c87ef-e80d-413b-926f-7a106af7ac88">
                <path d="M410.145 188.477H706.96V555H410.145Zm0 0"/>
            </clipPath>
            <clipPath id="b1fafd2a-0c30-4b8d-82dc-389b0852eea8">
                <path d="M706.96 202.527v338.809c0 3.726-1.48 7.3-4.112 9.937a14.07 14.07 0 0 1-9.938 4.114H424.195c-3.726 0-7.3-1.48-9.937-4.114a14.07 14.07 0 0 1-4.113-9.937V202.527c0-3.726 1.48-7.3 4.113-9.937a14.07 14.07 0 0 1 9.937-4.113H692.91c3.727 0 7.3 1.48 9.938 4.113a14.07 14.07 0 0 1 4.113 9.937m0 0"/>
            </clipPath>
            <clipPath id="e5d88cbd-7f9b-4634-8531-f85c5797242c">
                <path d="M402.309 564.566h312.504v156.25H402.309Zm0 0"/>
            </clipPath>
            <clipPath id="b9c968e8-02c5-4c1a-8265-5649950d425f">
                <path d="M636.688 564.566c43.148 0 78.125 34.977 78.125 78.125s-34.977 78.125-78.125 78.125H480.434c-43.149 0-78.125-34.976-78.125-78.125s34.976-78.125 78.125-78.125Zm0 0"/>
            </clipPath>
            <clipPath id="8c05602f-6d6e-406d-911f-c75fd0e2acf3">
                <path d="M88.84 236.328h296.816V556H88.84Zm0 0"/>
            </clipPath>
            <clipPath id="6da59179-8f36-4e65-91b6-3e20c1bbe1ac">
                <path d="M385.656 250.379v290.953a14.05 14.05 0 0 1-14.05 14.05H102.89a14.053 14.053 0 0 1-14.051-14.05V250.379c0-3.727 1.48-7.3 4.113-9.938a14.07 14.07 0 0 1 9.938-4.113h268.714c3.727 0 7.301 1.48 9.938 4.113a14.07 14.07 0 0 1 4.113 9.938m0 0"/>
            </clipPath>
            <clipPath id="cebc4497-017d-4559-a170-78c8adbd567b">
                <path d="M81 564.566h312.504v156.25H81Zm0 0"/>
            </clipPath>
            <clipPath id="8eb43e7d-8c9e-4d67-adde-713b2c1c07b5">
                <path d="M315.379 564.566c43.144 0 78.125 34.977 78.125 78.125s-34.98 78.125-78.125 78.125H159.125C115.977 720.816 81 685.84 81 642.691s34.977-78.125 78.125-78.125Zm0 0"/>
            </clipPath>
            <clipPath id="a8f32d78-359c-4607-bc6b-4fb14e664f26">
                <path d="M731.828 142.79h296.82v412.76h-296.82Zm0 0"/>
            </clipPath>
            <clipPath id="c6c427b3-7d7e-450b-9f72-1b6b9d9acc16">
                <path d="M1028.648 156.84v384.492a14.053 14.053 0 0 1-14.05 14.05H745.883c-3.727 0-7.301-1.48-9.938-4.112a14.05 14.05 0 0 1-4.117-9.938V156.84a14.053 14.053 0 0 1 14.055-14.05h268.715c3.726 0 7.3 1.476 9.933 4.112a14.05 14.05 0 0 1 4.117 9.938m0 0"/>
            </clipPath>
            <clipPath id="2cc0490f-6379-4173-af79-8d2b7ff21883">
                <path d="M723.992 564.566h312.504v156.25H723.992Zm0 0"/>
            </clipPath>
            <clipPath id="88ea0f47-262b-484e-830a-76a3dcb99fc0">
                <path d="M958.371 564.566c43.145 0 78.125 34.977 78.125 78.125s-34.98 78.125-78.125 78.125H802.117c-43.148 0-78.125-34.976-78.125-78.125s34.977-78.125 78.125-78.125Zm0 0"/>
            </clipPath>
            <clipPath id="6352f82d-9f69-4fe0-bc00-fab699e34ca4">
                <path d="M1052.992 81.004h296.82V556h-296.82Zm0 0"/>
            </clipPath>
            <clipPath id="19e057bd-206e-4bb6-9369-28c79f599d5c">
                <path d="M1349.813 95.055v446.28a14.053 14.053 0 0 1-14.051 14.052h-268.719a14.05 14.05 0 0 1-14.05-14.051V95.055a14.053 14.053 0 0 1 14.05-14.051h268.719a14.05 14.05 0 0 1 14.05 14.05m0 0"/>
            </clipPath>
            <clipPath id="8465f83b-13a5-4e11-8db0-8218f063ad28">
                <path d="M1046.496 564.566H1359v156.25h-312.504Zm0 0"/>
            </clipPath>
            <clipPath id="5e952588-794f-4f25-a5b2-f985135e6e8d">
                <path d="M1280.875 564.566c43.148 0 78.125 34.977 78.125 78.125s-34.977 78.125-78.125 78.125h-156.254c-43.144 0-78.125-34.976-78.125-78.125s34.98-78.125 78.125-78.125Zm0 0"/>
            </clipPath>
        </defs>
        <g clip-path="url(#eb9c87ef-e80d-413b-926f-7a106af7ac88)">
            <g clip-path="url(#b1fafd2a-0c30-4b8d-82dc-389b0852eea8)">
                <path d="M706.96 188.477v366.382H410.146V188.477Zm0 0" fill="#151957" data-color="1"/>
            </g>
        </g>
        <g clip-path="url(#e5d88cbd-7f9b-4634-8531-f85c5797242c)">
            <g clip-path="url(#b9c968e8-02c5-4c1a-8265-5649950d425f)">
                <path d="M402.309 564.566h312.504v156.25H402.309Zm0 0" fill="#151957" data-color="1"/>
            </g>
        </g>
        <path d="M488.286 632.41q-4.347 0-6.766-2.406-2.424-2.404-2.422-6.875v-11.36h4.703v11.188q-.001 5.453 4.516 5.453c1.469 0 2.586-.438 3.36-1.313q1.17-1.326 1.171-4.14v-11.188h4.641v11.36q-.001 4.471-2.422 6.875-2.424 2.407-6.781 2.406m0 0" fill="#ffffff" data-color="2"/>
        <path d="M506.116 618.52q.81-1.124 2.188-1.704 1.37-.576 3.187-.578v4.172q-.768-.062-1.015-.063-1.957.002-3.063 1.094-1.095 1.08-1.094 3.266v7.359h-4.515v-15.61h4.312Zm0 0" fill="#ffffff" data-color="2"/>
        <path d="M523.518 616.238c1.445 0 2.765.336 3.953 1a7.2 7.2 0 0 1 2.797 2.812q1.014 1.817 1.015 4.22-.001 2.407-1.015 4.218a7.17 7.17 0 0 1-2.797 2.812q-1.784 1.001-3.953 1-3.221.001-4.907-2.03v1.796H514.3V610.55h4.515v7.563q1.716-1.875 4.704-1.875m-.782 12.344c1.157 0 2.102-.391 2.844-1.172q1.125-1.172 1.125-3.14 0-1.97-1.125-3.141c-.742-.79-1.687-1.188-2.844-1.188q-1.751.002-2.875 1.188-1.111 1.171-1.11 3.14-.001 1.97 1.11 3.14 1.124 1.173 2.875 1.173m0 0" fill="#ffffff" data-color="2"/>
        <path d="M540.585 616.238q3.622 0 5.563 1.719 1.951 1.722 1.953 5.203v8.906h-4.235v-1.937q-1.282 2.172-4.75 2.171-1.8 0-3.125-.609c-.875-.406-1.547-.96-2.015-1.672q-.69-1.077-.688-2.453-.001-2.169 1.625-3.406 1.64-1.249 5.063-1.25h3.609c0-.989-.305-1.75-.906-2.281q-.91-.798-2.703-.797-1.237.001-2.438.39c-.805.262-1.484.617-2.047 1.063l-1.625-3.172q1.266-.89 3.047-1.375c1.195-.332 2.422-.5 3.672-.5m-.344 13.015q1.155.001 2.047-.53.904-.546 1.297-1.594v-1.594h-3.11q-2.781 0-2.78 1.828-.001.877.671 1.39c.457.336 1.082.5 1.875.5m0 0" fill="#ffffff" data-color="2"/>
        <path d="M561.676 616.238q2.89 0 4.672 1.734 1.781 1.735 1.781 5.157v8.937h-4.515v-8.234c0-1.239-.274-2.16-.813-2.766q-.814-.92-2.344-.922-1.721.001-2.734 1.063c-.68.71-1.016 1.757-1.016 3.14v7.719h-4.515v-15.61h4.312v1.829q.904-.983 2.235-1.516c.882-.351 1.863-.531 2.937-.531m0 0" fill="#ffffff" data-color="2"/>
        <path d="M586.256 621.597h4.297v8.235q-1.659 1.254-3.844 1.922-2.173.656-4.375.656-3.157.002-5.687-1.344-2.518-1.343-3.954-3.734-1.438-2.403-1.437-5.422c0-2.008.477-3.813 1.438-5.406.957-1.594 2.285-2.836 3.984-3.735q2.562-1.342 5.75-1.344 2.67.002 4.844.907a9.7 9.7 0 0 1 3.656 2.593l-3.016 2.782q-2.173-2.281-5.25-2.282c-1.304 0-2.46.274-3.469.813a5.87 5.87 0 0 0-2.343 2.297c-.555.98-.828 2.105-.828 3.375 0 1.261.273 2.386.828 3.375a5.97 5.97 0 0 0 2.343 2.297q1.498.83 3.407.828 2.027.001 3.656-.875Zm0 0" fill="#ffffff" data-color="2"/>
        <path d="m610.062 616.457-7.047 16.562q-1.078 2.701-2.656 3.797-1.581 1.109-3.812 1.11a8 8 0 0 1-2.407-.376q-1.19-.377-1.953-1.046l1.656-3.22q.529.469 1.204.72.685.264 1.359.265.92 0 1.5-.453.576-.441 1.047-1.484l.062-.157-6.765-15.718h4.672l4.375 10.593 4.406-10.593Zm0 0" fill="#ffffff" data-color="2"/>
        <path d="M631.885 616.238q2.934 0 4.656 1.719 1.734 1.72 1.734 5.172v8.937h-4.531v-8.234q-.002-1.858-.766-2.766-.768-.92-2.187-.922-1.595 0-2.532 1.031c-.617.688-.921 1.711-.921 3.063v7.828h-4.532v-8.234q0-3.687-2.953-3.688-1.564 0-2.5 1.031-.924 1.034-.922 3.063v7.828h-4.515v-15.61h4.312v1.813a5.64 5.64 0 0 1 2.125-1.515q1.265-.516 2.782-.516 1.653 0 2.984.656a5.26 5.26 0 0 1 2.14 1.89 6.4 6.4 0 0 1 2.422-1.874q1.467-.67 3.203-.672m0 0" fill="#ffffff" data-color="2"/>
        <path d="M505.684 662.004q1.734.563 2.718 1.859.998 1.284 1 3.172-.002 2.658-2.078 4.094-2.08 1.438-6.047 1.437h-10.5v-20.297h9.922c2.469 0 4.363.477 5.688 1.422 1.332.95 2 2.234 2 3.86 0 .98-.243 1.859-.72 2.64-.468.773-1.132 1.375-1.983 1.813m-10.235-6.204v4.782h4.672q1.734.002 2.625-.594.904-.607.906-1.813-.001-1.183-.906-1.78-.891-.594-2.625-.595Zm5.484 13.235q1.842 0 2.782-.61.951-.608.953-1.89 0-2.532-3.735-2.531h-5.484v5.03Zm0 0" fill="#ffffff" data-color="2"/>
        <path d="M527.925 664.816q0 .094-.094 1.219h-11.797q.31 1.453 1.5 2.297 1.187.843 2.97.843c.812 0 1.53-.117 2.155-.359a5.4 5.4 0 0 0 1.75-1.156l2.407 2.61q-2.207 2.53-6.438 2.53-2.644 0-4.672-1.03-2.033-1.032-3.14-2.86-1.094-1.828-1.094-4.14-.001-2.297 1.094-4.141a7.6 7.6 0 0 1 2.984-2.86q1.906-1.03 4.25-1.031 2.296 0 4.14.984a7.24 7.24 0 0 1 2.922 2.828q1.063 1.846 1.063 4.266m-8.094-4.656q-1.535.001-2.578.875-1.049.862-1.281 2.375h7.687c-.156-.989-.586-1.774-1.28-2.36q-1.049-.89-2.548-.89m0 0" fill="#ffffff" data-color="2"/>
        <path d="M547.032 656.957v13q-.001 4.295-2.235 6.375-2.237 2.092-6.531 2.093-2.268 0-4.297-.562c-1.344-.367-2.465-.89-3.36-1.578l1.798-3.25c.656.539 1.484.969 2.484 1.281a10 10 0 0 0 3.031.484c1.563 0 2.711-.355 3.453-1.062.75-.711 1.125-1.774 1.125-3.203v-.672c-1.18 1.305-2.82 1.953-4.922 1.953q-2.156 0-3.937-.937a7.26 7.26 0 0 1-2.828-2.657q-1.049-1.715-1.047-3.953 0-2.232 1.047-3.937a7.15 7.15 0 0 1 2.828-2.657q1.781-.937 3.937-.937 3.387.001 5.157 2.234v-2.015Zm-8.563 11.14q1.794.002 2.938-1.047 1.155-1.06 1.156-2.78-.001-1.701-1.156-2.766-1.144-1.062-2.938-1.063-1.8 0-2.953 1.063c-.774.71-1.156 1.632-1.156 2.765 0 1.149.382 2.074 1.156 2.781q1.155 1.049 2.953 1.047m0 0" fill="#ffffff" data-color="2"/>
        <path d="M551.233 656.957h4.515v15.609h-4.515Zm2.25-2.172q-1.253 0-2.031-.719a2.36 2.36 0 0 1-.782-1.797q-.002-1.077.782-1.797.778-.733 2.03-.734 1.249 0 2.032.703.78.692.781 1.734 0 1.143-.781 1.875c-.523.493-1.2.735-2.031.735m0 0" fill="#ffffff" data-color="2"/>
        <path d="M569.444 656.738q2.89 0 4.672 1.734 1.781 1.735 1.781 5.157v8.937h-4.515v-8.234c0-1.239-.274-2.16-.813-2.766q-.814-.92-2.344-.922-1.721.001-2.734 1.063-1.018 1.065-1.016 3.14v7.719h-4.515v-15.61h4.312v1.829q.904-.983 2.235-1.516c.882-.351 1.863-.531 2.937-.531m0 0" fill="#ffffff" data-color="2"/>
        <path d="M589.478 656.738q2.89 0 4.672 1.734 1.781 1.735 1.781 5.157v8.937h-4.515v-8.234c0-1.239-.274-2.16-.813-2.766q-.814-.92-2.344-.922-1.721.001-2.734 1.063-1.018 1.065-1.016 3.14v7.719h-4.515v-15.61h4.312v1.829q.904-.983 2.235-1.516c.882-.351 1.863-.531 2.937-.531m0 0" fill="#ffffff" data-color="2"/>
        <path d="M615.308 664.816q0 .094-.094 1.219h-11.797q.31 1.453 1.5 2.297 1.187.843 2.97.843c.812 0 1.53-.117 2.155-.359a5.4 5.4 0 0 0 1.75-1.156l2.407 2.61q-2.207 2.53-6.438 2.53-2.643 0-4.672-1.03-2.033-1.032-3.14-2.86-1.095-1.828-1.094-4.14-.001-2.297 1.094-4.141a7.6 7.6 0 0 1 2.984-2.86q1.906-1.03 4.25-1.031 2.296 0 4.14.984a7.24 7.24 0 0 1 2.923 2.828q1.061 1.846 1.062 4.266m-8.094-4.656q-1.535.001-2.578.875-1.049.862-1.281 2.375h7.687c-.156-.989-.586-1.774-1.28-2.36q-1.049-.89-2.548-.89m0 0" fill="#ffffff" data-color="2"/>
        <path d="M622.633 659.02q.81-1.124 2.188-1.704 1.37-.576 3.187-.578v4.172q-.768-.062-1.015-.063-1.957.002-3.063 1.094-1.094 1.08-1.094 3.266v7.359h-4.515v-15.61h4.312Zm0 0" fill="#ffffff" data-color="2"/>
        <g clip-path="url(#8c05602f-6d6e-406d-911f-c75fd0e2acf3)">
            <g clip-path="url(#6da59179-8f36-4e65-91b6-3e20c1bbe1ac)">
                <path d="M385.656 236.328v318.848H88.84V236.328Zm0 0" fill="#151957" data-color="1"/>
            </g>
        </g>
        <g clip-path="url(#cebc4497-017d-4559-a170-78c8adbd567b)">
            <g clip-path="url(#8eb43e7d-8c9e-4d67-adde-713b2c1c07b5)">
                <path d="M81 564.566h312.504v156.25H81Zm0 0" fill="#151957" data-color="1"/>
            </g>
        </g>
        <path d="M166.977 632.41q-4.347 0-6.766-2.406-2.424-2.404-2.422-6.875v-11.36h4.704v11.188q-.002 5.453 4.515 5.453c1.469 0 2.586-.438 3.36-1.313q1.17-1.326 1.171-4.14v-11.188h4.641v11.36q-.001 4.471-2.422 6.875-2.424 2.407-6.781 2.406m0 0" fill="#ffffff" data-color="2"/>
        <path d="M184.806 618.52q.81-1.124 2.188-1.704 1.37-.576 3.187-.578v4.172q-.768-.062-1.015-.063-1.957.002-3.063 1.094-1.095 1.08-1.094 3.266v7.359h-4.515v-15.61h4.312Zm0 0" fill="#ffffff" data-color="2"/>
        <path d="M202.209 616.238c1.445 0 2.765.336 3.953 1a7.2 7.2 0 0 1 2.796 2.812q1.015 1.817 1.016 4.22-.001 2.407-1.016 4.218a7.17 7.17 0 0 1-2.796 2.812q-1.783 1.001-3.954 1c-2.148 0-3.78-.675-4.906-2.03v1.796h-4.312V610.55h4.515v7.563q1.716-1.875 4.703-1.875m-.782 12.344q1.732 0 2.844-1.172 1.125-1.172 1.125-3.14 0-1.97-1.125-3.141c-.742-.79-1.687-1.188-2.844-1.188q-1.751.002-2.875 1.188-1.111 1.171-1.11 3.14-.001 1.97 1.11 3.14 1.124 1.173 2.875 1.173m0 0" fill="#ffffff" data-color="2"/>
        <path d="M219.275 616.238q3.622 0 5.563 1.719 1.951 1.722 1.953 5.203v8.906h-4.235v-1.937q-1.281 2.172-4.75 2.171-1.8 0-3.125-.609c-.875-.406-1.547-.96-2.015-1.672q-.69-1.077-.688-2.453-.001-2.169 1.625-3.406 1.64-1.249 5.063-1.25h3.609c0-.989-.305-1.75-.906-2.281q-.91-.798-2.703-.797-1.237.001-2.438.39c-.805.262-1.484.617-2.047 1.063l-1.625-3.172q1.266-.89 3.047-1.375c1.195-.332 2.422-.5 3.672-.5m-.344 13.015q1.155.001 2.047-.53.904-.546 1.297-1.594v-1.594h-3.11q-2.781 0-2.78 1.828-.001.877.671 1.39c.457.336 1.082.5 1.875.5m0 0" fill="#ffffff" data-color="2"/>
        <path d="M240.367 616.238q2.89 0 4.672 1.734 1.781 1.735 1.781 5.157v8.937h-4.515v-8.234c0-1.239-.274-2.16-.813-2.766q-.814-.92-2.344-.922-1.721.001-2.734 1.063-1.018 1.065-1.016 3.14v7.719h-4.515v-15.61h4.312v1.829q.904-.983 2.235-1.516c.882-.351 1.863-.531 2.937-.531m0 0" fill="#ffffff" data-color="2"/>
        <path d="M264.948 621.597h4.297v8.235q-1.659 1.254-3.844 1.922-2.173.656-4.375.656-3.157.002-5.687-1.344-2.519-1.343-3.953-3.734-1.44-2.403-1.438-5.422c0-2.008.477-3.813 1.438-5.406.957-1.594 2.285-2.836 3.984-3.735q2.561-1.342 5.75-1.344 2.67.002 4.844.907a9.7 9.7 0 0 1 3.656 2.593l-3.016 2.782q-2.174-2.281-5.25-2.282c-1.304 0-2.46.274-3.469.813a5.87 5.87 0 0 0-2.343 2.297c-.555.98-.828 2.105-.828 3.375 0 1.261.273 2.386.828 3.375a5.97 5.97 0 0 0 2.343 2.297c1 .554 2.133.828 3.407.828q2.027.001 3.656-.875Zm0 0" fill="#ffffff" data-color="2"/>
        <path d="m288.753 616.457-7.047 16.562q-1.079 2.701-2.656 3.797-1.581 1.109-3.812 1.11a8 8 0 0 1-2.407-.376q-1.19-.377-1.953-1.046l1.656-3.22q.528.469 1.204.72.685.264 1.359.265.92 0 1.5-.453.576-.441 1.047-1.484l.062-.157-6.765-15.718h4.672l4.375 10.593 4.406-10.593Zm0 0" fill="#ffffff" data-color="2"/>
        <path d="M310.576 616.238q2.934 0 4.656 1.719 1.734 1.72 1.734 5.172v8.937h-4.531v-8.234c0-1.239-.258-2.16-.766-2.766q-.768-.92-2.187-.922-1.594 0-2.532 1.031c-.617.688-.921 1.711-.921 3.063v7.828h-4.532v-8.234q0-3.687-2.953-3.688-1.563 0-2.5 1.031-.924 1.034-.922 3.063v7.828h-4.515v-15.61h4.312v1.813a5.64 5.64 0 0 1 2.125-1.515q1.265-.516 2.781-.516 1.654 0 2.985.656a5.26 5.26 0 0 1 2.14 1.89 6.4 6.4 0 0 1 2.422-1.874q1.467-.67 3.203-.672m0 0" fill="#ffffff" data-color="2"/>
        <path d="M156.464 656.035v5.36h9.391v3.78h-9.39v7.391h-4.704v-20.297h15.344v3.766Zm0 0" fill="#ffffff" data-color="2"/>
        <path d="M177.397 672.8c-1.649 0-3.125-.343-4.438-1.03q-1.956-1.032-3.062-2.86-1.095-1.828-1.094-4.14-.001-2.328 1.094-4.157c.738-1.219 1.757-2.164 3.062-2.844q1.968-1.03 4.438-1.031 2.466 0 4.406 1.031c1.289.68 2.3 1.625 3.031 2.844q1.109 1.829 1.11 4.156-.001 2.314-1.11 4.14-1.096 1.83-3.031 2.86-1.94 1.032-4.406 1.031m0-3.718q1.732 0 2.843-1.172 1.125-1.172 1.125-3.14 0-1.97-1.125-3.141-1.111-1.187-2.843-1.188-1.751.002-2.875 1.188-1.125 1.171-1.125 3.14t1.125 3.14q1.124 1.173 2.875 1.173m0 0" fill="#ffffff" data-color="2"/>
        <path d="M204.684 656.957v15.609h-4.297v-1.86a6.15 6.15 0 0 1-2.157 1.563 6.8 6.8 0 0 1-2.687.531q-3.083.002-4.875-1.765-1.799-1.782-1.797-5.25v-8.828h4.531v8.156q-.001 3.766 3.157 3.765 1.624.001 2.609-1.046.984-1.06.984-3.157v-7.718Zm0 0" fill="#ffffff" data-color="2"/>
        <path d="M218.367 656.738q2.89 0 4.672 1.734 1.781 1.735 1.781 5.157v8.937h-4.515v-8.234c0-1.239-.274-2.16-.813-2.766q-.814-.92-2.344-.922-1.721.001-2.734 1.063-1.018 1.065-1.016 3.14v7.719h-4.515v-15.61h4.312v1.829q.904-.983 2.235-1.516c.882-.351 1.863-.531 2.937-.531m0 0" fill="#ffffff" data-color="2"/>
        <path d="M244.807 651.05v21.516h-4.328v-1.797q-1.675 2.033-4.875 2.031-2.203 0-3.984-.984a7.05 7.05 0 0 1-2.797-2.812c-.68-1.22-1.016-2.63-1.016-4.235q-.002-2.403 1.016-4.234a7.05 7.05 0 0 1 2.797-2.813q1.781-.984 3.984-.984 2.998 0 4.672 1.875v-7.563Zm-8.421 18.032q1.717 0 2.843-1.172 1.139-1.172 1.14-3.14-.001-1.97-1.14-3.141-1.126-1.187-2.844-1.188c-1.156 0-2.117.398-2.874 1.188q-1.125 1.171-1.125 3.14t1.125 3.14q1.137 1.173 2.875 1.173m0 0" fill="#ffffff" data-color="2"/>
        <path d="M255.26 656.738q3.622 0 5.563 1.719 1.952 1.722 1.953 5.203v8.906h-4.235v-1.937q-1.282 2.172-4.75 2.171-1.8 0-3.125-.609c-.875-.406-1.547-.96-2.015-1.672q-.69-1.077-.688-2.453-.001-2.169 1.625-3.406 1.64-1.249 5.063-1.25h3.609c0-.989-.305-1.75-.906-2.281q-.91-.798-2.703-.797-1.237.001-2.438.39c-.805.262-1.484.617-2.047 1.063l-1.625-3.172q1.266-.89 3.047-1.375c1.195-.332 2.422-.5 3.672-.5m-.344 13.015q1.155.001 2.047-.53.904-.546 1.297-1.594v-1.594h-3.11q-2.781 0-2.78 1.828-.001.877.671 1.39c.457.336 1.082.5 1.875.5m0 0" fill="#ffffff" data-color="2"/>
        <path d="M276.93 671.816q-.675.487-1.641.734a8.3 8.3 0 0 1-2.047.25q-2.784.001-4.313-1.421-1.516-1.418-1.515-4.172v-6.422h-2.407v-3.469h2.407v-3.797h4.515v3.797h3.89v3.469h-3.89v6.36c0 .655.164 1.167.5 1.53q.516.533 1.453.532 1.06 0 1.829-.578Zm0 0" fill="#ffffff" data-color="2"/>
        <path d="M279.479 656.957h4.515v15.609h-4.515Zm2.25-2.172q-1.253 0-2.031-.719a2.36 2.36 0 0 1-.782-1.797q-.002-1.077.781-1.797.779-.733 2.032-.734 1.247 0 2.031.703.78.692.781 1.734 0 1.143-.781 1.875c-.523.493-1.2.735-2.031.735m0 0" fill="#ffffff" data-color="2"/>
        <path d="M295.628 672.8c-1.649 0-3.125-.343-4.438-1.03q-1.956-1.032-3.062-2.86-1.095-1.828-1.094-4.14-.001-2.328 1.094-4.157c.738-1.219 1.757-2.164 3.062-2.844q1.968-1.03 4.438-1.031 2.466 0 4.406 1.031c1.289.68 2.3 1.625 3.031 2.844q1.109 1.829 1.11 4.156-.002 2.314-1.11 4.14-1.096 1.83-3.031 2.86-1.94 1.032-4.406 1.031m0-3.718q1.732 0 2.843-1.172 1.125-1.172 1.125-3.14 0-1.97-1.125-3.141c-.742-.79-1.687-1.188-2.843-1.188q-1.751.002-2.875 1.188-1.125 1.171-1.125 3.14t1.125 3.14q1.124 1.173 2.875 1.173m0 0" fill="#ffffff" data-color="2"/>
        <path d="M316.68 656.738q2.888 0 4.671 1.734 1.781 1.735 1.781 5.157v8.937h-4.515v-8.234c0-1.239-.274-2.16-.813-2.766q-.814-.92-2.344-.922-1.721.001-2.734 1.063-1.018 1.065-1.016 3.14v7.719h-4.515v-15.61h4.312v1.829q.904-.983 2.235-1.516c.882-.351 1.863-.531 2.937-.531m0 0" fill="#ffffff" data-color="2"/>
        <g clip-path="url(#a8f32d78-359c-4607-bc6b-4fb14e664f26)">
            <g clip-path="url(#c6c427b3-7d7e-450b-9f72-1b6b9d9acc16)">
                <path d="M1028.648 142.79v412.76h-296.82V142.79Zm0 0" fill="#151957" data-color="1"/>
            </g>
        </g>
        <g clip-path="url(#2cc0490f-6379-4173-af79-8d2b7ff21883)">
            <g clip-path="url(#88ea0f47-262b-484e-830a-76a3dcb99fc0)">
                <path d="M723.992 564.566h312.504v156.25H723.992Zm0 0" fill="#151957" data-color="1"/>
            </g>
        </g>
        <path d="M809.969 632.41q-4.347 0-6.766-2.406-2.424-2.404-2.422-6.875v-11.36h4.704v11.188q-.001 5.453 4.515 5.453c1.469 0 2.586-.438 3.36-1.313q1.17-1.326 1.171-4.14v-11.188h4.641v11.36q-.001 4.471-2.422 6.875-2.424 2.407-6.781 2.406m0 0" fill="#ffffff" data-color="2"/>
        <path d="M827.8 618.52q.808-1.124 2.187-1.704 1.37-.576 3.187-.578v4.172q-.768-.062-1.015-.063-1.957.002-3.063 1.094-1.095 1.08-1.094 3.266v7.359h-4.515v-15.61h4.312Zm0 0" fill="#ffffff" data-color="2"/>
        <path d="M845.2 616.238c1.446 0 2.766.336 3.954 1a7.2 7.2 0 0 1 2.797 2.812q1.014 1.817 1.015 4.22-.001 2.407-1.015 4.218a7.17 7.17 0 0 1-2.797 2.812q-1.784 1.001-3.953 1c-2.149 0-3.782-.675-4.907-2.03v1.796h-4.312V610.55h4.515v7.563q1.716-1.875 4.704-1.875m-.78 12.344c1.156 0 2.1-.391 2.843-1.172q1.125-1.172 1.125-3.14 0-1.97-1.125-3.141c-.742-.79-1.687-1.188-2.844-1.188q-1.751.002-2.875 1.188-1.112 1.171-1.11 3.14-.001 1.97 1.11 3.14 1.124 1.173 2.875 1.173m0 0" fill="#ffffff" data-color="2"/>
        <path d="M862.268 616.238q3.622 0 5.563 1.719 1.951 1.722 1.953 5.203v8.906h-4.235v-1.937q-1.282 2.172-4.75 2.171-1.8 0-3.125-.609c-.875-.406-1.547-.96-2.015-1.672q-.69-1.077-.688-2.453-.001-2.169 1.625-3.406 1.64-1.249 5.063-1.25h3.609c0-.989-.305-1.75-.906-2.281q-.91-.798-2.703-.797-1.237.001-2.438.39c-.805.262-1.484.617-2.047 1.063l-1.625-3.172q1.266-.89 3.047-1.375c1.195-.332 2.422-.5 3.672-.5m-.344 13.015q1.155.001 2.047-.53.904-.546 1.297-1.594v-1.594h-3.11q-2.781 0-2.78 1.828-.001.877.671 1.39c.457.336 1.082.5 1.875.5m0 0" fill="#ffffff" data-color="2"/>
        <path d="M883.36 616.238q2.888 0 4.671 1.734 1.781 1.735 1.781 5.157v8.937h-4.515v-8.234c0-1.239-.274-2.16-.813-2.766q-.814-.92-2.344-.922-1.721.001-2.734 1.063c-.68.71-1.016 1.757-1.016 3.14v7.719h-4.515v-15.61h4.312v1.829q.904-.983 2.235-1.516c.882-.351 1.863-.531 2.937-.531m0 0" fill="#ffffff" data-color="2"/>
        <path d="M907.94 621.597h4.297v8.235q-1.659 1.254-3.844 1.922-2.173.656-4.375.656-3.157.002-5.687-1.344-2.519-1.343-3.953-3.734-1.44-2.403-1.438-5.422c0-2.008.477-3.813 1.438-5.406.957-1.594 2.285-2.836 3.984-3.735q2.562-1.342 5.75-1.344 2.67.002 4.844.907a9.7 9.7 0 0 1 3.656 2.593l-3.016 2.782q-2.173-2.281-5.25-2.282c-1.304 0-2.46.274-3.468.813a5.87 5.87 0 0 0-2.344 2.297c-.555.98-.828 2.105-.828 3.375 0 1.261.273 2.386.828 3.375a5.97 5.97 0 0 0 2.344 2.297c1 .554 2.132.828 3.406.828q2.027.001 3.656-.875Zm0 0" fill="#ffffff" data-color="2"/>
        <path d="m931.746 616.457-7.047 16.562q-1.078 2.701-2.656 3.797-1.581 1.109-3.812 1.11a8 8 0 0 1-2.407-.376q-1.19-.377-1.953-1.046l1.656-3.22q.529.469 1.203.72.686.264 1.36.265.92 0 1.5-.453.576-.441 1.047-1.484l.062-.157-6.765-15.718h4.672l4.375 10.593 4.406-10.593Zm0 0" fill="#ffffff" data-color="2"/>
        <path d="M953.568 616.238q2.934 0 4.656 1.719 1.734 1.72 1.734 5.172v8.937h-4.531v-8.234q-.002-1.858-.766-2.766-.768-.92-2.187-.922-1.595 0-2.532 1.031c-.617.688-.921 1.711-.921 3.063v7.828h-4.532v-8.234q0-3.687-2.953-3.688-1.564 0-2.5 1.031-.924 1.034-.922 3.063v7.828H933.6v-15.61h4.312v1.813a5.64 5.64 0 0 1 2.125-1.515q1.265-.516 2.782-.516 1.653 0 2.984.656a5.26 5.26 0 0 1 2.14 1.89 6.4 6.4 0 0 1 2.422-1.874q1.467-.67 3.203-.672m0 0" fill="#ffffff" data-color="2"/>
        <path d="M783.023 652.27h4.703v20.296h-4.703Zm0 0" fill="#ffffff" data-color="2"/>
        <path d="M801.705 656.738q2.89 0 4.672 1.734 1.781 1.735 1.781 5.157v8.937h-4.515v-8.234c0-1.239-.274-2.16-.813-2.766q-.814-.92-2.344-.922-1.721.001-2.734 1.063c-.68.71-1.016 1.757-1.016 3.14v7.719h-4.515v-15.61h4.312v1.829q.904-.983 2.235-1.516c.882-.351 1.863-.531 2.937-.531m0 0" fill="#ffffff" data-color="2"/>
        <path d="M822.316 671.816q-.674.487-1.64.734a8.3 8.3 0 0 1-2.047.25q-2.784.001-4.313-1.421-1.516-1.418-1.515-4.172v-6.422h-2.407v-3.469h2.407v-3.797h4.515v3.797h3.89v3.469h-3.89v6.36c0 .655.164 1.167.5 1.53q.516.533 1.453.532 1.061 0 1.828-.578Zm0 0" fill="#ffffff" data-color="2"/>
        <path d="M840.147 664.816q0 .094-.094 1.219h-11.797q.31 1.453 1.5 2.297 1.187.843 2.97.843c.812 0 1.53-.117 2.155-.359a5.4 5.4 0 0 0 1.75-1.156l2.407 2.61q-2.207 2.53-6.438 2.53-2.644 0-4.672-1.03-2.033-1.032-3.14-2.86-1.094-1.828-1.094-4.14-.001-2.297 1.094-4.141a7.6 7.6 0 0 1 2.984-2.86q1.906-1.03 4.25-1.031 2.296 0 4.14.984a7.24 7.24 0 0 1 2.923 2.828q1.061 1.846 1.062 4.266m-8.094-4.656q-1.535.001-2.578.875-1.048.862-1.281 2.375h7.687c-.156-.989-.586-1.774-1.28-2.36q-1.049-.89-2.548-.89m0 0" fill="#ffffff" data-color="2"/>
        <path d="M847.472 659.02q.81-1.124 2.188-1.704 1.37-.576 3.187-.578v4.172q-.768-.062-1.015-.063-1.957.002-3.063 1.094-1.095 1.08-1.094 3.266v7.359h-4.515v-15.61h4.312Zm0 0" fill="#ffffff" data-color="2"/>
        <path d="M875.625 656.738q2.934 0 4.656 1.719 1.734 1.72 1.734 5.172v8.937h-4.531v-8.234c0-1.239-.258-2.16-.766-2.766q-.768-.92-2.187-.922-1.594 0-2.531 1.031c-.618.688-.922 1.711-.922 3.063v7.828h-4.532v-8.234q0-3.687-2.953-3.688-1.563 0-2.5 1.031-.924 1.034-.922 3.063v7.828h-4.515v-15.61h4.312v1.813a5.64 5.64 0 0 1 2.125-1.515q1.265-.516 2.782-.516 1.653 0 2.984.656a5.26 5.26 0 0 1 2.14 1.89 6.4 6.4 0 0 1 2.422-1.874q1.467-.67 3.203-.672m0 0" fill="#ffffff" data-color="2"/>
        <path d="M901.349 664.816q0 .094-.094 1.219h-11.797q.31 1.453 1.5 2.297 1.186.843 2.97.843c.812 0 1.53-.117 2.155-.359a5.4 5.4 0 0 0 1.75-1.156l2.407 2.61q-2.207 2.53-6.438 2.53-2.644 0-4.672-1.03-2.033-1.032-3.14-2.86-1.095-1.828-1.094-4.14-.001-2.297 1.094-4.141a7.6 7.6 0 0 1 2.984-2.86q1.906-1.03 4.25-1.031 2.296 0 4.14.984a7.24 7.24 0 0 1 2.923 2.828q1.061 1.846 1.062 4.266m-8.094-4.656q-1.535.001-2.578.875-1.049.862-1.281 2.375h7.687c-.156-.989-.586-1.774-1.28-2.36q-1.049-.89-2.548-.89m0 0" fill="#ffffff" data-color="2"/>
        <path d="M920.252 651.05v21.516h-4.328v-1.797q-1.675 2.033-4.875 2.031-2.203 0-3.984-.984a7.05 7.05 0 0 1-2.797-2.812q-1.018-1.829-1.016-4.235c0-1.601.336-3.015 1.016-4.234a7.05 7.05 0 0 1 2.797-2.813q1.78-.984 3.984-.984 2.998 0 4.672 1.875v-7.563Zm-8.421 18.032q1.717 0 2.843-1.172 1.139-1.172 1.14-3.14-.001-1.97-1.14-3.141-1.126-1.187-2.843-1.188-1.738.002-2.875 1.188-1.125 1.171-1.125 3.14t1.125 3.14q1.137 1.173 2.875 1.173m0 0" fill="#ffffff" data-color="2"/>
        <path d="M924.425 656.957h4.515v15.609h-4.515Zm2.25-2.172q-1.253 0-2.031-.719a2.36 2.36 0 0 1-.782-1.797q-.002-1.077.782-1.797.778-.733 2.03-.734 1.249 0 2.032.703.78.692.781 1.734 0 1.143-.781 1.875c-.523.493-1.2.735-2.031.735m0 0" fill="#ffffff" data-color="2"/>
        <path d="M939.433 656.738q3.622 0 5.563 1.719 1.951 1.722 1.953 5.203v8.906h-4.235v-1.937q-1.282 2.172-4.75 2.171-1.8 0-3.125-.609c-.875-.406-1.547-.96-2.015-1.672q-.69-1.077-.688-2.453-.001-2.169 1.625-3.406 1.64-1.249 5.063-1.25h3.609c0-.989-.305-1.75-.906-2.281q-.91-.798-2.703-.797-1.237.001-2.438.39c-.805.262-1.484.617-2.047 1.063l-1.625-3.172q1.266-.89 3.047-1.375c1.195-.332 2.422-.5 3.672-.5m-.344 13.015q1.155.001 2.047-.53.904-.546 1.297-1.594v-1.594h-3.11q-2.781 0-2.78 1.828-.001.877.671 1.39c.457.336 1.082.5 1.875.5m0 0" fill="#ffffff" data-color="2"/>
        <path d="M961.102 671.816q-.674.487-1.64.734a8.3 8.3 0 0 1-2.047.25q-2.784.001-4.313-1.421-1.516-1.418-1.515-4.172v-6.422h-2.407v-3.469h2.407v-3.797h4.515v3.797h3.89v3.469h-3.89v6.36c0 .655.164 1.167.5 1.53q.516.533 1.453.532 1.06 0 1.829-.578Zm0 0" fill="#ffffff" data-color="2"/>
        <path d="M978.932 664.816q0 .094-.094 1.219h-11.797q.31 1.453 1.5 2.297 1.187.843 2.97.843c.812 0 1.53-.117 2.155-.359a5.4 5.4 0 0 0 1.75-1.156l2.407 2.61q-2.207 2.53-6.438 2.53-2.644 0-4.672-1.03-2.033-1.032-3.14-2.86-1.095-1.828-1.094-4.14-.001-2.297 1.094-4.141a7.6 7.6 0 0 1 2.984-2.86q1.906-1.03 4.25-1.031 2.296 0 4.14.984a7.24 7.24 0 0 1 2.923 2.828q1.061 1.846 1.062 4.266m-8.094-4.656q-1.535.001-2.578.875-1.048.862-1.281 2.375h7.687c-.156-.989-.586-1.774-1.28-2.36q-1.049-.89-2.548-.89m0 0" fill="#ffffff" data-color="2"/>
        <g clip-path="url(#6352f82d-9f69-4fe0-bc00-fab699e34ca4)">
            <g clip-path="url(#19e057bd-206e-4bb6-9369-28c79f599d5c)">
                <path d="M1349.813 81.004v474.21h-296.82V81.005Zm0 0" fill="#151957" data-color="1"/>
            </g>
        </g>
        <g clip-path="url(#8465f83b-13a5-4e11-8db0-8218f063ad28)">
            <g clip-path="url(#5e952588-794f-4f25-a5b2-f985135e6e8d)">
                <path d="M1046.496 564.566H1359v156.25h-312.504Zm0 0" fill="#151957" data-color="1"/>
            </g>
        </g>
        <path d="M1075.485 648.55v3.766h-15.719v-20.297h15.344v3.766h-10.672v4.406h9.422v3.656h-9.422v4.703Zm0 0" fill="#ffffff" data-color="2"/>
        <path d="M1094.798 630.8v21.516h-4.328v-1.797q-1.676 2.033-4.875 2.031-2.203 0-3.984-.984a7.05 7.05 0 0 1-2.797-2.812c-.68-1.22-1.016-2.63-1.016-4.235q-.002-2.403 1.016-4.234a7.05 7.05 0 0 1 2.797-2.813q1.78-.984 3.984-.984 2.998 0 4.672 1.875V630.8Zm-8.421 18.032q1.717 0 2.843-1.172 1.139-1.172 1.14-3.14-.002-1.97-1.14-3.141-1.126-1.187-2.843-1.188-1.737.002-2.875 1.188-1.125 1.171-1.125 3.14t1.125 3.14q1.138 1.173 2.875 1.173m0 0" fill="#ffffff" data-color="2"/>
        <path d="M1114.689 636.707v15.609h-4.297v-1.86a6.15 6.15 0 0 1-2.157 1.563 6.8 6.8 0 0 1-2.687.531q-3.083.002-4.875-1.765-1.798-1.782-1.797-5.25v-8.828h4.531v8.156q-.001 3.766 3.157 3.765 1.624.001 2.609-1.046.984-1.06.984-3.157v-7.718Zm0 0" fill="#ffffff" data-color="2"/>
        <path d="M1132.919 641.847h4.297v8.235q-1.659 1.254-3.844 1.922-2.173.656-4.375.656-3.157.002-5.687-1.344-2.519-1.343-3.953-3.734-1.44-2.403-1.438-5.422c0-2.008.477-3.813 1.438-5.406.957-1.594 2.285-2.836 3.984-3.735q2.562-1.342 5.75-1.344 2.67.002 4.844.907a9.7 9.7 0 0 1 3.656 2.593l-3.016 2.782q-2.174-2.281-5.25-2.282c-1.304 0-2.46.274-3.468.813a5.87 5.87 0 0 0-2.344 2.297c-.555.98-.828 2.105-.828 3.375 0 1.261.273 2.386.828 3.375a5.97 5.97 0 0 0 2.344 2.297c1 .554 2.132.828 3.406.828q2.027.001 3.656-.875Zm0 0" fill="#ffffff" data-color="2"/>
        <path d="m1156.725 636.707-7.047 16.562q-1.079 2.701-2.656 3.797-1.581 1.109-3.812 1.11a8 8 0 0 1-2.407-.376q-1.19-.377-1.953-1.046l1.656-3.22q.529.469 1.203.72.686.264 1.36.265.92 0 1.5-.453.576-.441 1.047-1.484l.062-.157-6.765-15.718h4.671l4.375 10.593 4.407-10.593Zm0 0" fill="#ffffff" data-color="2"/>
        <path d="M1178.547 636.488q2.934 0 4.656 1.719 1.734 1.72 1.734 5.172v8.937h-4.531v-8.234q-.002-1.858-.766-2.766-.768-.92-2.187-.922-1.595 0-2.532 1.031c-.617.688-.921 1.711-.921 3.063v7.828h-4.532v-8.234q0-3.687-2.953-3.688-1.563 0-2.5 1.031-.924 1.034-.922 3.063v7.828h-4.515v-15.61h4.312v1.813a5.64 5.64 0 0 1 2.125-1.515q1.265-.516 2.781-.516 1.654 0 2.985.656a5.26 5.26 0 0 1 2.14 1.89 6.4 6.4 0 0 1 2.422-1.874q1.467-.67 3.203-.672m0 0" fill="#ffffff" data-color="2"/>
        <path d="M1210.883 647.972h-9.437l-1.797 4.344h-4.813l9.047-20.297h4.64l9.079 20.297h-4.922Zm-1.484-3.578-3.219-7.765-3.219 7.765Zm0 0" fill="#ffffff" data-color="2"/>
        <path d="M1235.294 630.8v21.516h-4.328v-1.797q-1.676 2.033-4.875 2.031-2.203 0-3.984-.984a7.05 7.05 0 0 1-2.797-2.812c-.68-1.22-1.016-2.63-1.016-4.235q-.002-2.403 1.016-4.234a7.05 7.05 0 0 1 2.797-2.813q1.78-.984 3.984-.984 2.998 0 4.672 1.875V630.8Zm-8.422 18.032q1.718 0 2.844-1.172 1.139-1.172 1.14-3.14-.002-1.97-1.14-3.141-1.126-1.187-2.843-1.188-1.737.002-2.876 1.188-1.125 1.171-1.125 3.14t1.125 3.14c.758.782 1.72 1.173 2.875 1.173m0 0" fill="#ffffff" data-color="2"/>
        <path d="m1254.95 636.707-6.594 15.609h-4.656l-6.562-15.61h4.672l4.328 10.626 4.453-10.625Zm0 0" fill="#ffffff" data-color="2"/>
        <path d="M1263.085 636.488q3.622 0 5.563 1.719 1.951 1.722 1.953 5.203v8.906h-4.235v-1.937q-1.282 2.172-4.75 2.171-1.8 0-3.125-.609c-.875-.406-1.547-.96-2.015-1.672q-.69-1.077-.688-2.453-.001-2.169 1.625-3.406 1.64-1.249 5.063-1.25h3.609c0-.989-.305-1.75-.906-2.281q-.91-.798-2.703-.797-1.237.001-2.438.39c-.805.262-1.484.617-2.047 1.063l-1.625-3.172q1.266-.89 3.047-1.375c1.195-.332 2.422-.5 3.672-.5m-.344 13.015q1.155.001 2.047-.53.904-.546 1.297-1.594v-1.594h-3.11q-2.781 0-2.78 1.828-.001.877.671 1.39c.457.336 1.082.5 1.875.5m0 0" fill="#ffffff" data-color="2"/>
        <path d="M1284.176 636.488q2.89 0 4.672 1.734 1.782 1.735 1.781 5.157v8.937h-4.515v-8.234c0-1.239-.274-2.16-.813-2.766q-.814-.92-2.344-.922-1.721.001-2.734 1.063-1.018 1.065-1.016 3.14v7.719h-4.515v-15.61h4.312v1.829q.904-.983 2.235-1.516c.882-.351 1.863-.531 2.937-.531m0 0" fill="#ffffff" data-color="2"/>
        <path d="M1302.256 652.55q-2.485 0-4.484-1.03-1.986-1.032-3.11-2.86-1.111-1.828-1.11-4.14-.002-2.328 1.11-4.157c.75-1.219 1.785-2.164 3.11-2.844q1.999-1.03 4.484-1.031 2.467 0 4.313 1.031a6 6 0 0 1 2.671 2.938l-3.5 1.89q-1.218-2.156-3.515-2.156-1.77 0-2.922 1.172c-.774.773-1.156 1.824-1.156 3.156 0 1.336.382 2.387 1.156 3.156q1.153 1.159 2.922 1.157 2.325.002 3.515-2.141l3.5 1.906q-.832 1.863-2.671 2.907-1.846 1.047-4.313 1.046m0 0" fill="#ffffff" data-color="2"/>
        <path d="M1327.141 644.566q0 .094-.094 1.219h-11.797q.31 1.453 1.5 2.297 1.187.843 2.97.843c.812 0 1.53-.117 2.155-.359a5.4 5.4 0 0 0 1.75-1.156l2.407 2.61q-2.207 2.53-6.438 2.53-2.643 0-4.672-1.03-2.033-1.032-3.14-2.86-1.095-1.828-1.094-4.14-.001-2.297 1.094-4.141a7.6 7.6 0 0 1 2.984-2.86q1.906-1.03 4.25-1.031 2.296 0 4.14.984a7.24 7.24 0 0 1 2.923 2.828q1.061 1.846 1.062 4.266m-8.094-4.656q-1.535.001-2.578.875-1.048.862-1.281 2.375h7.687c-.156-.989-.586-1.774-1.28-2.36q-1.049-.89-2.548-.89m0 0" fill="#ffffff" data-color="2"/>
        <path d="M1346.044 630.8v21.516h-4.328v-1.797q-1.676 2.033-4.875 2.031-2.203 0-3.984-.984a7.05 7.05 0 0 1-2.797-2.812c-.68-1.22-1.016-2.63-1.016-4.235q-.002-2.403 1.016-4.234a7.05 7.05 0 0 1 2.797-2.813q1.78-.984 3.984-.984 2.998 0 4.672 1.875V630.8Zm-8.422 18.032q1.718 0 2.844-1.172 1.139-1.172 1.14-3.14-.002-1.97-1.14-3.141-1.126-1.187-2.843-1.188-1.737.002-2.876 1.188-1.125 1.171-1.125 3.14t1.125 3.14c.758.782 1.72 1.173 2.875 1.173m0 0" fill="#ffffff" data-color="2"/>
        <path d="M182.63 347.09q4.182 0 7.265 1.39c2.062.93 3.648 2.25 4.766 3.969q1.67 2.564 1.671 6.078c0 2.312-.558 4.336-1.671 6.062q-1.675 2.597-4.766 3.969-3.082 1.376-7.266 1.375h-6.36v8.703h-7.312v-31.547Zm-.407 16.89q3.28 0 5-1.406 1.718-1.42 1.719-4.047 0-2.655-1.719-4.078-1.72-1.42-5-1.422h-5.953v10.953Zm0 0" fill="#ffffff" data-color="2"/>
        <path d="M208.182 357.59q1.247-1.766 3.39-2.657 2.137-.904 4.938-.906v6.484a25 25 0 0 0-1.578-.094q-3.018.002-4.735 1.703-1.703 1.688-1.703 5.063v11.453h-7.031v-24.25h6.719Zm0 0" fill="#ffffff" data-color="2"/>
        <path d="M244.638 366.605q0 .128-.14 1.89h-18.344q.498 2.25 2.343 3.563 1.857 1.299 4.61 1.297 1.889 0 3.344-.563 1.466-.562 2.734-1.781l3.734 4.063c-2.281 2.617-5.617 3.921-10 3.921q-4.113 0-7.265-1.593-3.142-1.606-4.86-4.438-1.72-2.842-1.719-6.453 0-3.563 1.688-6.422c1.133-1.906 2.688-3.39 4.656-4.453 1.969-1.07 4.164-1.61 6.594-1.61 2.375 0 4.523.512 6.453 1.532a11.17 11.17 0 0 1 4.531 4.39q1.641 2.86 1.641 6.657m-12.578-7.266q-2.392 0-4.016 1.36-1.61 1.346-1.984 3.687h11.953q-.362-2.296-1.984-3.672c-1.086-.914-2.407-1.375-3.97-1.375m0 0" fill="#ffffff" data-color="2"/>
        <path d="M263.654 354.027c2.258 0 4.313.523 6.156 1.562q2.764 1.547 4.344 4.36 1.577 2.812 1.578 6.562 0 3.738-1.578 6.563c-1.055 1.875-2.5 3.335-4.344 4.375-1.843 1.03-3.898 1.546-6.156 1.546q-4.641.001-7.297-2.921v11.312h-7.031v-33h6.719v2.797q2.606-3.154 7.61-3.156m-1.219 19.203q2.703 0 4.438-1.828t1.734-4.891-1.734-4.89q-1.735-1.83-4.438-1.829c-1.804 0-3.28.61-4.437 1.828q-1.734 1.831-1.734 4.891 0 3.064 1.734 4.89 1.732 1.83 4.437 1.829m0 0" fill="#ffffff" data-color="2"/>
        <path d="M292.272 363.136h12.75v5.625h-12.75Zm0 0" fill="#ffffff" data-color="2"/>
        <path d="M181.7 425.345h6.672v12.797q-2.566 1.941-5.953 2.985a23.2 23.2 0 0 1-6.797 1.03c-3.28 0-6.23-.694-8.843-2.093q-3.925-2.108-6.157-5.828-2.219-3.717-2.218-8.406-.001-4.687 2.218-8.406 2.232-3.716 6.203-5.813 3.967-2.093 8.922-2.094 4.156 0 7.532 1.406 3.374 1.394 5.687 4.047l-4.687 4.328q-3.392-3.562-8.172-3.562-3.017 0-5.36 1.266a9.1 9.1 0 0 0-3.656 3.562c-.867 1.531-1.297 3.29-1.297 5.266q-.002 2.939 1.297 5.234a9.25 9.25 0 0 0 3.625 3.578q2.324 1.282 5.313 1.281 3.14.002 5.672-1.343Zm0 0" fill="#ffffff" data-color="2"/>
        <path d="M201.355 420.564q1.247-1.764 3.39-2.656 2.137-.904 4.938-.906v6.484a25 25 0 0 0-1.578-.094q-3.018.002-4.735 1.703-1.703 1.688-1.703 5.063v11.453h-7.031v-24.25h6.719Zm0 0" fill="#ffffff" data-color="2"/>
        <path d="M223.841 417.002q5.625.002 8.64 2.687c2.02 1.781 3.032 4.477 3.032 8.078v13.844h-6.578v-3.016q-1.988 3.375-7.39 3.375c-1.868 0-3.485-.312-4.86-.937q-2.048-.95-3.125-2.625-1.078-1.67-1.078-3.781 0-3.388 2.547-5.329 2.543-1.935 7.86-1.937h5.593q0-2.296-1.406-3.531c-.93-.82-2.325-1.235-4.188-1.235q-1.938 0-3.812.61c-1.243.398-2.297.945-3.172 1.64l-2.531-4.922c1.32-.925 2.906-1.644 4.75-2.156a21.5 21.5 0 0 1 5.718-.765m-.547 20.234c1.207 0 2.274-.273 3.203-.828q1.388-.843 1.985-2.453v-2.485h-4.828q-4.33.002-4.328 2.844c0 .899.351 1.61 1.062 2.14.707.524 1.676.782 2.906.782m0 0" fill="#ffffff" data-color="2"/>
        <path d="M266.57 408.158v33.453h-6.719v-2.797c-1.742 2.106-4.265 3.156-7.578 3.156-2.281 0-4.351-.507-6.203-1.53q-2.767-1.529-4.344-4.376-1.58-2.84-1.578-6.578-.001-3.749 1.578-6.578 1.577-2.841 4.344-4.375 2.78-1.53 6.203-1.531 4.641.002 7.266 2.921v-11.765Zm-13.078 28.047q2.655 0 4.406-1.828 1.765-1.828 1.766-4.891-.001-3.062-1.766-4.89-1.751-1.83-4.406-1.829-2.706 0-4.469 1.828-1.751 1.831-1.75 4.891-.001 3.064 1.75 4.89 1.763 1.83 4.469 1.829m0 0" fill="#ffffff" data-color="2"/>
        <path d="M296.805 429.58q0 .128-.14 1.89H278.32q.498 2.25 2.343 3.563 1.857 1.299 4.61 1.297 1.889 0 3.344-.563 1.466-.563 2.734-1.781l3.734 4.063c-2.281 2.617-5.617 3.921-10 3.921q-4.113 0-7.265-1.593-3.142-1.606-4.86-4.438-1.72-2.843-1.719-6.453 0-3.563 1.688-6.422c1.133-1.906 2.688-3.39 4.656-4.453 1.969-1.07 4.164-1.61 6.594-1.61 2.375 0 4.523.512 6.453 1.532a11.17 11.17 0 0 1 4.531 4.39q1.641 2.86 1.641 6.657m-12.578-7.266q-2.392 0-4.016 1.36-1.61 1.346-1.984 3.687h11.953q-.362-2.296-1.984-3.672-1.627-1.373-3.97-1.375m0 0" fill="#ffffff" data-color="2"/>
        <path d="M324.919 410.064v31.547h-7.297v-25.687h-6.312v-5.86Zm0 0" fill="#ffffff" data-color="2"/>
        <path d="M458.743 367.266h6.671v12.797q-2.566 1.941-5.953 2.985a23.2 23.2 0 0 1-6.797 1.03c-3.28 0-6.23-.694-8.843-2.093q-3.925-2.108-6.157-5.828-2.219-3.717-2.218-8.406-.001-4.687 2.218-8.406 2.232-3.716 6.204-5.813 3.965-2.093 8.921-2.094 4.156 0 7.532 1.406 3.374 1.394 5.687 4.047l-4.687 4.328q-3.392-3.562-8.172-3.562-3.017 0-5.36 1.266a9.1 9.1 0 0 0-3.656 3.562c-.867 1.531-1.297 3.29-1.297 5.266q-.002 2.939 1.297 5.234a9.25 9.25 0 0 0 3.625 3.578q2.324 1.282 5.313 1.281 3.14.002 5.671-1.343Zm0 0" fill="#ffffff" data-color="2"/>
        <path d="M478.397 362.485q1.246-1.764 3.39-2.656 2.137-.904 4.938-.906v6.484a25 25 0 0 0-1.578-.094q-3.018.002-4.735 1.703-1.703 1.688-1.703 5.063v11.453h-7.031v-24.25h6.719Zm0 0" fill="#ffffff" data-color="2"/>
        <path d="M500.883 358.923q5.625.002 8.64 2.687c2.02 1.781 3.032 4.477 3.032 8.078v13.844h-6.578v-3.016q-1.988 3.375-7.39 3.375c-1.868 0-3.485-.312-4.86-.937-1.367-.633-2.406-1.508-3.125-2.625q-1.078-1.67-1.078-3.781 0-3.388 2.547-5.329 2.543-1.935 7.86-1.937h5.593q0-2.296-1.406-3.531c-.93-.82-2.325-1.235-4.188-1.235q-1.938 0-3.812.61c-1.243.398-2.297.945-3.172 1.64l-2.532-4.922c1.32-.925 2.907-1.644 4.75-2.156a21.5 21.5 0 0 1 5.72-.765m-.547 20.234c1.207 0 2.274-.273 3.203-.828q1.388-.843 1.985-2.453v-2.485h-4.828q-4.33.002-4.328 2.844c0 .899.351 1.61 1.062 2.14q1.06.784 2.906.782m0 0" fill="#ffffff" data-color="2"/>
        <path d="M543.613 350.079v33.453h-6.719v-2.797c-1.742 2.106-4.265 3.156-7.578 3.156-2.281 0-4.351-.507-6.203-1.53q-2.767-1.529-4.344-4.376-1.58-2.84-1.578-6.578-.001-3.749 1.578-6.578 1.577-2.841 4.344-4.375 2.78-1.53 6.203-1.531 4.641.002 7.266 2.921V350.08Zm-13.078 28.047q2.655 0 4.406-1.828 1.765-1.828 1.766-4.891-.001-3.062-1.766-4.89-1.751-1.83-4.406-1.829-2.706 0-4.469 1.828-1.751 1.831-1.75 4.891-.001 3.064 1.75 4.89 1.763 1.83 4.469 1.829m0 0" fill="#ffffff" data-color="2"/>
        <path d="M573.847 371.5q0 .13-.14 1.891h-18.344q.498 2.25 2.343 3.563 1.857 1.299 4.61 1.297c1.258 0 2.375-.188 3.343-.563q1.467-.563 2.735-1.781l3.734 4.063c-2.281 2.617-5.617 3.921-10 3.921q-4.113 0-7.265-1.593-3.142-1.606-4.86-4.438-1.72-2.842-1.719-6.453 0-3.563 1.688-6.422c1.133-1.906 2.688-3.39 4.656-4.453 1.969-1.07 4.164-1.61 6.594-1.61 2.375 0 4.523.512 6.453 1.532a11.17 11.17 0 0 1 4.531 4.39q1.641 2.86 1.641 6.657m-12.578-7.265q-2.392 0-4.016 1.36c-1.074.898-1.734 2.124-1.984 3.687h11.953q-.362-2.296-1.984-3.672-1.627-1.373-3.97-1.375m0 0" fill="#ffffff" data-color="2"/>
        <path d="M601.962 351.985v31.547h-7.297v-25.687h-6.312v-5.86Zm0 0" fill="#ffffff" data-color="2"/>
        <path d="M620.804 368.032h12.75v5.625h-12.75Zm0 0" fill="#ffffff" data-color="2"/>
        <path d="M673.94 377.579v5.953h-23.845v-4.734l12.172-11.5q1.935-1.842 2.61-3.172c.457-.883.687-1.766.687-2.64q0-1.888-1.297-2.907-1.282-1.015-3.75-1.016-2.079 0-3.75.797-1.674.785-2.797 2.36l-5.312-3.422q1.84-2.75 5.094-4.297 3.247-1.562 7.437-1.563 3.516.001 6.14 1.156 2.64 1.143 4.11 3.235 1.467 2.096 1.469 4.937 0 2.579-1.078 4.828-1.08 2.251-4.203 5.141l-7.25 6.844Zm0 0" fill="#ffffff" data-color="2"/>
        <path d="M781.88 323.143h6.671v12.797q-2.566 1.941-5.953 2.985a23.2 23.2 0 0 1-6.797 1.03c-3.28 0-6.23-.694-8.843-2.093q-3.925-2.108-6.157-5.828-2.219-3.717-2.218-8.406-.001-4.687 2.218-8.406 2.232-3.716 6.203-5.813 3.967-2.093 8.922-2.094 4.156 0 7.532 1.406 3.374 1.394 5.687 4.047l-4.687 4.329q-3.392-3.563-8.172-3.563-3.017 0-5.36 1.266a9.1 9.1 0 0 0-3.656 3.562c-.867 1.531-1.297 3.29-1.297 5.266q-.002 2.939 1.297 5.234a9.25 9.25 0 0 0 3.625 3.578q2.324 1.282 5.313 1.281 3.14.002 5.672-1.343Zm0 0" fill="#ffffff" data-color="2"/>
        <path d="M801.534 318.362q1.247-1.764 3.39-2.656 2.138-.904 4.938-.906v6.484a25 25 0 0 0-1.578-.094q-3.018.002-4.735 1.703-1.703 1.688-1.703 5.063v11.453h-7.031v-24.25h6.719Zm0 0" fill="#ffffff" data-color="2"/>
        <path d="M824.021 314.8q5.625.002 8.64 2.687c2.02 1.781 3.032 4.477 3.032 8.078v13.844h-6.578v-3.016q-1.988 3.375-7.39 3.375c-1.868 0-3.485-.312-4.86-.937-1.367-.633-2.406-1.508-3.125-2.625q-1.078-1.67-1.078-3.781 0-3.388 2.547-5.329 2.543-1.935 7.86-1.937h5.593q0-2.296-1.406-3.531c-.93-.82-2.325-1.235-4.188-1.235q-1.938 0-3.812.61c-1.243.398-2.297.945-3.172 1.64l-2.531-4.921q1.982-1.389 4.75-2.157a21.5 21.5 0 0 1 5.718-.765m-.547 20.234c1.207 0 2.274-.273 3.203-.828q1.388-.843 1.985-2.453v-2.485h-4.828q-4.33.002-4.328 2.844c0 .899.351 1.61 1.062 2.14q1.06.784 2.906.782m0 0" fill="#ffffff" data-color="2"/>
        <path d="M866.75 305.956v33.453h-6.719v-2.797c-1.742 2.106-4.265 3.156-7.578 3.156-2.281 0-4.351-.507-6.203-1.53q-2.767-1.529-4.344-4.376-1.58-2.84-1.578-6.578-.001-3.749 1.578-6.578 1.577-2.841 4.344-4.375 2.78-1.53 6.203-1.531 4.641.002 7.266 2.921v-11.765Zm-13.078 28.047q2.655 0 4.406-1.828 1.765-1.828 1.766-4.891-.001-3.062-1.766-4.89-1.751-1.83-4.406-1.829-2.706 0-4.469 1.828-1.751 1.831-1.75 4.891-.001 3.064 1.75 4.89 1.763 1.83 4.469 1.829m0 0" fill="#ffffff" data-color="2"/>
        <path d="M896.984 327.378q0 .128-.14 1.89H878.5q.498 2.25 2.343 3.563 1.857 1.299 4.61 1.297 1.889 0 3.344-.563c.976-.375 1.89-.969 2.734-1.781l3.734 4.063c-2.281 2.617-5.617 3.921-10 3.921q-4.113 0-7.265-1.593-3.142-1.606-4.86-4.438c-1.148-1.894-1.718-4.047-1.718-6.453q0-3.563 1.687-6.422c1.133-1.906 2.688-3.39 4.656-4.453 1.969-1.07 4.164-1.61 6.594-1.61 2.375 0 4.523.512 6.453 1.532a11.17 11.17 0 0 1 4.531 4.39q1.641 2.86 1.641 6.657m-12.578-7.266q-2.392 0-4.016 1.36-1.61 1.346-1.984 3.687h11.953q-.362-2.296-1.984-3.672c-1.086-.914-2.407-1.375-3.97-1.375m0 0" fill="#ffffff" data-color="2"/>
        <path d="M936.505 333.456v5.953h-23.844v-4.734l12.172-11.5q1.935-1.842 2.61-3.172c.457-.883.687-1.766.687-2.64q0-1.888-1.297-2.907-1.283-1.015-3.75-1.016-2.079 0-3.75.797-1.674.785-2.797 2.36l-5.312-3.422q1.84-2.75 5.094-4.297 3.247-1.562 7.437-1.563 3.515.001 6.14 1.156 2.64 1.143 4.11 3.235 1.467 2.096 1.469 4.937 0 2.58-1.078 4.829-1.08 2.25-4.203 5.14l-7.25 6.844Zm0 0" fill="#ffffff" data-color="2"/>
        <path d="M952.865 323.909h12.75v5.625h-12.75Zm0 0" fill="#ffffff" data-color="2"/>
        <path d="M997.172 320.706q4.139.674 6.344 3.094c1.476 1.605 2.219 3.593 2.219 5.968a9.4 9.4 0 0 1-1.454 5.079q-1.438 2.312-4.39 3.718-2.955 1.39-7.235 1.39-3.327 0-6.562-.874c-2.149-.594-3.969-1.43-5.469-2.516l2.844-5.578c1.195.899 2.582 1.594 4.156 2.094 1.582.492 3.203.734 4.86.734q2.747.002 4.328-1.047 1.577-1.06 1.578-3 0-3.874-5.906-3.875h-3.344v-4.828l6.5-7.344h-13.438v-5.859h22.094v4.719Zm0 0" fill="#ffffff" data-color="2"/>
        <path d="M1118.999 300.688h6.375v12.219q-2.454 1.847-5.688 2.843a22.1 22.1 0 0 1-6.5.985c-3.125 0-5.937-.664-8.437-2q-3.738-1.997-5.875-5.547-2.126-3.545-2.125-8.031-.001-4.465 2.125-8.016 2.137-3.56 5.922-5.563 3.797-1.999 8.531-2 3.949.001 7.172 1.344 3.234 1.33 5.437 3.86l-4.484 4.14q-3.222-3.406-7.781-3.406-2.894 0-5.125 1.203a8.63 8.63 0 0 0-3.485 3.406q-1.252 2.19-1.25 5.031c0 1.868.414 3.532 1.25 5a8.9 8.9 0 0 0 3.454 3.422q2.215 1.22 5.062 1.22c2.008 0 3.816-.43 5.422-1.298Zm0 0" fill="#ffffff" data-color="2"/>
        <path d="M1137.765 296.125q1.2-1.686 3.234-2.547c1.363-.57 2.938-.859 4.719-.859v6.203a22 22 0 0 0-1.5-.094c-1.93 0-3.438.543-4.532 1.625q-1.626 1.612-1.624 4.829v10.937h-6.72v-23.156h6.423Zm0 0" fill="#ffffff" data-color="2"/>
        <path d="M1159.23 292.719q5.375 0 8.25 2.563 2.89 2.566 2.891 7.734v13.203h-6.281v-2.89q-1.893 3.234-7.063 3.234c-1.773 0-3.312-.305-4.625-.906q-1.955-.903-2.984-2.485-1.03-1.593-1.031-3.625c0-2.144.804-3.832 2.422-5.062q2.437-1.86 7.515-1.86h5.344q-.001-2.204-1.344-3.375-1.329-1.185-4-1.187-1.846.002-3.64.578-1.783.581-3.032 1.578l-2.406-4.703q1.888-1.324 4.531-2.063a20.4 20.4 0 0 1 5.453-.734m-.515 19.328q1.716 0 3.047-.797 1.342-.796 1.906-2.344v-2.375h-4.61q-4.124 0-4.124 2.72-.001 1.283 1 2.046 1.012.75 2.78.75m0 0" fill="#ffffff" data-color="2"/>
        <path d="M1200.01 284.297v31.922h-6.405v-2.672q-2.502 3.017-7.235 3.016-3.269 0-5.922-1.453-2.64-1.466-4.14-4.172-1.5-2.718-1.5-6.297c0-2.375.5-4.461 1.5-6.266q1.5-2.717 4.14-4.187 2.654-1.467 5.922-1.469 4.436.001 6.938 2.797v-11.219Zm-12.468 26.766c1.688 0 3.086-.582 4.203-1.75q1.688-1.747 1.688-4.672c0-1.945-.563-3.5-1.688-4.656-1.117-1.164-2.515-1.75-4.203-1.75-1.719 0-3.14.586-4.265 1.75-1.118 1.156-1.672 2.71-1.672 4.656 0 1.95.554 3.508 1.671 4.672q1.688 1.751 4.266 1.75m0 0" fill="#ffffff" data-color="2"/>
        <path d="M1228.893 304.735q0 .128-.14 1.796h-17.5q.466 2.158 2.234 3.407c1.176.836 2.64 1.25 4.39 1.25q1.793 0 3.188-.531c.938-.364 1.805-.93 2.61-1.704l3.578 3.86q-3.268 3.75-9.547 3.75-3.926.002-6.938-1.531-3.016-1.529-4.656-4.235-1.627-2.717-1.625-6.156-.001-3.387 1.61-6.125a11.45 11.45 0 0 1 4.437-4.266c1.875-1.02 3.976-1.531 6.312-1.531q3.387.002 6.141 1.469a10.67 10.67 0 0 1 4.328 4.203c1.05 1.812 1.578 3.93 1.578 6.344m-12.015-6.938c-1.524 0-2.797.434-3.828 1.297q-1.55 1.3-1.891 3.531h11.406q-.346-2.203-1.906-3.515-1.548-1.313-3.781-1.313m0 0" fill="#ffffff" data-color="2"/>
        <path d="M1271.703 309.89h-4.907v6.329H1260v-6.328h-16.234v-4.688l14.203-19.109h7.313l-13.157 18.125h8.079v-5.64h6.593v5.64h4.907Zm0 0" fill="#ffffff" data-color="2"/>
        <path d="M1295.236 303.782h-7.5v7.312h-5.547v-7.312h-7.437v-5.25h7.437v-7.313h5.547v7.313h7.5Zm0 0" fill="#ffffff" data-color="2"/>
    </g>
</svg>
