<?xml version="1.0" encoding="UTF-8"?>
<svg data-bbox="71.742 126.324 1287.25 513.367" height="1080" viewBox="0 0 1440 810" width="1920" xmlns="http://www.w3.org/2000/svg" data-type="color">
    <g>
        <defs>
            <clipPath id="992c830e-9bc5-433c-8a01-dde343cd9011">
                <path d="M287.363 271.184h209.153V530H287.363Zm0 0"/>
            </clipPath>
            <clipPath id="3cfb25fd-889b-460b-aadf-4fa8145eda1b">
                <path d="M496.516 285.234v230.438c0 7.762-6.29 14.05-14.051 14.05H301.418c-7.762 0-14.055-6.288-14.055-14.05V285.234c0-7.761 6.293-14.05 14.055-14.05h181.047c7.762 0 14.05 6.289 14.05 14.05m0 0"/>
            </clipPath>
            <clipPath id="3b9d350b-be4e-48b5-aaa8-1cb0de9dfe27">
                <path d="M287.371 536.195h206.992v103.496H287.371Zm0 0"/>
            </clipPath>
            <clipPath id="22206272-685a-446d-80ca-f90a1a623dcb">
                <path d="M442.617 536.195c28.578 0 51.746 23.168 51.746 51.746 0 28.582-23.168 51.75-51.746 51.75h-103.5c-28.578 0-51.746-23.168-51.746-51.75 0-28.578 23.168-51.746 51.746-51.746Zm0 0"/>
            </clipPath>
            <clipPath id="a1516c3c-6fce-43de-9655-5053034ec503">
                <path d="M71.742 304.906h209.153V530H71.742Zm0 0"/>
            </clipPath>
            <clipPath id="c6ad6c72-92a7-44b0-b646-8dcf7efe91c3">
                <path d="M280.895 318.957v196.719c0 7.758-6.293 14.05-14.051 14.05H85.793c-7.758 0-14.05-6.292-14.05-14.05V318.957c0-7.762 6.292-14.05 14.05-14.05h181.05c7.759 0 14.052 6.288 14.052 14.05m0 0"/>
            </clipPath>
            <clipPath id="5789f66b-530f-45a6-a422-53b82fbb08dd">
                <path d="M71.75 536.195h206.996v103.496H71.75Zm0 0"/>
            </clipPath>
            <clipPath id="239e0903-e825-4f61-945a-322c0283b1c1">
                <path d="M226.996 536.195c28.578 0 51.75 23.168 51.75 51.746 0 28.582-23.172 51.75-51.75 51.75H123.5c-28.582 0-51.75-23.168-51.75-51.75 0-28.578 23.168-51.746 51.75-51.746Zm0 0"/>
            </clipPath>
            <clipPath id="d425f40d-3a94-40c6-97ff-d2a85aeb108a">
                <path d="M502.984 238.988h209.153V529.84H502.984Zm0 0"/>
            </clipPath>
            <clipPath id="319b93dc-7f5f-4796-a029-faa052e17f3c">
                <path d="M712.137 253.043v262.629c0 7.762-6.293 14.05-14.051 14.05h-181.05c-7.759 0-14.052-6.288-14.052-14.05V253.043c0-7.762 6.293-14.055 14.051-14.055h181.05c7.759 0 14.052 6.293 14.052 14.055m0 0"/>
            </clipPath>
            <clipPath id="657b40ba-8875-4871-bf45-54aa877c746d">
                <path d="M502.988 536.195h206.996v103.496H502.988Zm0 0"/>
            </clipPath>
            <clipPath id="b6cb8d74-e0b9-47e4-b602-ec257296d41f">
                <path d="M658.234 536.195c28.582 0 51.75 23.168 51.75 51.746 0 28.582-23.168 51.75-51.75 51.75H554.738c-28.582 0-51.75-23.168-51.75-51.75 0-28.578 23.168-51.746 51.75-51.746Zm0 0"/>
            </clipPath>
            <clipPath id="858edfbb-2c32-4d17-a5ce-3e7fdea06661">
                <path d="M934.223 155.293h209.152V530H934.223Zm0 0"/>
            </clipPath>
            <clipPath id="cd4d31f6-c116-4aef-80da-52570c4fe001">
                <path d="M1143.375 169.344v346.328c0 7.762-6.293 14.055-14.05 14.055H948.272c-7.757 0-14.05-6.293-14.05-14.055V169.344c0-7.758 6.293-14.051 14.05-14.051h181.051c7.758 0 14.051 6.293 14.051 14.05m0 0"/>
            </clipPath>
            <clipPath id="0750cbb1-bfa7-41cf-9fa5-f534cd67a1ac">
                <path d="M934.23 536.195h206.993v103.496H934.23Zm0 0"/>
            </clipPath>
            <clipPath id="82255c86-32a5-42a1-b2c6-61d14f8fcdb9">
                <path d="M1089.477 536.195c28.578 0 51.746 23.168 51.746 51.746 0 28.582-23.168 51.75-51.746 51.75h-103.5c-28.579 0-51.747-23.168-51.747-51.75 0-28.578 23.168-51.746 51.747-51.746Zm0 0"/>
            </clipPath>
            <clipPath id="4af16772-f896-4e13-af71-963737785a93">
                <path d="M718.602 195.453h209.152V530H718.602Zm0 0"/>
            </clipPath>
            <clipPath id="fca5aac3-1988-4148-a0c5-2626c72086e8">
                <path d="M927.754 209.504v306.172c0 7.758-6.293 14.05-14.05 14.05H732.651c-7.757 0-14.05-6.292-14.05-14.05V209.504c0-7.758 6.293-14.05 14.05-14.05h181.051c7.758 0 14.05 6.292 14.05 14.05m0 0"/>
            </clipPath>
            <clipPath id="648cadd9-3fd2-4c4f-95af-2138ee6d2490">
                <path d="M718.61 536.195h206.995v103.496H718.61Zm0 0"/>
            </clipPath>
            <clipPath id="76252b06-c6b2-42d1-b568-d19f47d2fb7c">
                <path d="M873.855 536.195c28.579 0 51.75 23.168 51.75 51.746 0 28.582-23.171 51.75-51.75 51.75H770.36c-28.582 0-51.75-23.168-51.75-51.75 0-28.578 23.168-51.746 51.75-51.746Zm0 0"/>
            </clipPath>
            <clipPath id="809cd723-dbdf-4b7a-9088-783c9b62939c">
                <path d="M1149.84 126.324h209.152v403.594H1149.84Zm0 0"/>
            </clipPath>
            <clipPath id="ad845d76-d5a5-4f15-afdf-e3d5d7bd5d43">
                <path d="M1358.992 140.375v375.3c0 7.763-6.293 14.052-14.05 14.052H1163.89c-7.758 0-14.051-6.29-14.051-14.051V140.375c0-7.762 6.293-14.05 14.05-14.05h181.051c7.758 0 14.051 6.288 14.051 14.05m0 0"/>
            </clipPath>
            <clipPath id="311ef00d-df5c-4b23-8f2b-e5f0775aac8f">
                <path d="M1149.848 536.195h206.996v103.496h-206.996Zm0 0"/>
            </clipPath>
            <clipPath id="6d9e9625-eb61-4bba-9d84-96ed2e502f17">
                <path d="M1305.094 536.195c28.582 0 51.75 23.168 51.75 51.746 0 28.582-23.168 51.75-51.75 51.75h-103.496c-28.582 0-51.75-23.168-51.75-51.75 0-28.578 23.168-51.746 51.75-51.746Zm0 0"/>
            </clipPath>
        </defs>
        <g clip-path="url(#992c830e-9bc5-433c-8a01-dde343cd9011)">
            <g clip-path="url(#3cfb25fd-889b-460b-aadf-4fa8145eda1b)">
                <path d="M496.516 271.184v258.168H287.363V271.184Zm0 0" fill="#67a0d7" data-color="1"/>
            </g>
        </g>
        <g clip-path="url(#3b9d350b-be4e-48b5-aaa8-1cb0de9dfe27)">
            <g clip-path="url(#22206272-685a-446d-80ca-f90a1a623dcb)">
                <path d="M287.371 536.195h206.992v103.496H287.371Zm0 0" fill="#67a0d7" data-color="1"/>
            </g>
        </g>
        <path d="M314.553 593.21v2.984h-12.469V580.1h12.172v2.985h-8.469v3.5h7.485v2.89h-7.485v3.735Zm0 0" fill="#ffffff" data-color="2"/>
        <path d="M329.872 579.132v17.062h-3.438v-1.422q-1.33 1.61-3.86 1.61-1.752.002-3.171-.782a5.63 5.63 0 0 1-2.219-2.234c-.531-.969-.797-2.086-.797-3.36q0-1.905.797-3.359a5.65 5.65 0 0 1 2.219-2.234q1.419-.781 3.172-.782 2.373 0 3.703 1.5v-6Zm-6.672 14.296c.906 0 1.656-.304 2.25-.922q.89-.937.89-2.5 0-1.558-.89-2.484-.891-.937-2.25-.937-1.393 0-2.281.937-.891.926-.891 2.484 0 1.563.89 2.5c.594.618 1.352.922 2.282.922m0 0" fill="#ffffff" data-color="2"/>
        <path d="M345.642 583.819v12.375h-3.406v-1.469a5 5 0 0 1-1.703 1.235 5.4 5.4 0 0 1-2.141.421q-2.44 0-3.86-1.406-1.422-1.404-1.421-4.156v-7h3.578v6.469q-.002 2.986 2.515 2.984c.852 0 1.54-.273 2.063-.828q.78-.843.781-2.5v-6.125Zm0 0" fill="#ffffff" data-color="2"/>
        <path d="M360.093 587.897h3.406v6.531a9.8 9.8 0 0 1-3.03 1.516 11.8 11.8 0 0 1-3.47.531c-1.68 0-3.183-.351-4.515-1.062q-2.004-1.077-3.14-2.969-1.142-1.905-1.141-4.297 0-2.39 1.14-4.281c.758-1.27 1.813-2.258 3.156-2.969q2.03-1.078 4.563-1.078 2.12.002 3.844.719a7.5 7.5 0 0 1 2.89 2.062l-2.39 2.203c-1.149-1.207-2.531-1.812-4.156-1.812q-1.549 0-2.75.656a4.64 4.64 0 0 0-1.86 1.813c-.437.78-.656 1.68-.656 2.687q0 1.488.656 2.672a4.73 4.73 0 0 0 1.86 1.828q1.183.656 2.703.656 1.606 0 2.89-.703Zm0 0" fill="#ffffff" data-color="2"/>
        <path d="m378.978 583.819-5.594 13.14q-.844 2.122-2.11 3-1.253.875-3.015.876a6.4 6.4 0 0 1-1.906-.297q-.938-.3-1.547-.828l1.312-2.547q.421.358.953.562.546.218 1.078.219.732 0 1.188-.36.467-.362.828-1.187l.047-.11-5.36-12.468h3.704l3.468 8.39 3.5-8.39Zm0 0" fill="#ffffff" data-color="2"/>
        <path d="M396.289 583.632q2.326.001 3.688 1.375c.914.906 1.375 2.277 1.375 4.109v7.078h-3.594v-6.531q0-1.466-.61-2.188-.609-.733-1.734-.734-1.267 0-2 .828c-.492.543-.734 1.352-.734 2.422v6.203h-3.594v-6.531q0-2.92-2.344-2.922-1.236 0-1.969.828c-.492.543-.734 1.352-.734 2.422v6.203h-3.594v-12.375h3.422v1.422a4.46 4.46 0 0 1 1.688-1.188 5.7 5.7 0 0 1 2.203-.422q1.311.002 2.36.532a4.3 4.3 0 0 1 1.718 1.5 5 5 0 0 1 1.906-1.5 6.1 6.1 0 0 1 2.547-.532m0 0" fill="#ffffff" data-color="2"/>
        <path d="M411.07 579.132h3.594v17.062h-3.594Zm0 0" fill="#ffffff" data-color="2"/>
        <path d="M430.116 590.053q0 .066-.078.97h-9.36a2.9 2.9 0 0 0 1.188 1.812q.951.672 2.36.671.965 0 1.703-.28.75-.295 1.406-.923l1.906 2.078c-1.168 1.336-2.87 2-5.11 2q-2.097.001-3.702-.812-1.612-.825-2.485-2.266c-.586-.968-.875-2.066-.875-3.297q0-1.811.86-3.265a6.1 6.1 0 0 1 2.375-2.281q1.5-.828 3.375-.829 1.81.001 3.281.782a5.77 5.77 0 0 1 2.313 2.25c.562.968.843 2.101.843 3.39m-6.422-3.703q-1.22 0-2.047.688-.83.69-1.015 1.89h6.094q-.176-1.17-1-1.875-.83-.702-2.032-.703m0 0" fill="#ffffff" data-color="2"/>
        <path d="m444.78 583.819-5.218 12.375h-3.703l-5.203-12.375h3.703l3.437 8.422 3.531-8.422Zm0 0" fill="#ffffff" data-color="2"/>
        <path d="M458.374 590.053q0 .066-.078.97h-9.36a2.9 2.9 0 0 0 1.188 1.812q.951.672 2.36.671.965 0 1.703-.28.75-.295 1.406-.923l1.906 2.078c-1.168 1.336-2.87 2-5.11 2q-2.097.001-3.702-.812-1.612-.825-2.485-2.266c-.586-.968-.875-2.066-.875-3.297q0-1.811.86-3.265a6.1 6.1 0 0 1 2.375-2.281q1.5-.828 3.375-.829 1.81.001 3.281.782a5.77 5.77 0 0 1 2.313 2.25c.562.968.843 2.101.843 3.39m-6.422-3.703q-1.22 0-2.046.688c-.555.46-.891 1.09-1.016 1.89h6.094q-.176-1.17-1-1.875-.83-.702-2.032-.703m0 0" fill="#ffffff" data-color="2"/>
        <path d="M460.756 579.132h3.594v17.062h-3.594Zm0 0" fill="#ffffff" data-color="2"/>
        <path d="M479.637 580.1v16.094h-3.734v-13.11h-3.219V580.1Zm0 0" fill="#ffffff" data-color="2"/>
        <g clip-path="url(#a1516c3c-6fce-43de-9655-5053034ec503)">
            <g clip-path="url(#c6ad6c72-92a7-44b0-b646-8dcf7efe91c3)">
                <path d="M280.895 304.906v224.672H71.742V304.906Zm0 0" fill="#67a0d7" data-color="1"/>
            </g>
        </g>
        <g clip-path="url(#5789f66b-530f-45a6-a422-53b82fbb08dd)">
            <g clip-path="url(#239e0903-e825-4f61-945a-322c0283b1c1)">
                <path d="M71.75 536.195h206.996v103.496H71.75Zm0 0" fill="#67a0d7" data-color="1"/>
            </g>
        </g>
        <path d="M138.25 577.46v2.984h-12.469V564.35h12.172v2.985h-8.469v3.5h7.485v2.89h-7.485v3.735Zm0 0" fill="#ffffff" data-color="2"/>
        <path d="M153.569 563.382v17.062h-3.438v-1.422q-1.33 1.61-3.86 1.61-1.752.002-3.171-.782a5.63 5.63 0 0 1-2.219-2.234c-.531-.969-.797-2.086-.797-3.36q0-1.905.797-3.359a5.65 5.65 0 0 1 2.219-2.234q1.419-.781 3.172-.782 2.373 0 3.703 1.5v-6Zm-6.672 14.296c.906 0 1.656-.304 2.25-.922q.89-.937.89-2.5 0-1.558-.89-2.484-.891-.937-2.25-.937-1.393 0-2.281.937-.891.926-.891 2.484 0 1.563.89 2.5c.594.618 1.352.922 2.282.922m0 0" fill="#ffffff" data-color="2"/>
        <path d="M169.338 568.069v12.375h-3.406v-1.469a5 5 0 0 1-1.703 1.235 5.4 5.4 0 0 1-2.141.421q-2.44 0-3.86-1.406-1.422-1.404-1.421-4.156v-7h3.578v6.469q-.002 2.986 2.516 2.984c.851 0 1.539-.273 2.062-.828q.78-.843.781-2.5v-6.125Zm0 0" fill="#ffffff" data-color="2"/>
        <path d="M183.79 572.147h3.406v6.531a9.8 9.8 0 0 1-3.03 1.516 11.8 11.8 0 0 1-3.47.531c-1.68 0-3.183-.351-4.515-1.062q-2.004-1.077-3.14-2.969-1.142-1.905-1.141-4.297 0-2.39 1.14-4.281c.758-1.27 1.813-2.258 3.156-2.969q2.03-1.078 4.563-1.078 2.12.002 3.844.719a7.5 7.5 0 0 1 2.89 2.062l-2.39 2.203q-1.721-1.811-4.157-1.812-1.547 0-2.75.656a4.64 4.64 0 0 0-1.859 1.813c-.437.78-.656 1.68-.656 2.687q0 1.488.656 2.672a4.73 4.73 0 0 0 1.86 1.828q1.183.656 2.703.656 1.606 0 2.89-.703Zm0 0" fill="#ffffff" data-color="2"/>
        <path d="m202.674 568.069-5.594 13.14q-.844 2.122-2.11 3-1.253.875-3.015.876a6.4 6.4 0 0 1-1.907-.297q-.937-.3-1.546-.828l1.312-2.547q.421.358.953.562.546.218 1.078.219.732 0 1.188-.36.467-.362.828-1.187l.047-.11-5.36-12.468h3.704l3.468 8.39 3.5-8.39Zm0 0" fill="#ffffff" data-color="2"/>
        <path d="M219.985 567.882q2.326.001 3.688 1.375c.914.906 1.375 2.277 1.375 4.109v7.078h-3.594v-6.531q0-1.466-.61-2.188-.609-.733-1.734-.734-1.267 0-2 .828-.736.816-.734 2.422v6.203h-3.594v-6.531q0-2.92-2.344-2.922-1.236 0-1.969.828-.736.816-.734 2.422v6.203h-3.594v-12.375h3.422v1.422a4.46 4.46 0 0 1 1.688-1.188 5.7 5.7 0 0 1 2.203-.422q1.311.002 2.36.532a4.3 4.3 0 0 1 1.718 1.5 5 5 0 0 1 1.906-1.5 6.1 6.1 0 0 1 2.547-.532m0 0" fill="#ffffff" data-color="2"/>
        <path d="M111.176 598.835v4.25h7.453v3h-7.453v5.859h-3.735V595.85h12.172v2.985Zm0 0" fill="#ffffff" data-color="2"/>
        <path d="M127.774 612.132q-1.958 0-3.516-.813-1.548-.825-2.422-2.266-.877-1.451-.875-3.297-.001-1.84.875-3.28.874-1.453 2.422-2.266 1.56-.828 3.516-.829 1.949.001 3.484.829a6.1 6.1 0 0 1 2.422 2.265q.874 1.442.875 3.281-.001 1.846-.875 3.297a6.2 6.2 0 0 1-2.422 2.266q-1.533.814-3.484.813m0-2.954c.914 0 1.664-.304 2.25-.922q.89-.937.89-2.5 0-1.558-.89-2.484-.879-.937-2.25-.937-1.393 0-2.281.937-.891.926-.891 2.484 0 1.563.89 2.5c.594.618 1.352.922 2.282.922m0 0" fill="#ffffff" data-color="2"/>
        <path d="M149.412 599.569v12.375h-3.406v-1.469a5 5 0 0 1-1.703 1.235 5.4 5.4 0 0 1-2.141.421q-2.44 0-3.86-1.406-1.422-1.404-1.421-4.156v-7h3.578v6.469q-.002 2.986 2.516 2.984c.851 0 1.539-.273 2.062-.828q.78-.843.781-2.5v-6.125Zm0 0" fill="#ffffff" data-color="2"/>
        <path d="M160.255 599.382q2.31 0 3.719 1.39c.945.918 1.422 2.281 1.422 4.094v7.078h-3.594v-6.531q-.001-1.466-.64-2.188-.643-.733-1.86-.734c-.906 0-1.633.281-2.172.844q-.797.831-.797 2.484v6.125h-3.594v-12.375h3.422v1.453a4.8 4.8 0 0 1 1.766-1.203 6.1 6.1 0 0 1 2.328-.437m0 0" fill="#ffffff" data-color="2"/>
        <path d="M181.236 594.882v17.062h-3.438v-1.422q-1.33 1.61-3.86 1.61-1.752.002-3.171-.782a5.63 5.63 0 0 1-2.219-2.234c-.531-.969-.797-2.086-.797-3.36q0-1.905.797-3.359a5.65 5.65 0 0 1 2.219-2.234q1.419-.781 3.172-.782 2.373 0 3.703 1.5v-6Zm-6.672 14.296c.906 0 1.656-.304 2.25-.922q.89-.937.89-2.5 0-1.558-.89-2.484-.891-.937-2.25-.937-1.393 0-2.281.937-.891.926-.891 2.484 0 1.563.89 2.5c.594.618 1.352.922 2.282.922m0 0" fill="#ffffff" data-color="2"/>
        <path d="M189.522 599.382q2.873.001 4.422 1.375 1.545 1.358 1.546 4.125v7.062h-3.359v-1.547c-.68 1.156-1.937 1.734-3.781 1.734q-1.426-.002-2.469-.484c-.7-.32-1.234-.766-1.61-1.328-.367-.57-.546-1.219-.546-1.937q-.002-1.735 1.297-2.72c.875-.656 2.21-.984 4.015-.984h2.86c0-.78-.243-1.379-.72-1.797q-.703-.639-2.14-.64-.986 0-1.937.312-.957.315-1.625.828l-1.281-2.5q1.014-.715 2.421-1.109a11 11 0 0 1 2.907-.39m-.266 10.328q.92 0 1.625-.422a2.3 2.3 0 0 0 1.016-1.25v-1.266h-2.453q-2.22 0-2.22 1.453 0 .69.532 1.094.544.391 1.5.39m0 0" fill="#ffffff" data-color="2"/>
        <path d="M206.708 611.35q-.534.394-1.313.594a6.8 6.8 0 0 1-1.61.188q-2.202 0-3.421-1.125c-.805-.75-1.203-1.852-1.203-3.313V602.6h-1.906v-2.75h1.906v-3.015h3.594v3.015h3.078v2.75h-3.078v5.047c0 .524.128.922.39 1.203q.404.422 1.14.422c.571 0 1.055-.148 1.454-.453Zm0 0" fill="#ffffff" data-color="2"/>
        <path d="M208.725 599.569h3.594v12.375h-3.594Zm1.781-1.719q-.986.001-1.609-.578a1.88 1.88 0 0 1-.61-1.422c0-.57.204-1.047.61-1.422.414-.382.953-.578 1.61-.578.664 0 1.203.184 1.609.547.414.367.625.824.625 1.375 0 .606-.211 1.106-.625 1.5q-.61.58-1.61.578m0 0" fill="#ffffff" data-color="2"/>
        <path d="M221.537 612.132q-1.958 0-3.516-.813-1.548-.825-2.422-2.266c-.586-.968-.875-2.066-.875-3.297q-.001-1.84.875-3.28.874-1.453 2.422-2.266 1.56-.828 3.516-.829 1.949.001 3.484.829a6.1 6.1 0 0 1 2.422 2.265q.874 1.442.875 3.281-.001 1.846-.875 3.297a6.2 6.2 0 0 1-2.422 2.266q-1.533.814-3.484.813m0-2.954c.914 0 1.664-.304 2.25-.922q.89-.937.89-2.5 0-1.558-.89-2.484-.879-.937-2.25-.937-1.393 0-2.281.937-.891.926-.891 2.484 0 1.563.89 2.5c.594.618 1.352.922 2.282.922m0 0" fill="#ffffff" data-color="2"/>
        <path d="M238.222 599.382q2.31 0 3.719 1.39c.945.918 1.422 2.281 1.422 4.094v7.078h-3.594v-6.531q-.001-1.466-.64-2.188-.643-.733-1.86-.734c-.906 0-1.633.281-2.172.844q-.797.831-.797 2.484v6.125h-3.594v-12.375h3.422v1.453a4.8 4.8 0 0 1 1.766-1.203 6.1 6.1 0 0 1 2.328-.437m0 0" fill="#ffffff" data-color="2"/>
        <g clip-path="url(#d425f40d-3a94-40c6-97ff-d2a85aeb108a)">
            <g clip-path="url(#319b93dc-7f5f-4796-a029-faa052e17f3c)">
                <path d="M712.137 238.988V529.84H502.984V238.988Zm0 0" fill="#67a0d7" data-color="1"/>
            </g>
        </g>
        <g clip-path="url(#657b40ba-8875-4871-bf45-54aa877c746d)">
            <g clip-path="url(#b6cb8d74-e0b9-47e4-b602-ec257296d41f)">
                <path d="M502.988 536.195h206.996v103.496H502.988Zm0 0" fill="#67a0d7" data-color="1"/>
            </g>
        </g>
        <path d="M527.9 593.21v2.984h-12.469V580.1h12.172v2.985h-8.469v3.5h7.485v2.89h-7.485v3.735Zm0 0" fill="#ffffff" data-color="2"/>
        <path d="M543.218 579.132v17.062h-3.438v-1.422q-1.33 1.61-3.86 1.61-1.752.002-3.171-.782a5.63 5.63 0 0 1-2.219-2.234c-.531-.969-.797-2.086-.797-3.36q0-1.905.797-3.359a5.65 5.65 0 0 1 2.219-2.234q1.419-.781 3.172-.782 2.373 0 3.703 1.5v-6Zm-6.672 14.296c.906 0 1.656-.304 2.25-.922q.89-.937.89-2.5 0-1.558-.89-2.484-.891-.937-2.25-.937-1.393 0-2.282.937-.89.926-.89 2.484 0 1.563.89 2.5c.594.618 1.352.922 2.282.922m0 0" fill="#ffffff" data-color="2"/>
        <path d="M558.988 583.819v12.375h-3.406v-1.469a5 5 0 0 1-1.703 1.235 5.4 5.4 0 0 1-2.141.421q-2.44 0-3.86-1.406-1.422-1.404-1.421-4.156v-7h3.578v6.469q-.002 2.986 2.516 2.984c.851 0 1.539-.273 2.062-.828q.78-.843.781-2.5v-6.125Zm0 0" fill="#ffffff" data-color="2"/>
        <path d="M573.44 587.897h3.406v6.531a9.8 9.8 0 0 1-3.03 1.516 11.8 11.8 0 0 1-3.47.531c-1.68 0-3.183-.351-4.515-1.062q-2.004-1.077-3.14-2.969-1.142-1.905-1.141-4.297 0-2.39 1.14-4.281c.758-1.27 1.813-2.258 3.156-2.969q2.03-1.078 4.563-1.078 2.12.002 3.844.719a7.5 7.5 0 0 1 2.89 2.062l-2.39 2.203q-1.721-1.811-4.157-1.812-1.547 0-2.75.656a4.64 4.64 0 0 0-1.859 1.813c-.437.78-.656 1.68-.656 2.687q0 1.488.656 2.672a4.73 4.73 0 0 0 1.86 1.828q1.183.656 2.703.656 1.606 0 2.89-.703Zm0 0" fill="#ffffff" data-color="2"/>
        <path d="m592.324 583.819-5.594 13.14q-.844 2.122-2.11 3-1.253.875-3.015.876a6.4 6.4 0 0 1-1.907-.297q-.937-.3-1.546-.828l1.312-2.547q.421.358.953.562.546.218 1.078.219.732 0 1.188-.36.466-.362.828-1.187l.047-.11-5.36-12.468h3.704l3.468 8.39 3.5-8.39Zm0 0" fill="#ffffff" data-color="2"/>
        <path d="M609.635 583.632q2.326.001 3.688 1.375c.914.906 1.375 2.277 1.375 4.109v7.078h-3.594v-6.531q0-1.466-.61-2.188-.609-.733-1.734-.734-1.267 0-2 .828-.736.816-.734 2.422v6.203h-3.594v-6.531q0-2.92-2.344-2.922-1.236 0-1.969.828-.736.816-.734 2.422v6.203h-3.594v-12.375h3.422v1.422a4.46 4.46 0 0 1 1.688-1.188 5.7 5.7 0 0 1 2.203-.422q1.311.002 2.36.532a4.3 4.3 0 0 1 1.718 1.5 5 5 0 0 1 1.906-1.5 6.1 6.1 0 0 1 2.547-.532m0 0" fill="#ffffff" data-color="2"/>
        <path d="M624.416 579.132h3.594v17.062h-3.594Zm0 0" fill="#ffffff" data-color="2"/>
        <path d="M643.462 590.053q0 .066-.078.97h-9.36a2.9 2.9 0 0 0 1.188 1.812q.951.672 2.36.671.965 0 1.703-.28.75-.295 1.406-.923l1.906 2.078c-1.168 1.336-2.87 2-5.11 2q-2.097.001-3.702-.812-1.611-.825-2.485-2.266-.877-1.451-.875-3.297 0-1.811.86-3.265a6.1 6.1 0 0 1 2.375-2.281q1.5-.828 3.375-.829 1.81.001 3.281.782a5.77 5.77 0 0 1 2.313 2.25c.562.968.843 2.101.843 3.39m-6.422-3.703q-1.22 0-2.046.688c-.555.46-.891 1.09-1.016 1.89h6.094q-.176-1.17-1-1.875-.83-.702-2.032-.703m0 0" fill="#ffffff" data-color="2"/>
        <path d="m658.128 583.819-5.22 12.375h-3.702l-5.203-12.375h3.703l3.437 8.422 3.531-8.422Zm0 0" fill="#ffffff" data-color="2"/>
        <path d="M671.72 590.053q0 .066-.078.97h-9.36a2.9 2.9 0 0 0 1.188 1.812q.951.672 2.36.671.965 0 1.703-.28.75-.295 1.406-.923l1.906 2.078c-1.168 1.336-2.87 2-5.11 2q-2.097.001-3.702-.812-1.612-.825-2.485-2.266c-.586-.968-.875-2.066-.875-3.297q0-1.811.86-3.265a6.1 6.1 0 0 1 2.375-2.281q1.5-.828 3.375-.829 1.81.001 3.281.782a5.77 5.77 0 0 1 2.313 2.25c.562.968.843 2.101.843 3.39m-6.422-3.703q-1.22 0-2.047.688-.83.69-1.015 1.89h6.094q-.176-1.17-1-1.875-.83-.702-2.032-.703m0 0" fill="#ffffff" data-color="2"/>
        <path d="M674.103 579.132h3.594v17.062h-3.594Zm0 0" fill="#ffffff" data-color="2"/>
        <path d="M698.796 593.163v3.031H686.64v-2.422l6.203-5.86q.983-.936 1.328-1.609c.226-.457.344-.91.344-1.359q0-.968-.657-1.484c-.43-.344-1.062-.516-1.906-.516q-1.065.001-1.922.406a3.75 3.75 0 0 0-1.422 1.203l-2.718-1.75q.95-1.389 2.609-2.187 1.652-.797 3.797-.797 1.793.002 3.14.594 1.341.578 2.079 1.656.75 1.064.75 2.516-.001 1.313-.547 2.468-.549 1.144-2.14 2.61l-3.704 3.5Zm0 0" fill="#ffffff" data-color="2"/>
        <g clip-path="url(#858edfbb-2c32-4d17-a5ce-3e7fdea06661)">
            <g clip-path="url(#cd4d31f6-c116-4aef-80da-52570c4fe001)">
                <path d="M1143.375 155.293v374.184H934.223V155.293Zm0 0" fill="#67a0d7" data-color="1"/>
            </g>
        </g>
        <g clip-path="url(#0750cbb1-bfa7-41cf-9fa5-f534cd67a1ac)">
            <g clip-path="url(#82255c86-32a5-42a1-b2c6-61d14f8fcdb9)">
                <path d="M934.23 536.195h206.993v103.496H934.23Zm0 0" fill="#67a0d7" data-color="1"/>
            </g>
        </g>
        <path d="M957.991 593.21v2.984h-12.469V580.1h12.172v2.985h-8.469v3.5h7.485v2.89h-7.485v3.735Zm0 0" fill="#ffffff" data-color="2"/>
        <path d="M973.309 579.132v17.062h-3.438v-1.422q-1.33 1.61-3.86 1.61-1.752.002-3.171-.782a5.63 5.63 0 0 1-2.219-2.234c-.531-.969-.797-2.086-.797-3.36q0-1.905.797-3.359a5.65 5.65 0 0 1 2.219-2.234q1.419-.781 3.172-.782 2.373 0 3.703 1.5v-6Zm-6.672 14.296c.906 0 1.656-.304 2.25-.922q.89-.937.89-2.5 0-1.558-.89-2.484-.891-.937-2.25-.937-1.393 0-2.281.937-.891.926-.891 2.484 0 1.563.89 2.5c.594.618 1.352.922 2.282.922m0 0" fill="#ffffff" data-color="2"/>
        <path d="M989.079 583.819v12.375h-3.406v-1.469a5 5 0 0 1-1.703 1.235 5.4 5.4 0 0 1-2.141.421q-2.44 0-3.86-1.406-1.422-1.404-1.421-4.156v-7h3.578v6.469q-.002 2.986 2.515 2.984c.852 0 1.54-.273 2.063-.828q.78-.843.781-2.5v-6.125Zm0 0" fill="#ffffff" data-color="2"/>
        <path d="M1003.531 587.897h3.407v6.531a9.8 9.8 0 0 1-3.032 1.516 11.8 11.8 0 0 1-3.468.531c-1.68 0-3.184-.351-4.516-1.062q-2.004-1.077-3.14-2.969-1.142-1.905-1.141-4.297 0-2.39 1.14-4.281 1.139-1.904 3.157-2.969c1.351-.719 2.875-1.078 4.562-1.078q2.12.002 3.844.719a7.5 7.5 0 0 1 2.89 2.062l-2.39 2.203c-1.149-1.207-2.532-1.812-4.157-1.812q-1.547 0-2.75.656a4.64 4.64 0 0 0-1.859 1.813c-.437.78-.656 1.68-.656 2.687q0 1.488.656 2.672a4.73 4.73 0 0 0 1.86 1.828q1.184.656 2.703.656 1.606 0 2.89-.703Zm0 0" fill="#ffffff" data-color="2"/>
        <path d="m1022.415 583.819-5.594 13.14q-.844 2.122-2.11 3-1.253.875-3.015.876a6.4 6.4 0 0 1-1.907-.297q-.937-.3-1.546-.828l1.312-2.547q.421.358.953.562.546.218 1.078.219.732 0 1.188-.36.467-.362.828-1.187l.047-.11-5.36-12.468h3.704l3.468 8.39 3.5-8.39Zm0 0" fill="#ffffff" data-color="2"/>
        <path d="M1039.726 583.632q2.326.001 3.688 1.375c.914.906 1.375 2.277 1.375 4.109v7.078h-3.594v-6.531q0-1.466-.61-2.188-.609-.733-1.734-.734-1.267 0-2 .828c-.492.543-.734 1.352-.734 2.422v6.203h-3.594v-6.531q0-2.92-2.344-2.922-1.236 0-1.969.828-.736.816-.734 2.422v6.203h-3.594v-12.375h3.422v1.422a4.46 4.46 0 0 1 1.688-1.188 5.7 5.7 0 0 1 2.203-.422q1.311.002 2.36.532a4.3 4.3 0 0 1 1.718 1.5 5 5 0 0 1 1.906-1.5 6.1 6.1 0 0 1 2.547-.532m0 0" fill="#ffffff" data-color="2"/>
        <path d="M1054.508 579.132h3.594v17.062h-3.594Zm0 0" fill="#ffffff" data-color="2"/>
        <path d="M1073.554 590.053q0 .066-.078.97h-9.36a2.9 2.9 0 0 0 1.188 1.812q.951.672 2.36.671.965 0 1.703-.28.75-.295 1.406-.923l1.906 2.078c-1.168 1.336-2.87 2-5.11 2q-2.097.001-3.702-.812-1.612-.825-2.485-2.266-.877-1.451-.875-3.297 0-1.811.86-3.265a6.1 6.1 0 0 1 2.375-2.281q1.5-.828 3.375-.829 1.81.001 3.281.782a5.77 5.77 0 0 1 2.313 2.25c.562.968.843 2.101.843 3.39m-6.422-3.703q-1.22 0-2.047.688-.83.69-1.015 1.89h6.094q-.176-1.17-1-1.875-.83-.702-2.032-.703m0 0" fill="#ffffff" data-color="2"/>
        <path d="m1088.218 583.819-5.22 12.375h-3.702l-5.204-12.375h3.704l3.437 8.422 3.531-8.422Zm0 0" fill="#ffffff" data-color="2"/>
        <path d="M1101.811 590.053q0 .066-.078.97h-9.36a2.9 2.9 0 0 0 1.188 1.812q.951.672 2.36.671.965 0 1.703-.28.75-.295 1.406-.923l1.906 2.078c-1.168 1.336-2.87 2-5.11 2q-2.097.001-3.702-.812-1.612-.825-2.485-2.266-.877-1.451-.875-3.297 0-1.811.86-3.265a6.1 6.1 0 0 1 2.375-2.281q1.5-.828 3.375-.829 1.81.001 3.281.782a5.77 5.77 0 0 1 2.313 2.25c.562.968.843 2.101.843 3.39m-6.422-3.703q-1.22 0-2.046.688-.83.69-1.016 1.89h6.094q-.176-1.17-1-1.875-.83-.702-2.032-.703m0 0" fill="#ffffff" data-color="2"/>
        <path d="M1104.194 579.132h3.594v17.062h-3.594Zm0 0" fill="#ffffff" data-color="2"/>
        <path d="M1131.607 592.819h-2.625v3.375h-3.625v-3.375h-8.672v-2.516l7.578-10.203h3.922l-7.047 9.672h4.328v-3.016h3.516v3.016h2.625Zm0 0" fill="#ffffff" data-color="2"/>
        <g clip-path="url(#4af16772-f896-4e13-af71-963737785a93)">
            <g clip-path="url(#fca5aac3-1988-4148-a0c5-2626c72086e8)">
                <path d="M927.754 195.453v334.152H718.602V195.453Zm0 0" fill="#67a0d7" data-color="1"/>
            </g>
        </g>
        <g clip-path="url(#648cadd9-3fd2-4c4f-95af-2138ee6d2490)">
            <g clip-path="url(#76252b06-c6b2-42d1-b568-d19f47d2fb7c)">
                <path d="M718.61 536.195h206.995v103.496H718.61Zm0 0" fill="#67a0d7" data-color="1"/>
            </g>
        </g>
        <path d="M743.495 593.21v2.984h-12.469V580.1h12.172v2.985h-8.469v3.5h7.485v2.89h-7.485v3.735Zm0 0" fill="#ffffff" data-color="2"/>
        <path d="M758.815 579.132v17.062h-3.438v-1.422q-1.33 1.61-3.86 1.61-1.752.002-3.171-.782a5.63 5.63 0 0 1-2.219-2.234c-.531-.969-.797-2.086-.797-3.36q0-1.905.797-3.359a5.65 5.65 0 0 1 2.219-2.234q1.419-.781 3.172-.782 2.373 0 3.703 1.5v-6Zm-6.672 14.296c.906 0 1.656-.304 2.25-.922q.89-.937.89-2.5 0-1.558-.89-2.484-.891-.937-2.25-.937c-.93 0-1.688.312-2.282.937q-.89.926-.89 2.484 0 1.563.89 2.5c.594.618 1.352.922 2.282.922m0 0" fill="#ffffff" data-color="2"/>
        <path d="M774.585 583.819v12.375h-3.406v-1.469a5 5 0 0 1-1.703 1.235 5.4 5.4 0 0 1-2.141.421q-2.44 0-3.86-1.406-1.422-1.404-1.421-4.156v-7h3.578v6.469q-.002 2.986 2.516 2.984c.851 0 1.539-.273 2.062-.828q.78-.843.781-2.5v-6.125Zm0 0" fill="#ffffff" data-color="2"/>
        <path d="M789.036 587.897h3.407v6.531a9.8 9.8 0 0 1-3.032 1.516 11.8 11.8 0 0 1-3.468.531c-1.68 0-3.184-.351-4.516-1.062q-2.004-1.077-3.14-2.969-1.142-1.905-1.141-4.297 0-2.39 1.14-4.281 1.139-1.904 3.157-2.969c1.351-.719 2.875-1.078 4.562-1.078q2.12.002 3.844.719a7.5 7.5 0 0 1 2.89 2.062l-2.39 2.203q-1.721-1.811-4.157-1.812-1.547 0-2.75.656a4.64 4.64 0 0 0-1.859 1.813c-.437.78-.656 1.68-.656 2.687q0 1.488.656 2.672a4.73 4.73 0 0 0 1.86 1.828q1.183.656 2.703.656 1.606 0 2.89-.703Zm0 0" fill="#ffffff" data-color="2"/>
        <path d="m807.92 583.819-5.594 13.14q-.844 2.122-2.11 3-1.253.875-3.015.876a6.4 6.4 0 0 1-1.907-.297q-.937-.3-1.546-.828l1.312-2.547q.421.358.953.562.546.218 1.078.219.732 0 1.188-.36.466-.362.828-1.187l.047-.11-5.36-12.468h3.704l3.468 8.39 3.5-8.39Zm0 0" fill="#ffffff" data-color="2"/>
        <path d="M825.231 583.632q2.326.001 3.688 1.375c.914.906 1.375 2.277 1.375 4.109v7.078H826.7v-6.531q0-1.466-.61-2.188-.609-.733-1.734-.734-1.267 0-2 .828c-.492.543-.734 1.352-.734 2.422v6.203h-3.594v-6.531q0-2.92-2.344-2.922-1.236 0-1.969.828-.736.816-.734 2.422v6.203h-3.594v-12.375h3.422v1.422a4.46 4.46 0 0 1 1.688-1.188 5.7 5.7 0 0 1 2.203-.422q1.311.002 2.36.532a4.3 4.3 0 0 1 1.718 1.5 5 5 0 0 1 1.906-1.5 6.1 6.1 0 0 1 2.547-.532m0 0" fill="#ffffff" data-color="2"/>
        <path d="M840.013 579.132h3.594v17.062h-3.594Zm0 0" fill="#ffffff" data-color="2"/>
        <path d="M859.06 590.053q-.001.066-.079.97h-9.36a2.9 2.9 0 0 0 1.188 1.812q.951.672 2.36.671.965 0 1.703-.28.75-.295 1.406-.923l1.906 2.078c-1.168 1.336-2.87 2-5.11 2q-2.097.001-3.702-.812-1.611-.825-2.485-2.266-.877-1.451-.875-3.297 0-1.811.86-3.265a6.1 6.1 0 0 1 2.375-2.281q1.5-.828 3.375-.829 1.81.001 3.281.782a5.77 5.77 0 0 1 2.313 2.25c.562.968.843 2.101.843 3.39m-6.423-3.703q-1.22 0-2.046.688-.83.69-1.016 1.89h6.094q-.176-1.17-1-1.875-.83-.702-2.032-.703m0 0" fill="#ffffff" data-color="2"/>
        <path d="m873.724 583.819-5.22 12.375h-3.702l-5.204-12.375h3.704l3.437 8.422 3.531-8.422Zm0 0" fill="#ffffff" data-color="2"/>
        <path d="M887.316 590.053q0 .066-.078.97h-9.36a2.9 2.9 0 0 0 1.188 1.812q.951.672 2.36.671.965 0 1.703-.28.75-.295 1.406-.923l1.906 2.078c-1.168 1.336-2.87 2-5.11 2q-2.097.001-3.702-.812-1.612-.825-2.485-2.266c-.586-.968-.875-2.066-.875-3.297q0-1.811.86-3.265a6.1 6.1 0 0 1 2.375-2.281q1.5-.828 3.375-.829 1.81.001 3.281.782a5.77 5.77 0 0 1 2.313 2.25c.562.968.843 2.101.843 3.39m-6.422-3.703q-1.22 0-2.047.688-.83.69-1.015 1.89h6.094q-.176-1.17-1-1.875-.83-.702-2.032-.703m0 0" fill="#ffffff" data-color="2"/>
        <path d="M889.7 579.132h3.593v17.062h-3.594Zm0 0" fill="#ffffff" data-color="2"/>
        <path d="M909.892 586.647q2.109.347 3.234 1.578 1.125 1.236 1.125 3.047-.001 1.409-.734 2.594c-.492.781-1.242 1.414-2.25 1.89-1 .477-2.227.72-3.672.72q-1.706-.001-3.36-.454c-1.093-.3-2.023-.726-2.78-1.281l1.437-2.844q.919.69 2.125 1.063 1.218.375 2.484.375 1.39.001 2.188-.532.81-.546.812-1.53 0-1.983-3-1.985h-1.703v-2.453l3.313-3.75h-6.86V580.1h11.266v2.406Zm0 0" fill="#ffffff" data-color="2"/>
        <g clip-path="url(#809cd723-dbdf-4b7a-9088-783c9b62939c)">
            <g clip-path="url(#ad845d76-d5a5-4f15-afdf-e3d5d7bd5d43)">
                <path d="M1358.992 126.324v403.594H1149.84V126.324Zm0 0" fill="#67a0d7" data-color="1"/>
            </g>
        </g>
        <g clip-path="url(#311ef00d-df5c-4b23-8f2b-e5f0775aac8f)">
            <g clip-path="url(#6d9e9625-eb61-4bba-9d84-96ed2e502f17)">
                <path d="M1149.848 536.195h206.996v103.496h-206.996Zm0 0" fill="#67a0d7" data-color="1"/>
            </g>
        </g>
        <path d="M1167.81 593.21v2.984h-12.469V580.1h12.172v2.985h-8.469v3.5h7.485v2.89h-7.485v3.735Zm0 0" fill="#ffffff" data-color="2"/>
        <path d="M1183.128 579.132v17.062h-3.438v-1.422q-1.33 1.61-3.86 1.61-1.752.002-3.171-.782a5.63 5.63 0 0 1-2.219-2.234c-.531-.969-.797-2.086-.797-3.36q0-1.905.797-3.359a5.65 5.65 0 0 1 2.219-2.234q1.419-.781 3.172-.782 2.373 0 3.703 1.5v-6Zm-6.672 14.296c.906 0 1.656-.304 2.25-.922q.89-.937.89-2.5 0-1.558-.89-2.484-.891-.937-2.25-.937-1.393 0-2.281.937-.891.926-.891 2.484 0 1.563.89 2.5c.594.618 1.352.922 2.282.922m0 0" fill="#ffffff" data-color="2"/>
        <path d="M1198.898 583.819v12.375h-3.406v-1.469a5 5 0 0 1-1.703 1.235 5.4 5.4 0 0 1-2.141.421q-2.44 0-3.86-1.406-1.422-1.404-1.421-4.156v-7h3.578v6.469q-.002 2.986 2.515 2.984c.852 0 1.54-.273 2.063-.828q.78-.843.781-2.5v-6.125Zm0 0" fill="#ffffff" data-color="2"/>
        <path d="M1213.35 587.897h3.407v6.531a9.8 9.8 0 0 1-3.032 1.516 11.8 11.8 0 0 1-3.468.531c-1.68 0-3.184-.351-4.516-1.062q-2.004-1.077-3.14-2.969-1.142-1.905-1.141-4.297 0-2.39 1.14-4.281c.758-1.27 1.813-2.258 3.157-2.969q2.028-1.078 4.562-1.078 2.12.002 3.844.719a7.5 7.5 0 0 1 2.89 2.062l-2.39 2.203q-1.722-1.811-4.157-1.812-1.547 0-2.75.656a4.64 4.64 0 0 0-1.859 1.813c-.437.78-.656 1.68-.656 2.687q0 1.488.656 2.672a4.73 4.73 0 0 0 1.86 1.828q1.184.656 2.703.656 1.606 0 2.89-.703Zm0 0" fill="#ffffff" data-color="2"/>
        <path d="m1232.234 583.819-5.594 13.14q-.844 2.122-2.11 3-1.253.875-3.015.876a6.4 6.4 0 0 1-1.907-.297q-.937-.3-1.546-.828l1.312-2.547q.421.358.953.562.546.218 1.078.219.732 0 1.188-.36.466-.362.828-1.187l.047-.11-5.36-12.468h3.704l3.468 8.39 3.5-8.39Zm0 0" fill="#ffffff" data-color="2"/>
        <path d="M1249.545 583.632q2.326.001 3.688 1.375 1.373 1.36 1.375 4.109v7.078h-3.594v-6.531q0-1.466-.61-2.188-.609-.733-1.734-.734-1.267 0-2 .828-.736.816-.734 2.422v6.203h-3.594v-6.531q0-2.92-2.344-2.922-1.236 0-1.969.828-.736.816-.734 2.422v6.203h-3.594v-12.375h3.422v1.422a4.46 4.46 0 0 1 1.688-1.188 5.7 5.7 0 0 1 2.203-.422q1.311.002 2.36.532a4.3 4.3 0 0 1 1.718 1.5 5 5 0 0 1 1.906-1.5 6.1 6.1 0 0 1 2.547-.532m0 0" fill="#ffffff" data-color="2"/>
        <path d="M1264.326 579.132h3.594v17.062h-3.594Zm0 0" fill="#ffffff" data-color="2"/>
        <path d="M1283.373 590.053q0 .066-.078.97h-9.36a2.9 2.9 0 0 0 1.188 1.812q.951.672 2.36.671.965 0 1.703-.28.75-.295 1.406-.923l1.906 2.078c-1.168 1.336-2.87 2-5.11 2q-2.097.001-3.702-.812-1.611-.825-2.485-2.266c-.586-.968-.875-2.066-.875-3.297q0-1.811.86-3.265a6.1 6.1 0 0 1 2.375-2.281q1.5-.828 3.375-.829 1.81.001 3.281.782a5.77 5.77 0 0 1 2.313 2.25c.562.968.843 2.101.843 3.39m-6.422-3.703q-1.22 0-2.046.688c-.555.46-.891 1.09-1.016 1.89h6.094q-.176-1.17-1-1.875-.83-.702-2.032-.703m0 0" fill="#ffffff" data-color="2"/>
        <path d="m1298.038 583.819-5.22 12.375h-3.702l-5.204-12.375h3.704l3.437 8.422 3.531-8.422Zm0 0" fill="#ffffff" data-color="2"/>
        <path d="M1311.63 590.053q0 .066-.078.97h-9.36a2.9 2.9 0 0 0 1.188 1.812q.951.672 2.36.671.965 0 1.703-.28.75-.295 1.406-.923l1.906 2.078c-1.168 1.336-2.87 2-5.11 2q-2.097.001-3.702-.812-1.612-.825-2.485-2.266-.877-1.451-.875-3.297 0-1.811.86-3.265a6.1 6.1 0 0 1 2.375-2.281q1.5-.828 3.375-.829 1.81.001 3.281.782a5.77 5.77 0 0 1 2.313 2.25c.562.968.843 2.101.843 3.39m-6.422-3.703q-1.22 0-2.047.688-.83.69-1.015 1.89h6.094q-.176-1.17-1-1.875-.83-.702-2.032-.703m0 0" fill="#ffffff" data-color="2"/>
        <path d="M1314.013 579.132h3.594v17.062h-3.594Zm0 0" fill="#ffffff" data-color="2"/>
        <path d="M1332.207 586.147q3.404 0 5.015 1.36 1.625 1.346 1.626 3.625-.002 1.47-.735 2.687-.738 1.207-2.25 1.938c-1 .476-2.234.718-3.703.718q-1.706 0-3.36-.453c-1.093-.3-2.023-.726-2.78-1.281l1.468-2.844q.92.69 2.11 1.063 1.202.375 2.468.375 1.407.002 2.203-.547.812-.546.813-1.532 0-1.044-.844-1.562-.843-.53-2.906-.531h-4.125l.828-9.063h9.828v2.985h-6.719l-.25 3.062Zm0 0" fill="#ffffff" data-color="2"/>
        <path d="M1351.84 589.553h-4v3.907h-2.969v-3.907h-3.984v-2.812h3.984v-3.906h2.969v3.906h4Zm0 0" fill="#ffffff" data-color="2"/>
        <path d="M146.782 388.22q2.935 0 5.11.984c1.444.649 2.562 1.574 3.343 2.781q1.172 1.8 1.172 4.266 0 2.438-1.172 4.266c-.781 1.21-1.899 2.136-3.344 2.78-1.45.65-3.152.97-5.11.97h-4.468v6.109h-5.125V388.22Zm-.282 11.875q2.31.001 3.516-1 1.202-.997 1.203-2.844 0-1.857-1.203-2.86c-.805-.663-1.976-1-3.516-1h-4.187v7.704Zm0 0" fill="#ffffff" data-color="2"/>
        <path d="M164.734 395.595q.874-1.231 2.375-1.86 1.514-.639 3.484-.64v4.562q-.829-.077-1.109-.078c-1.418 0-2.527.399-3.328 1.188-.805.793-1.203 1.98-1.203 3.562v8.047h-4.938v-17.031h4.719Zm0 0" fill="#ffffff" data-color="2"/>
        <path d="M190.346 401.923c0 .062-.04.508-.11 1.328h-12.875q.34 1.582 1.641 2.5 1.295.924 3.234.922 1.326 0 2.36-.39 1.029-.406 1.906-1.25l2.64 2.843c-1.605 1.836-3.949 2.75-7.03 2.75q-2.895 0-5.11-1.125-2.204-1.124-3.406-3.11c-.805-1.331-1.203-2.843-1.203-4.53q-.001-2.498 1.187-4.5a8.3 8.3 0 0 1 3.25-3.141q2.075-1.125 4.64-1.125 2.498 0 4.532 1.078a7.9 7.9 0 0 1 3.188 3.094q1.155 2.003 1.156 4.656m-8.844-5.094q-1.676.002-2.812.953-1.144.94-1.391 2.594h8.39q-.252-1.623-1.39-2.578-1.144-.968-2.797-.969m0 0" fill="#ffffff" data-color="2"/>
        <path d="M203.694 393.095c1.582 0 3.02.367 4.312 1.093q1.95 1.097 3.063 3.079 1.108 1.968 1.11 4.593c0 1.75-.372 3.29-1.11 4.61a7.9 7.9 0 0 1-3.063 3.062q-1.94 1.094-4.312 1.094-3.269.002-5.125-2.047v7.938h-4.938v-23.172h4.719v1.968q1.828-2.216 5.344-2.218m-.86 13.484q1.906 0 3.125-1.281t1.22-3.438q0-2.155-1.22-3.437-1.219-1.28-3.125-1.281c-1.261 0-2.297.43-3.109 1.28q-1.219 1.283-1.219 3.438 0 2.159 1.219 3.438 1.218 1.282 3.11 1.281m0 0" fill="#ffffff" data-color="2"/>
        <path d="M343.563 382.328h4.687v8.985q-1.799 1.36-4.172 2.093-2.38.717-4.78.719-3.458.001-6.204-1.469-2.753-1.464-4.328-4.078-1.564-2.607-1.563-5.906 0-3.293 1.563-5.906 1.576-2.608 4.36-4.079 2.776-1.483 6.265-1.484 2.904 0 5.281.985 2.372.984 4 2.859l-3.297 3.031c-1.586-1.664-3.496-2.5-5.734-2.5q-2.126 0-3.766.89a6.44 6.44 0 0 0-2.562 2.5q-.924 1.613-.922 3.704-.002 2.064.922 3.672a6.5 6.5 0 0 0 2.547 2.515q1.622.908 3.718.907 2.215 0 3.985-.954Zm0 0" fill="#ffffff" data-color="2"/>
        <path d="M357.374 378.969q.874-1.231 2.375-1.86c1.008-.425 2.172-.64 3.484-.64v4.562c-.554-.05-.921-.078-1.109-.078-1.418 0-2.527.399-3.328 1.188-.805.793-1.203 1.98-1.203 3.562v8.047h-4.938v-17.031h4.719Zm0 0" fill="#ffffff" data-color="2"/>
        <path d="M373.173 376.469c2.633 0 4.656.633 6.063 1.89 1.414 1.25 2.125 3.141 2.125 5.672v9.719h-4.625v-2.125c-.93 1.586-2.656 2.375-5.188 2.375q-1.954 0-3.406-.656-1.44-.67-2.203-1.844-.75-1.17-.75-2.656 0-2.374 1.781-3.735 1.793-1.359 5.531-1.359h3.922q0-1.623-.984-2.484c-.649-.582-1.625-.875-2.938-.875a8.5 8.5 0 0 0-2.671.437c-.875.281-1.622.664-2.235 1.14l-1.781-3.452q1.404-.967 3.344-1.5 1.951-.546 4.015-.547m-.39 14.203q1.264 0 2.25-.578.982-.575 1.39-1.719v-1.75h-3.39q-3.034.001-3.032 2-.002.956.735 1.5.748.549 2.047.547m0 0" fill="#ffffff" data-color="2"/>
        <path d="M403.172 370.266v23.484h-4.719v-1.969c-1.218 1.48-2.992 2.219-5.312 2.219q-2.409 0-4.36-1.078-1.94-1.077-3.046-3.063c-.743-1.332-1.11-2.875-1.11-4.625s.367-3.285 1.11-4.609q1.107-2 3.046-3.078 1.951-1.078 4.36-1.078 3.265 0 5.094 2.047v-8.25ZM394 389.953q1.857 0 3.094-1.281c.82-.852 1.234-2 1.234-3.438 0-1.437-.414-2.582-1.234-3.437q-1.236-1.28-3.094-1.281c-1.273 0-2.32.43-3.14 1.28q-1.236 1.283-1.235 3.438-.001 2.159 1.235 3.438 1.23 1.282 3.14 1.281m0 0" fill="#ffffff" data-color="2"/>
        <path d="M424.42 385.297c0 .062-.038.508-.109 1.328h-12.875q.34 1.582 1.641 2.5 1.294.924 3.234.922 1.326 0 2.36-.39 1.029-.406 1.906-1.25l2.64 2.843c-1.605 1.836-3.949 2.75-7.03 2.75q-2.895 0-5.11-1.125-2.204-1.124-3.406-3.11c-.805-1.331-1.203-2.843-1.203-4.53q-.001-2.498 1.187-4.5a8.3 8.3 0 0 1 3.25-3.141q2.075-1.125 4.64-1.125 2.499 0 4.532 1.078a7.9 7.9 0 0 1 3.188 3.094q1.155 2.003 1.156 4.656m-8.843-5.094q-1.676.002-2.812.953-1.144.94-1.391 2.594h8.39q-.252-1.623-1.39-2.578-1.144-.968-2.797-.969m0 0" fill="#ffffff" data-color="2"/>
        <path d="M444.165 371.594v22.156h-5.125v-18.047h-4.437v-4.11Zm0 0" fill="#ffffff" data-color="2"/>
        <path d="M558.429 366.212h4.687v8.985q-1.799 1.36-4.172 2.093-2.38.717-4.78.719-3.457.001-6.204-1.469-2.753-1.464-4.328-4.078-1.564-2.607-1.563-5.906 0-3.293 1.563-5.906 1.575-2.608 4.36-4.078 2.776-1.484 6.265-1.485 2.904 0 5.281.985 2.372.984 4 2.859l-3.297 3.031c-1.586-1.664-3.496-2.5-5.734-2.5q-2.126 0-3.766.89a6.44 6.44 0 0 0-2.562 2.5q-.924 1.613-.922 3.704-.002 2.064.922 3.672a6.5 6.5 0 0 0 2.547 2.515q1.622.908 3.718.907 2.215 0 3.985-.953Zm0 0" fill="#ffffff" data-color="2"/>
        <path d="M572.24 362.853q.874-1.231 2.375-1.86c1.008-.425 2.172-.64 3.484-.64v4.562q-.83-.077-1.109-.078c-1.418 0-2.527.399-3.328 1.188-.805.793-1.203 1.98-1.203 3.562v8.047h-4.938v-17.031h4.719Zm0 0" fill="#ffffff" data-color="2"/>
        <path d="M588.04 360.353c2.632 0 4.656.633 6.062 1.89 1.414 1.25 2.125 3.141 2.125 5.672v9.719h-4.625v-2.125c-.93 1.586-2.656 2.375-5.188 2.375q-1.954 0-3.406-.656-1.44-.67-2.203-1.844-.75-1.17-.75-2.656 0-2.374 1.781-3.735 1.793-1.359 5.531-1.359h3.922q0-1.623-.984-2.484c-.649-.582-1.625-.875-2.938-.875a8.5 8.5 0 0 0-2.671.437c-.875.281-1.622.664-2.235 1.14l-1.781-3.452q1.404-.967 3.344-1.5 1.951-.546 4.015-.547m-.391 14.203q1.264 0 2.25-.578.982-.575 1.39-1.719v-1.75h-3.39q-3.034.001-3.032 2-.001.956.735 1.5.748.549 2.047.547m0 0" fill="#ffffff" data-color="2"/>
        <path d="M618.039 354.15v23.484h-4.719v-1.969q-1.83 2.22-5.312 2.219-2.409 0-4.36-1.078-1.939-1.077-3.047-3.063c-.742-1.332-1.109-2.875-1.109-4.625s.367-3.285 1.11-4.609q1.107-2 3.046-3.078 1.951-1.078 4.36-1.078 3.265 0 5.093 2.047v-8.25Zm-9.172 19.687q1.858 0 3.094-1.281 1.232-1.28 1.234-3.438-.002-2.155-1.234-3.437-1.236-1.28-3.094-1.281c-1.273 0-2.32.43-3.14 1.28q-1.236 1.283-1.235 3.438-.001 2.159 1.235 3.438 1.23 1.282 3.14 1.281m0 0" fill="#ffffff" data-color="2"/>
        <path d="M639.287 369.18c0 .063-.04.509-.11 1.329h-12.875q.34 1.582 1.641 2.5 1.294.924 3.234.922 1.326 0 2.36-.39 1.029-.406 1.906-1.25l2.64 2.843c-1.605 1.836-3.949 2.75-7.03 2.75q-2.895 0-5.11-1.125-2.204-1.124-3.406-3.11c-.805-1.331-1.203-2.843-1.203-4.53q-.001-2.498 1.187-4.5a8.3 8.3 0 0 1 3.25-3.141q2.075-1.125 4.64-1.125 2.499 0 4.532 1.078a7.9 7.9 0 0 1 3.188 3.094q1.155 2.003 1.156 4.656m-8.844-5.093q-1.676.002-2.812.953-1.144.94-1.391 2.594h8.39q-.252-1.623-1.39-2.578-1.144-.968-2.797-.969m0 0" fill="#ffffff" data-color="2"/>
        <path d="M667.047 373.462v4.172h-16.75v-3.328l8.547-8.063q1.359-1.296 1.828-2.234c.32-.625.484-1.242.484-1.86 0-.882-.304-1.562-.906-2.03-.605-.477-1.484-.72-2.64-.72q-1.454 0-2.626.563a5.04 5.04 0 0 0-1.968 1.656l-3.735-2.406q1.295-1.934 3.578-3.031 2.279-1.092 5.22-1.094c1.644 0 3.081.274 4.312.813q1.858.815 2.89 2.28 1.032 1.472 1.032 3.47a7.76 7.76 0 0 1-.766 3.39q-.75 1.582-2.938 3.61l-5.093 4.812Zm0 0" fill="#ffffff" data-color="2"/>
        <path d="M778.048 346.68h4.687v8.983q-1.799 1.361-4.172 2.094-2.38.717-4.78.719-3.457.001-6.204-1.469-2.753-1.464-4.328-4.078-1.564-2.607-1.563-5.906 0-3.293 1.563-5.906 1.575-2.608 4.36-4.079 2.776-1.483 6.265-1.484 2.904 0 5.281.985 2.372.984 4 2.859l-3.297 3.031c-1.586-1.664-3.496-2.5-5.734-2.5q-2.126 0-3.766.89a6.44 6.44 0 0 0-2.562 2.5q-.924 1.613-.922 3.704-.002 2.064.922 3.672a6.5 6.5 0 0 0 2.547 2.515q1.622.908 3.718.907 2.215 0 3.985-.954Zm0 0" fill="#ffffff" data-color="2"/>
        <path d="M791.86 343.32q.874-1.231 2.375-1.86 1.514-.639 3.484-.64v4.562q-.83-.077-1.109-.078c-1.418 0-2.527.399-3.328 1.188-.805.793-1.203 1.98-1.203 3.562v8.047h-4.938V341.07h4.719Zm0 0" fill="#ffffff" data-color="2"/>
        <path d="M807.66 340.82c2.632 0 4.656.633 6.062 1.89q2.123 1.875 2.125 5.672v9.719h-4.625v-2.125c-.93 1.586-2.656 2.375-5.188 2.375q-1.954 0-3.406-.656-1.44-.67-2.203-1.844-.75-1.17-.75-2.656 0-2.374 1.781-3.735 1.793-1.359 5.531-1.359h3.922q0-1.623-.984-2.484c-.649-.582-1.625-.875-2.938-.875a8.5 8.5 0 0 0-2.671.437c-.875.281-1.622.664-2.235 1.14l-1.781-3.452q1.404-.968 3.344-1.5 1.951-.547 4.015-.547m-.391 14.203q1.264 0 2.25-.578.982-.575 1.39-1.719v-1.75h-3.39c-2.024 0-3.032.668-3.032 2q-.001.955.735 1.5.748.549 2.047.547m0 0" fill="#ffffff" data-color="2"/>
        <path d="M837.658 334.617V358.1h-4.719v-1.969c-1.218 1.48-2.992 2.219-5.312 2.219q-2.409 0-4.36-1.078-1.939-1.077-3.047-3.063-1.111-1.999-1.109-4.625c0-1.75.367-3.285 1.11-4.609q1.107-2 3.046-3.078 1.951-1.078 4.36-1.078 3.265 0 5.094 2.047v-8.25Zm-9.172 19.687q1.858 0 3.094-1.281 1.232-1.28 1.234-3.438-.002-2.155-1.234-3.437-1.236-1.28-3.094-1.281c-1.273 0-2.32.43-3.14 1.28q-1.236 1.283-1.235 3.438-.001 2.159 1.235 3.438 1.23 1.282 3.14 1.281m0 0" fill="#ffffff" data-color="2"/>
        <path d="M858.907 349.648c0 .062-.04.508-.11 1.328h-12.875q.34 1.582 1.641 2.5 1.295.924 3.234.922 1.326 0 2.36-.39 1.029-.406 1.906-1.25l2.64 2.843c-1.605 1.836-3.949 2.75-7.03 2.75q-2.895 0-5.11-1.125-2.204-1.124-3.406-3.11c-.805-1.331-1.203-2.843-1.203-4.53q-.001-2.498 1.187-4.5a8.3 8.3 0 0 1 3.25-3.141q2.075-1.125 4.64-1.125 2.499 0 4.532 1.078a7.9 7.9 0 0 1 3.188 3.094q1.155 2.003 1.156 4.656m-8.844-5.094q-1.676.002-2.812.953-1.144.94-1.391 2.594h8.39q-.252-1.623-1.39-2.578-1.144-.968-2.797-.969m0 0" fill="#ffffff" data-color="2"/>
        <path d="M880.464 344.96q2.906.486 4.453 2.172c1.031 1.125 1.547 2.524 1.547 4.188q-.001 1.938-1.016 3.578c-.668 1.086-1.695 1.953-3.078 2.61q-2.08.967-5.078.968-2.346 0-4.61-.61-2.266-.62-3.843-1.765l2-3.922a9.7 9.7 0 0 0 2.922 1.485q1.653.515 3.406.515c1.281 0 2.289-.242 3.031-.734q1.109-.749 1.11-2.125c0-1.813-1.383-2.719-4.141-2.719h-2.344v-3.39l4.563-5.157h-9.438v-4.11h15.516v3.329Zm0 0" fill="#ffffff" data-color="2"/>
        <path d="M987.644 326.25h4.687v8.985q-1.799 1.36-4.172 2.093-2.38.717-4.78.719-3.457.001-6.204-1.469-2.753-1.465-4.328-4.078-1.564-2.607-1.563-5.906 0-3.293 1.563-5.906 1.575-2.608 4.36-4.078 2.776-1.484 6.265-1.485 2.904 0 5.281.985 2.372.984 4 2.859L989.456 322c-1.586-1.664-3.496-2.5-5.734-2.5q-2.126 0-3.766.89a6.44 6.44 0 0 0-2.562 2.5q-.924 1.613-.922 3.704-.002 2.064.922 3.672a6.5 6.5 0 0 0 2.547 2.515q1.622.908 3.718.907 2.215 0 3.985-.953Zm0 0" fill="#ffffff" data-color="2"/>
        <path d="M1001.455 322.89q.874-1.23 2.375-1.859c1.008-.425 2.172-.64 3.484-.64v4.562q-.829-.077-1.109-.078c-1.418 0-2.527.399-3.328 1.188-.805.793-1.203 1.98-1.203 3.562v8.047h-4.938v-17.031h4.719Zm0 0" fill="#ffffff" data-color="2"/>
        <path d="M1017.254 320.39c2.633 0 4.656.634 6.063 1.891q2.123 1.875 2.125 5.672v9.719h-4.625v-2.125c-.93 1.586-2.657 2.375-5.188 2.375q-1.954 0-3.406-.656-1.44-.67-2.203-1.844-.75-1.17-.75-2.656 0-2.374 1.781-3.735 1.793-1.359 5.531-1.359h3.922q0-1.623-.984-2.484c-.649-.582-1.625-.875-2.938-.875a8.5 8.5 0 0 0-2.672.437c-.875.281-1.62.664-2.234 1.14l-1.781-3.452q1.404-.967 3.344-1.5 1.951-.546 4.015-.547m-.39 14.204q1.264 0 2.25-.578.982-.575 1.39-1.719v-1.75h-3.39c-2.024 0-3.032.668-3.032 2q-.001.956.735 1.5.748.549 2.047.547m0 0" fill="#ffffff" data-color="2"/>
        <path d="M1047.253 314.188v23.484h-4.719v-1.969q-1.83 2.22-5.312 2.219-2.409 0-4.36-1.078-1.939-1.077-3.047-3.063-1.111-1.999-1.109-4.625c0-1.75.367-3.285 1.11-4.609q1.107-2 3.046-3.078 1.951-1.078 4.36-1.078 3.265 0 5.093 2.047v-8.25Zm-9.172 19.687q1.858 0 3.094-1.281 1.232-1.28 1.234-3.438c0-1.437-.414-2.582-1.234-3.437q-1.236-1.28-3.094-1.281c-1.273 0-2.32.43-3.14 1.28q-1.236 1.283-1.235 3.438-.001 2.159 1.235 3.438 1.23 1.282 3.14 1.281m0 0" fill="#ffffff" data-color="2"/>
        <path d="M1068.502 329.219c0 .062-.04.508-.11 1.328h-12.875q.34 1.582 1.641 2.5 1.294.924 3.234.922 1.326 0 2.36-.39 1.029-.406 1.906-1.25l2.64 2.843c-1.605 1.836-3.949 2.75-7.03 2.75q-2.895 0-5.11-1.125-2.204-1.124-3.406-3.11c-.805-1.331-1.203-2.843-1.203-4.53q-.001-2.498 1.187-4.5a8.3 8.3 0 0 1 3.25-3.141q2.075-1.125 4.64-1.125 2.498 0 4.532 1.078a7.9 7.9 0 0 1 3.188 3.094q1.155 2.003 1.156 4.656m-8.844-5.094q-1.676.002-2.812.953-1.144.94-1.391 2.594h8.39q-.252-1.623-1.39-2.578-1.143-.968-2.797-.969m0 0" fill="#ffffff" data-color="2"/>
        <path d="M1099.995 333.016h-3.61v4.656h-5v-4.656h-11.937v-3.453l10.438-14.047h5.39l-9.687 13.328h5.953v-4.156h4.844v4.156h3.61Zm0 0" fill="#ffffff" data-color="2"/>
        <path d="M1199.758 302.405h4.687v8.985q-1.799 1.36-4.172 2.093-2.38.717-4.78.719-3.458.001-6.204-1.469-2.753-1.465-4.328-4.078-1.564-2.607-1.563-5.906 0-3.293 1.563-5.906 1.576-2.608 4.36-4.079 2.776-1.483 6.265-1.484 2.904 0 5.281.985 2.372.984 4 2.859l-3.297 3.031c-1.586-1.664-3.496-2.5-5.734-2.5q-2.126 0-3.766.89a6.44 6.44 0 0 0-2.562 2.5q-.924 1.613-.922 3.704-.002 2.064.922 3.672a6.5 6.5 0 0 0 2.547 2.515q1.622.908 3.718.907 2.215 0 3.985-.954Zm0 0" fill="#ffffff" data-color="2"/>
        <path d="M1213.57 299.046q.874-1.231 2.375-1.86 1.514-.639 3.484-.64v4.562q-.83-.077-1.109-.078c-1.418 0-2.527.399-3.328 1.188-.805.793-1.203 1.98-1.203 3.562v8.047h-4.938v-17.031h4.719Zm0 0" fill="#ffffff" data-color="2"/>
        <path d="M1229.368 296.546c2.633 0 4.657.633 6.063 1.89 1.414 1.25 2.125 3.141 2.125 5.672v9.719h-4.625v-2.125c-.93 1.586-2.657 2.375-5.188 2.375q-1.954 0-3.406-.656-1.44-.67-2.203-1.844-.75-1.17-.75-2.656 0-2.374 1.781-3.735 1.793-1.359 5.531-1.359h3.922q0-1.623-.984-2.484c-.649-.582-1.625-.875-2.938-.875a8.5 8.5 0 0 0-2.671.437c-.876.281-1.622.664-2.235 1.14l-1.781-3.452q1.404-.967 3.344-1.5 1.951-.546 4.015-.547m-.39 14.203q1.264 0 2.25-.578.982-.575 1.39-1.719v-1.75h-3.39q-3.034.001-3.032 2-.002.956.735 1.5.748.549 2.047.547m0 0" fill="#ffffff" data-color="2"/>
        <path d="M1259.368 290.343v23.484h-4.719v-1.969c-1.218 1.48-2.992 2.219-5.312 2.219q-2.409 0-4.36-1.078-1.939-1.077-3.047-3.063c-.742-1.332-1.109-2.875-1.109-4.625s.367-3.285 1.11-4.609q1.107-2 3.046-3.078 1.951-1.078 4.36-1.078 3.265 0 5.093 2.047v-8.25Zm-9.172 19.687q1.858 0 3.094-1.281 1.232-1.28 1.234-3.438-.002-2.155-1.234-3.437-1.236-1.28-3.094-1.281c-1.273 0-2.32.43-3.14 1.28q-1.236 1.283-1.235 3.438-.001 2.159 1.235 3.438 1.23 1.282 3.14 1.281m0 0" fill="#ffffff" data-color="2"/>
        <path d="M1280.616 305.374c0 .062-.04.508-.11 1.328h-12.875q.34 1.582 1.641 2.5 1.294.924 3.234.922 1.326 0 2.36-.39 1.029-.406 1.906-1.25l2.64 2.843c-1.605 1.836-3.949 2.75-7.03 2.75q-2.895 0-5.11-1.125-2.204-1.124-3.406-3.11c-.805-1.331-1.203-2.843-1.203-4.53q-.001-2.498 1.187-4.5a8.3 8.3 0 0 1 3.25-3.141q2.075-1.125 4.64-1.125 2.498 0 4.532 1.078a7.9 7.9 0 0 1 3.188 3.094q1.155 2.003 1.156 4.656m-8.844-5.094q-1.676.002-2.812.953-1.144.94-1.391 2.594h8.39q-.252-1.623-1.39-2.578-1.144-.968-2.797-.969m0 0" fill="#ffffff" data-color="2"/>
        <path d="M1299.407 299.999q4.686 0 6.922 1.875 2.233 1.862 2.234 4.984-.001 2.034-1.015 3.703-1.02 1.66-3.094 2.657-2.062.984-5.11.984-2.344 0-4.609-.61-2.25-.62-3.843-1.765l2.03-3.922a9.7 9.7 0 0 0 2.907 1.485 11.3 11.3 0 0 0 3.39.515q1.935 0 3.047-.75 1.11-.763 1.11-2.14-.001-1.42-1.156-2.141-1.159-.733-4.016-.735h-5.656l1.14-12.468h13.516v4.11h-9.25l-.344 4.218Zm0 0" fill="#ffffff" data-color="2"/>
        <path d="M1326.444 304.67h-5.515v5.391h-4.079v-5.39h-5.468v-3.86h5.468v-5.375h4.079v5.375h5.515Zm0 0" fill="#ffffff" data-color="2"/>
    </g>
</svg>
